<svg id="Container_Tops" data-name="Container Tops" xmlns="http://www.w3.org/2000/svg" xmlns:xlink="http://www.w3.org/1999/xlink" width="262" height="2850" viewBox="0 0 262 2850">
  <metadata><?xpacket begin="﻿" id="W5M0MpCehiHzreSzNTczkc9d"?>
<x:xmpmeta xmlns:x="adobe:ns:meta/" x:xmptk="Adobe XMP Core 5.6-c140 79.160451, 2017/05/06-01:08:21        ">
   <rdf:RDF xmlns:rdf="http://www.w3.org/1999/02/22-rdf-syntax-ns#">
      <rdf:Description rdf:about=""/>
   </rdf:RDF>
</x:xmpmeta>
                                                                                                    
                                                                                                    
                                                                                                    
                                                                                                    
                                                                                                    
                                                                                                    
                                                                                                    
                                                                                                    
                                                                                                    
                                                                                                    
                                                                                                    
                                                                                                    
                                                                                                    
                                                                                                    
                                                                                                    
                                                                                                    
                                                                                                    
                                                                                                    
                                                                                                    
                                                                                                    
                           
<?xpacket end="w"?></metadata>
<defs>
    <style>
      .cls-1, .cls-10, .cls-11, .cls-12, .cls-13, .cls-14, .cls-15, .cls-16, .cls-17, .cls-18, .cls-19, .cls-2, .cls-20, .cls-21, .cls-22, .cls-23, .cls-24, .cls-25, .cls-26, .cls-27, .cls-28, .cls-29, .cls-3, .cls-30, .cls-4, .cls-5, .cls-6, .cls-7, .cls-8, .cls-9 {
        fill: #acb0b4;
        stroke: #4a525a;
      }

      .cls-1, .cls-2 {
        stroke-width: 3px;
      }

      .cls-10, .cls-11, .cls-12, .cls-13, .cls-14, .cls-15, .cls-16, .cls-17, .cls-18, .cls-19, .cls-2, .cls-20, .cls-21, .cls-22, .cls-23, .cls-24, .cls-25, .cls-26, .cls-27, .cls-28, .cls-29, .cls-3, .cls-4, .cls-5, .cls-6, .cls-7, .cls-8, .cls-9 {
        fill-rule: evenodd;
      }

      .cls-10, .cls-11, .cls-12, .cls-13, .cls-14, .cls-15, .cls-16, .cls-17, .cls-18, .cls-19, .cls-20, .cls-21, .cls-22, .cls-23, .cls-24, .cls-25, .cls-26, .cls-27, .cls-28, .cls-3, .cls-4, .cls-5, .cls-6, .cls-7, .cls-8, .cls-9 {
        stroke-width: 1px;
      }

      .cls-3 {
        filter: url(#filter);
      }

      .cls-5 {
        filter: url(#filter-2);
      }

      .cls-6 {
        filter: url(#filter-3);
      }

      .cls-7 {
        filter: url(#filter-4);
      }

      .cls-8 {
        filter: url(#filter-5);
      }

      .cls-9 {
        filter: url(#filter-6);
      }

      .cls-10 {
        filter: url(#filter-7);
      }

      .cls-11 {
        filter: url(#filter-8);
      }

      .cls-12 {
        filter: url(#filter-9);
      }

      .cls-13 {
        filter: url(#filter-10);
      }

      .cls-14 {
        filter: url(#filter-11);
      }

      .cls-15 {
        filter: url(#filter-12);
      }

      .cls-16 {
        filter: url(#filter-13);
      }

      .cls-17 {
        filter: url(#filter-14);
      }

      .cls-18 {
        filter: url(#filter-15);
      }

      .cls-19 {
        filter: url(#filter-16);
      }

      .cls-20 {
        filter: url(#filter-17);
      }

      .cls-21 {
        filter: url(#filter-18);
      }

      .cls-22 {
        filter: url(#filter-19);
      }

      .cls-23 {
        filter: url(#filter-20);
      }

      .cls-24 {
        filter: url(#filter-21);
      }

      .cls-25 {
        filter: url(#filter-22);
      }

      .cls-26 {
        filter: url(#filter-23);
      }

      .cls-27 {
        filter: url(#filter-24);
      }

      .cls-28 {
        filter: url(#filter-25);
      }

      .cls-29, .cls-30 {
        stroke-width: 4px;
      }
    </style>
    <filter id="filter" x="235" y="2819" width="23" height="23" filterUnits="userSpaceOnUse">
      <feFlood result="flood" flood-color="#292d32"/>
      <feComposite result="composite" operator="in" in2="SourceGraphic"/>
      <feBlend result="blend" in2="SourceGraphic"/>
    </filter>
    <filter id="filter-2" x="235" y="2697" width="23" height="23" filterUnits="userSpaceOnUse">
      <feFlood result="flood" flood-color="#292d32"/>
      <feComposite result="composite" operator="in" in2="SourceGraphic"/>
      <feBlend result="blend" in2="SourceGraphic"/>
    </filter>
    <filter id="filter-3" x="235" y="2293" width="23" height="23" filterUnits="userSpaceOnUse">
      <feFlood result="flood" flood-color="#292d32"/>
      <feComposite result="composite" operator="in" in2="SourceGraphic"/>
      <feBlend result="blend" in2="SourceGraphic"/>
    </filter>
    <filter id="filter-4" x="235" y="2558" width="23" height="23" filterUnits="userSpaceOnUse">
      <feFlood result="flood" flood-color="#292d32"/>
      <feComposite result="composite" operator="in" in2="SourceGraphic"/>
      <feBlend result="blend" in2="SourceGraphic"/>
    </filter>
    <filter id="filter-5" x="235" y="2415" width="23" height="23" filterUnits="userSpaceOnUse">
      <feFlood result="flood" flood-color="#292d32"/>
      <feComposite result="composite" operator="in" in2="SourceGraphic"/>
      <feBlend result="blend" in2="SourceGraphic"/>
    </filter>
    <filter id="filter-6" x="235" y="2249" width="23" height="23" filterUnits="userSpaceOnUse">
      <feFlood result="flood" flood-color="#292d32"/>
      <feComposite result="composite" operator="in" in2="SourceGraphic"/>
      <feBlend result="blend" in2="SourceGraphic"/>
    </filter>
    <filter id="filter-7" x="235" y="2127" width="23" height="23" filterUnits="userSpaceOnUse">
      <feFlood result="flood" flood-color="#292d32"/>
      <feComposite result="composite" operator="in" in2="SourceGraphic"/>
      <feBlend result="blend" in2="SourceGraphic"/>
    </filter>
    <filter id="filter-8" x="235" y="1723" width="23" height="23" filterUnits="userSpaceOnUse">
      <feFlood result="flood" flood-color="#292d32"/>
      <feComposite result="composite" operator="in" in2="SourceGraphic"/>
      <feBlend result="blend" in2="SourceGraphic"/>
    </filter>
    <filter id="filter-9" x="235" y="1988" width="23" height="23" filterUnits="userSpaceOnUse">
      <feFlood result="flood" flood-color="#292d32"/>
      <feComposite result="composite" operator="in" in2="SourceGraphic"/>
      <feBlend result="blend" in2="SourceGraphic"/>
    </filter>
    <filter id="filter-10" x="235" y="1845" width="23" height="23" filterUnits="userSpaceOnUse">
      <feFlood result="flood" flood-color="#292d32"/>
      <feComposite result="composite" operator="in" in2="SourceGraphic"/>
      <feBlend result="blend" in2="SourceGraphic"/>
    </filter>
    <filter id="filter-11" x="235" y="1679" width="23" height="23" filterUnits="userSpaceOnUse">
      <feFlood result="flood" flood-color="#292d32"/>
      <feComposite result="composite" operator="in" in2="SourceGraphic"/>
      <feBlend result="blend" in2="SourceGraphic"/>
    </filter>
    <filter id="filter-12" x="235" y="1557" width="23" height="23" filterUnits="userSpaceOnUse">
      <feFlood result="flood" flood-color="#292d32"/>
      <feComposite result="composite" operator="in" in2="SourceGraphic"/>
      <feBlend result="blend" in2="SourceGraphic"/>
    </filter>
    <filter id="filter-13" x="235" y="1153" width="23" height="23" filterUnits="userSpaceOnUse">
      <feFlood result="flood" flood-color="#292d32"/>
      <feComposite result="composite" operator="in" in2="SourceGraphic"/>
      <feBlend result="blend" in2="SourceGraphic"/>
    </filter>
    <filter id="filter-14" x="235" y="1418" width="23" height="23" filterUnits="userSpaceOnUse">
      <feFlood result="flood" flood-color="#292d32"/>
      <feComposite result="composite" operator="in" in2="SourceGraphic"/>
      <feBlend result="blend" in2="SourceGraphic"/>
    </filter>
    <filter id="filter-15" x="235" y="1275" width="23" height="23" filterUnits="userSpaceOnUse">
      <feFlood result="flood" flood-color="#292d32"/>
      <feComposite result="composite" operator="in" in2="SourceGraphic"/>
      <feBlend result="blend" in2="SourceGraphic"/>
    </filter>
    <filter id="filter-16" x="235" y="1109" width="23" height="23" filterUnits="userSpaceOnUse">
      <feFlood result="flood" flood-color="#292d32"/>
      <feComposite result="composite" operator="in" in2="SourceGraphic"/>
      <feBlend result="blend" in2="SourceGraphic"/>
    </filter>
    <filter id="filter-17" x="235" y="987" width="23" height="23" filterUnits="userSpaceOnUse">
      <feFlood result="flood" flood-color="#292d32"/>
      <feComposite result="composite" operator="in" in2="SourceGraphic"/>
      <feBlend result="blend" in2="SourceGraphic"/>
    </filter>
    <filter id="filter-18" x="235" y="583" width="23" height="23" filterUnits="userSpaceOnUse">
      <feFlood result="flood" flood-color="#292d32"/>
      <feComposite result="composite" operator="in" in2="SourceGraphic"/>
      <feBlend result="blend" in2="SourceGraphic"/>
    </filter>
    <filter id="filter-19" x="235" y="848" width="23" height="23" filterUnits="userSpaceOnUse">
      <feFlood result="flood" flood-color="#292d32"/>
      <feComposite result="composite" operator="in" in2="SourceGraphic"/>
      <feBlend result="blend" in2="SourceGraphic"/>
    </filter>
    <filter id="filter-20" x="235" y="705" width="23" height="23" filterUnits="userSpaceOnUse">
      <feFlood result="flood" flood-color="#292d32"/>
      <feComposite result="composite" operator="in" in2="SourceGraphic"/>
      <feBlend result="blend" in2="SourceGraphic"/>
    </filter>
    <filter id="filter-21" x="235" y="539" width="23" height="23" filterUnits="userSpaceOnUse">
      <feFlood result="flood" flood-color="#292d32"/>
      <feComposite result="composite" operator="in" in2="SourceGraphic"/>
      <feBlend result="blend" in2="SourceGraphic"/>
    </filter>
    <filter id="filter-22" x="235" y="417" width="23" height="23" filterUnits="userSpaceOnUse">
      <feFlood result="flood" flood-color="#292d32"/>
      <feComposite result="composite" operator="in" in2="SourceGraphic"/>
      <feBlend result="blend" in2="SourceGraphic"/>
    </filter>
    <filter id="filter-23" x="235" y="13" width="23" height="23" filterUnits="userSpaceOnUse">
      <feFlood result="flood" flood-color="#292d32"/>
      <feComposite result="composite" operator="in" in2="SourceGraphic"/>
      <feBlend result="blend" in2="SourceGraphic"/>
    </filter>
    <filter id="filter-24" x="235" y="278" width="23" height="23" filterUnits="userSpaceOnUse">
      <feFlood result="flood" flood-color="#292d32"/>
      <feComposite result="composite" operator="in" in2="SourceGraphic"/>
      <feBlend result="blend" in2="SourceGraphic"/>
    </filter>
    <filter id="filter-25" x="235" y="135" width="23" height="23" filterUnits="userSpaceOnUse">
      <feFlood result="flood" flood-color="#292d32"/>
      <feComposite result="composite" operator="in" in2="SourceGraphic"/>
      <feBlend result="blend" in2="SourceGraphic"/>
    </filter>
  </defs>
  <g id="Cap">
    <rect id="Rounded_Rectangle_2" data-name="Rounded Rectangle 2" class="cls-1" x="168" y="2525" width="23" height="83" rx="11.5" ry="11.5"/>
    <rect id="Rounded_Rectangle_1" data-name="Rounded Rectangle 1" class="cls-1" x="180" y="2459" width="49" height="215" rx="24.5" ry="24.5"/>
    <path id="Shape_1_copy_4" data-name="Shape 1 copy 4" class="cls-2" d="M263,2847s-57,1.27-57-50,1-441.79,1-477,56-40,56-40v567Z"/>
    <g id="Nut">
      <g style="fill: #acb0b4; filter: url(#filter)">
        <path id="Polygon_1_copy" data-name="Polygon 1 copy" class="cls-3" d="M255.756,2821.26l2.253,14.2-12.833,6.53-10.183-10.17,6.538-12.81Z" style="stroke: inherit; filter: none; fill: inherit"/>
      </g>
      <use xlink:href="#Polygon_1_copy" style="stroke: #4a525a; filter: none; fill: none"/>
      <path id="Polygon_1" data-name="Polygon 1" class="cls-4" d="M253.145,2824.37l1.956,12.35-11.141,5.67-8.841-8.84,5.676-11.14Z"/>
    </g>
    <g id="Nut_copy_3" data-name="Nut copy 3">
      <g style="fill: #acb0b4; filter: url(#filter-2)">
        <path id="Polygon_1_copy-2" data-name="Polygon 1 copy" class="cls-5" d="M255.756,2699.26l2.253,14.2-12.833,6.53-10.183-10.17,6.538-12.81Z" style="stroke: inherit; filter: none; fill: inherit"/>
      </g>
      <use xlink:href="#Polygon_1_copy-2" style="stroke: #4a525a; filter: none; fill: none"/>
      <path id="Polygon_1-2" data-name="Polygon 1" class="cls-4" d="M253.145,2702.37l1.956,12.35-11.141,5.67-8.841-8.84,5.676-11.14Z"/>
    </g>
    <g id="Nut_copy" data-name="Nut copy">
      <g style="fill: #acb0b4; filter: url(#filter-3)">
        <path id="Polygon_1_copy-3" data-name="Polygon 1 copy" class="cls-6" d="M255.756,2295.26l2.253,14.2-12.833,6.53-10.183-10.17,6.538-12.81Z" style="stroke: inherit; filter: none; fill: inherit"/>
      </g>
      <use xlink:href="#Polygon_1_copy-3" style="stroke: #4a525a; filter: none; fill: none"/>
      <path id="Polygon_1-3" data-name="Polygon 1" class="cls-4" d="M253.145,2295.37l1.956,12.35-11.141,5.67-8.841-8.84,5.676-11.14Z"/>
    </g>
    <g id="Nut_copy_2" data-name="Nut copy 2">
      <g style="fill: #acb0b4; filter: url(#filter-4)">
        <path id="Polygon_1_copy-4" data-name="Polygon 1 copy" class="cls-7" d="M255.756,2560.26l2.253,14.2-12.833,6.53-10.183-10.17,6.538-12.81Z" style="stroke: inherit; filter: none; fill: inherit"/>
      </g>
      <use xlink:href="#Polygon_1_copy-4" style="stroke: #4a525a; filter: none; fill: none"/>
      <path id="Polygon_1-4" data-name="Polygon 1" class="cls-4" d="M253.145,2562.37l1.956,12.35-11.141,5.67-8.841-8.84,5.676-11.14Z"/>
    </g>
    <g id="Nut_copy_4" data-name="Nut copy 4">
      <g style="fill: #acb0b4; filter: url(#filter-5)">
        <path id="Polygon_1_copy-5" data-name="Polygon 1 copy" class="cls-8" d="M255.756,2417.26l2.253,14.2-12.833,6.53-10.183-10.17,6.538-12.81Z" style="stroke: inherit; filter: none; fill: inherit"/>
      </g>
      <use xlink:href="#Polygon_1_copy-5" style="stroke: #4a525a; filter: none; fill: none"/>
      <path id="Polygon_1-5" data-name="Polygon 1" class="cls-4" d="M253.145,2417.37l1.956,12.35-11.141,5.67-8.841-8.84,5.676-11.14Z"/>
    </g>
  </g>
  <g id="Cap_copy" data-name="Cap copy">
    <rect id="Rounded_Rectangle_2-2" data-name="Rounded Rectangle 2" class="cls-1" x="168" y="1955" width="23" height="83" rx="11.5" ry="11.5"/>
    <rect id="Rounded_Rectangle_1-2" data-name="Rounded Rectangle 1" class="cls-1" x="180" y="1889" width="49" height="215" rx="24.5" ry="24.5"/>
    <path id="Shape_1_copy_3" data-name="Shape 1 copy 3" class="cls-2" d="M263,2278s-57,1.27-57-50,1-441.79,1-477,56-40,56-40v567Z"/>
    <g id="Nut-2" data-name="Nut">
      <g style="fill: #acb0b4; filter: url(#filter-6)">
        <path id="Polygon_1_copy-6" data-name="Polygon 1 copy" class="cls-9" d="M255.756,2251.26l2.253,14.2-12.833,6.53-10.183-10.17,6.538-12.81Z" style="stroke: inherit; filter: none; fill: inherit"/>
      </g>
      <use xlink:href="#Polygon_1_copy-6" style="stroke: #4a525a; filter: none; fill: none"/>
      <path id="Polygon_1-6" data-name="Polygon 1" class="cls-4" d="M253.145,2254.37l1.956,12.35-11.141,5.67-8.841-8.84,5.676-11.14Z"/>
    </g>
    <g id="Nut_copy_3-2" data-name="Nut copy 3">
      <g style="fill: #acb0b4; filter: url(#filter-7)">
        <path id="Polygon_1_copy-7" data-name="Polygon 1 copy" class="cls-10" d="M255.756,2129.26l2.253,14.2-12.833,6.53-10.183-10.17,6.538-12.81Z" style="stroke: inherit; filter: none; fill: inherit"/>
      </g>
      <use xlink:href="#Polygon_1_copy-7" style="stroke: #4a525a; filter: none; fill: none"/>
      <path id="Polygon_1-7" data-name="Polygon 1" class="cls-4" d="M253.145,2132.37l1.956,12.35-11.141,5.67-8.841-8.84,5.676-11.14Z"/>
    </g>
    <g id="Nut_copy-2" data-name="Nut copy">
      <g style="fill: #acb0b4; filter: url(#filter-8)">
        <path id="Polygon_1_copy-8" data-name="Polygon 1 copy" class="cls-11" d="M255.756,1725.26l2.253,14.2-12.833,6.53-10.183-10.17,6.538-12.81Z" style="stroke: inherit; filter: none; fill: inherit"/>
      </g>
      <use xlink:href="#Polygon_1_copy-8" style="stroke: #4a525a; filter: none; fill: none"/>
      <path id="Polygon_1-8" data-name="Polygon 1" class="cls-4" d="M253.145,1725.37l1.956,12.35-11.141,5.67-8.841-8.84,5.676-11.14Z"/>
    </g>
    <g id="Nut_copy_2-2" data-name="Nut copy 2">
      <g style="fill: #acb0b4; filter: url(#filter-9)">
        <path id="Polygon_1_copy-9" data-name="Polygon 1 copy" class="cls-12" d="M255.756,1990.26l2.253,14.2-12.833,6.53-10.183-10.17,6.538-12.81Z" style="stroke: inherit; filter: none; fill: inherit"/>
      </g>
      <use xlink:href="#Polygon_1_copy-9" style="stroke: #4a525a; filter: none; fill: none"/>
      <path id="Polygon_1-9" data-name="Polygon 1" class="cls-4" d="M253.145,1992.37l1.956,12.35-11.141,5.67-8.841-8.84,5.676-11.14Z"/>
    </g>
    <g id="Nut_copy_4-2" data-name="Nut copy 4">
      <g style="fill: #acb0b4; filter: url(#filter-10)">
        <path id="Polygon_1_copy-10" data-name="Polygon 1 copy" class="cls-13" d="M255.756,1847.26l2.253,14.2-12.833,6.53-10.183-10.17,6.538-12.81Z" style="stroke: inherit; filter: none; fill: inherit"/>
      </g>
      <use xlink:href="#Polygon_1_copy-10" style="stroke: #4a525a; filter: none; fill: none"/>
      <path id="Polygon_1-10" data-name="Polygon 1" class="cls-4" d="M253.145,1847.37l1.956,12.35-11.141,5.67-8.841-8.84,5.676-11.14Z"/>
    </g>
  </g>
  <g id="Cap_copy_2" data-name="Cap copy 2">
    <rect id="Rounded_Rectangle_2-3" data-name="Rounded Rectangle 2" class="cls-1" x="168" y="1385" width="23" height="83" rx="11.5" ry="11.5"/>
    <rect id="Rounded_Rectangle_1-3" data-name="Rounded Rectangle 1" class="cls-1" x="180" y="1319" width="49" height="215" rx="24.5" ry="24.5"/>
    <path id="Shape_1_copy_2" data-name="Shape 1 copy 2" class="cls-2" d="M263,1708s-57,1.27-57-50,1-441.79,1-477,56-40,56-40v567Z"/>
    <g id="Nut-3" data-name="Nut">
      <g style="fill: #acb0b4; filter: url(#filter-11)">
        <path id="Polygon_1_copy-11" data-name="Polygon 1 copy" class="cls-14" d="M255.756,1681.26l2.253,14.2-12.833,6.53-10.183-10.17,6.538-12.81Z" style="stroke: inherit; filter: none; fill: inherit"/>
      </g>
      <use xlink:href="#Polygon_1_copy-11" style="stroke: #4a525a; filter: none; fill: none"/>
      <path id="Polygon_1-11" data-name="Polygon 1" class="cls-4" d="M253.145,1684.37l1.956,12.35-11.141,5.67-8.841-8.84,5.676-11.14Z"/>
    </g>
    <g id="Nut_copy_3-3" data-name="Nut copy 3">
      <g style="fill: #acb0b4; filter: url(#filter-12)">
        <path id="Polygon_1_copy-12" data-name="Polygon 1 copy" class="cls-15" d="M255.756,1559.26l2.253,14.2-12.833,6.53-10.183-10.17,6.538-12.81Z" style="stroke: inherit; filter: none; fill: inherit"/>
      </g>
      <use xlink:href="#Polygon_1_copy-12" style="stroke: #4a525a; filter: none; fill: none"/>
      <path id="Polygon_1-12" data-name="Polygon 1" class="cls-4" d="M253.145,1562.37l1.956,12.35-11.141,5.67-8.841-8.84,5.676-11.14Z"/>
    </g>
    <g id="Nut_copy-3" data-name="Nut copy">
      <g style="fill: #acb0b4; filter: url(#filter-13)">
        <path id="Polygon_1_copy-13" data-name="Polygon 1 copy" class="cls-16" d="M255.756,1155.26l2.253,14.2-12.833,6.53-10.183-10.17,6.538-12.81Z" style="stroke: inherit; filter: none; fill: inherit"/>
      </g>
      <use xlink:href="#Polygon_1_copy-13" style="stroke: #4a525a; filter: none; fill: none"/>
      <path id="Polygon_1-13" data-name="Polygon 1" class="cls-4" d="M253.145,1155.37l1.956,12.35-11.141,5.67-8.841-8.84,5.676-11.14Z"/>
    </g>
    <g id="Nut_copy_2-3" data-name="Nut copy 2">
      <g style="fill: #acb0b4; filter: url(#filter-14)">
        <path id="Polygon_1_copy-14" data-name="Polygon 1 copy" class="cls-17" d="M255.756,1420.26l2.253,14.2-12.833,6.53-10.183-10.17,6.538-12.81Z" style="stroke: inherit; filter: none; fill: inherit"/>
      </g>
      <use xlink:href="#Polygon_1_copy-14" style="stroke: #4a525a; filter: none; fill: none"/>
      <path id="Polygon_1-14" data-name="Polygon 1" class="cls-4" d="M253.145,1422.37l1.956,12.35-11.141,5.67-8.841-8.84,5.676-11.14Z"/>
    </g>
    <g id="Nut_copy_4-3" data-name="Nut copy 4">
      <g style="fill: #acb0b4; filter: url(#filter-15)">
        <path id="Polygon_1_copy-15" data-name="Polygon 1 copy" class="cls-18" d="M255.756,1277.26l2.253,14.2-12.833,6.53-10.183-10.17,6.538-12.81Z" style="stroke: inherit; filter: none; fill: inherit"/>
      </g>
      <use xlink:href="#Polygon_1_copy-15" style="stroke: #4a525a; filter: none; fill: none"/>
      <path id="Polygon_1-15" data-name="Polygon 1" class="cls-4" d="M253.145,1277.37l1.956,12.35-11.141,5.67-8.841-8.84,5.676-11.14Z"/>
    </g>
  </g>
  <g id="Cap_copy_3" data-name="Cap copy 3">
    <rect id="Rounded_Rectangle_2-4" data-name="Rounded Rectangle 2" class="cls-1" x="168" y="815" width="23" height="83" rx="11.5" ry="11.5"/>
    <rect id="Rounded_Rectangle_1-4" data-name="Rounded Rectangle 1" class="cls-1" x="180" y="749" width="49" height="215" rx="24.5" ry="24.5"/>
    <path id="Shape_1_copy" data-name="Shape 1 copy" class="cls-2" d="M263,1140s-57,1.27-57-50,1-441.793,1-477,56-40,56-40v567Z"/>
    <g id="Nut-4" data-name="Nut">
      <g style="fill: #acb0b4; filter: url(#filter-16)">
        <path id="Polygon_1_copy-16" data-name="Polygon 1 copy" class="cls-19" d="M255.756,1111.26l2.253,14.2-12.833,6.53-10.183-10.17,6.538-12.81Z" style="stroke: inherit; filter: none; fill: inherit"/>
      </g>
      <use xlink:href="#Polygon_1_copy-16" style="stroke: #4a525a; filter: none; fill: none"/>
      <path id="Polygon_1-16" data-name="Polygon 1" class="cls-4" d="M253.145,1114.37l1.956,12.35-11.141,5.67-8.841-8.84,5.676-11.14Z"/>
    </g>
    <g id="Nut_copy_3-4" data-name="Nut copy 3">
      <g style="fill: #acb0b4; filter: url(#filter-17)">
        <path id="Polygon_1_copy-17" data-name="Polygon 1 copy" class="cls-20" d="M255.756,989.257l2.253,14.2-12.833,6.53-10.183-10.171,6.538-12.812Z" style="stroke: inherit; filter: none; fill: inherit"/>
      </g>
      <use xlink:href="#Polygon_1_copy-17" style="stroke: #4a525a; filter: none; fill: none"/>
      <path id="Polygon_1-17" data-name="Polygon 1" class="cls-4" d="M253.145,992.369l1.956,12.351-11.141,5.67-8.841-8.84,5.676-11.138Z"/>
    </g>
    <g id="Nut_copy-4" data-name="Nut copy">
      <g style="fill: #acb0b4; filter: url(#filter-18)">
        <path id="Polygon_1_copy-18" data-name="Polygon 1 copy" class="cls-21" d="M255.756,585.257l2.253,14.2-12.833,6.528-10.183-10.168,6.538-12.812Z" style="stroke: inherit; filter: none; fill: inherit"/>
      </g>
      <use xlink:href="#Polygon_1_copy-18" style="stroke: #4a525a; filter: none; fill: none"/>
      <path id="Polygon_1-18" data-name="Polygon 1" class="cls-4" d="M253.145,585.369l1.956,12.349L243.96,603.4l-8.841-8.842,5.676-11.141Z"/>
    </g>
    <g id="Nut_copy_2-4" data-name="Nut copy 2">
      <g style="fill: #acb0b4; filter: url(#filter-19)">
        <path id="Polygon_1_copy-19" data-name="Polygon 1 copy" class="cls-22" d="M255.756,850.257l2.253,14.2-12.833,6.528-10.183-10.168,6.538-12.812Z" style="stroke: inherit; filter: none; fill: inherit"/>
      </g>
      <use xlink:href="#Polygon_1_copy-19" style="stroke: #4a525a; filter: none; fill: none"/>
      <path id="Polygon_1-19" data-name="Polygon 1" class="cls-4" d="M253.145,852.369l1.956,12.349L243.96,870.4l-8.841-8.842,5.676-11.141Z"/>
    </g>
    <g id="Nut_copy_4-4" data-name="Nut copy 4">
      <g style="fill: #acb0b4; filter: url(#filter-20)">
        <path id="Polygon_1_copy-20" data-name="Polygon 1 copy" class="cls-23" d="M255.756,707.257l2.253,14.2-12.833,6.528-10.183-10.168,6.538-12.812Z" style="stroke: inherit; filter: none; fill: inherit"/>
      </g>
      <use xlink:href="#Polygon_1_copy-20" style="stroke: #4a525a; filter: none; fill: none"/>
      <path id="Polygon_1-20" data-name="Polygon 1" class="cls-4" d="M253.145,707.368l1.956,12.35L243.96,725.4l-8.841-8.842,5.676-11.14Z"/>
    </g>
  </g>
  <g id="Cap_copy_4" data-name="Cap copy 4">
    <rect id="Rounded_Rectangle_2-5" data-name="Rounded Rectangle 2" class="cls-1" x="168" y="245" width="23" height="83" rx="11.5" ry="11.5"/>
    <rect id="Rounded_Rectangle_1-5" data-name="Rounded Rectangle 1" class="cls-1" x="180" y="179" width="49" height="215" rx="24.5" ry="24.5"/>
    <path class="cls-2" d="M263,570s-57,1.271-57-50,1-441.793,1-477S263,3,263,3V570Z"/>
    <g id="Nut-5" data-name="Nut">
      <g style="fill: #acb0b4; filter: url(#filter-21)">
        <path id="Polygon_1_copy-21" data-name="Polygon 1 copy" class="cls-24" d="M255.756,541.257l2.253,14.2-12.833,6.528-10.183-10.168,6.538-12.812Z" style="stroke: inherit; filter: none; fill: inherit"/>
      </g>
      <use xlink:href="#Polygon_1_copy-21" style="stroke: #4a525a; filter: none; fill: none"/>
      <path id="Polygon_1-21" data-name="Polygon 1" class="cls-4" d="M253.145,544.368l1.956,12.35L243.96,562.4l-8.841-8.842,5.676-11.14Z"/>
    </g>
    <g id="Nut_copy_3-5" data-name="Nut copy 3">
      <g style="fill: #acb0b4; filter: url(#filter-22)">
        <path id="Polygon_1_copy-22" data-name="Polygon 1 copy" class="cls-25" d="M255.756,419.257l2.253,14.2-12.833,6.528-10.183-10.168,6.538-12.812Z" style="stroke: inherit; filter: none; fill: inherit"/>
      </g>
      <use xlink:href="#Polygon_1_copy-22" style="stroke: #4a525a; filter: none; fill: none"/>
      <path id="Polygon_1-22" data-name="Polygon 1" class="cls-4" d="M253.145,422.369l1.956,12.349L243.96,440.4l-8.841-8.842,5.676-11.141Z"/>
    </g>
    <g id="Nut_copy-5" data-name="Nut copy">
      <g style="fill: #acb0b4; filter: url(#filter-23)">
        <path id="Polygon_1_copy-23" data-name="Polygon 1 copy" class="cls-26" d="M255.756,15.257l2.253,14.2-12.833,6.528L234.993,25.819l6.538-12.812Z" style="stroke: inherit; filter: none; fill: inherit"/>
      </g>
      <use xlink:href="#Polygon_1_copy-23" style="stroke: #4a525a; filter: none; fill: none"/>
      <path id="Polygon_1-23" data-name="Polygon 1" class="cls-4" d="M253.145,15.369l1.956,12.35L243.96,33.395l-8.841-8.841L240.8,13.413Z"/>
    </g>
    <g id="Nut_copy_2-5" data-name="Nut copy 2">
      <g style="fill: #acb0b4; filter: url(#filter-24)">
        <path id="Polygon_1_copy-24" data-name="Polygon 1 copy" class="cls-27" d="M255.756,280.257l2.253,14.2-12.833,6.528-10.183-10.168,6.538-12.812Z" style="stroke: inherit; filter: none; fill: inherit"/>
      </g>
      <use xlink:href="#Polygon_1_copy-24" style="stroke: #4a525a; filter: none; fill: none"/>
      <path id="Polygon_1-24" data-name="Polygon 1" class="cls-4" d="M253.145,282.369l1.956,12.349L243.96,300.4l-8.841-8.842,5.676-11.141Z"/>
    </g>
    <g id="Nut_copy_4-5" data-name="Nut copy 4">
      <g style="fill: #acb0b4; filter: url(#filter-25)">
        <path id="Polygon_1_copy-25" data-name="Polygon 1 copy" class="cls-28" d="M255.756,137.257l2.253,14.2-12.833,6.528-10.183-10.168,6.538-12.812Z" style="stroke: inherit; filter: none; fill: inherit"/>
      </g>
      <use xlink:href="#Polygon_1_copy-25" style="stroke: #4a525a; filter: none; fill: none"/>
      <path id="Polygon_1-25" data-name="Polygon 1" class="cls-4" d="M253.145,137.369l1.956,12.349L243.96,155.4l-8.841-8.842,5.676-11.14Z"/>
    </g>
  </g>
  <g id="Pipe_3" data-name="Pipe 3">
    <path id="Rounded_Rectangle_2_copy_19" data-name="Rounded Rectangle 2 copy 19" class="cls-29" d="M169.526,1452.01l-0.035-50.16a9.031,9.031,0,0,0-9.033-9.02h-5.14a9.026,9.026,0,0,0-9.021,9.03l0.035,50.16a9.033,9.033,0,0,0,9.033,9.03h5.14A9.028,9.028,0,0,0,169.526,1452.01Z"/>
    <path id="Rounded_Rectangle_2_copy_20" data-name="Rounded Rectangle 2 copy 20" class="cls-29" d="M147.526,1452.01l-0.035-50.16a9.031,9.031,0,0,0-9.033-9.02h-5.14a9.026,9.026,0,0,0-9.021,9.03l0.035,50.16a9.033,9.033,0,0,0,9.033,9.03h5.14A9.028,9.028,0,0,0,147.526,1452.01Z"/>
    <path id="Rounded_Rectangle_2_copy_21" data-name="Rounded Rectangle 2 copy 21" class="cls-29" d="M125.526,1456.01l-0.035-50.16a9.031,9.031,0,0,0-9.033-9.02h-5.14a9.026,9.026,0,0,0-9.021,9.03l0.035,50.16a9.033,9.033,0,0,0,9.033,9.03h5.14A9.028,9.028,0,0,0,125.526,1456.01Z"/>
    <path id="Rounded_Rectangle_2_copy_22" data-name="Rounded Rectangle 2 copy 22" class="cls-29" d="M103.526,1452.01l-0.035-50.16a9.031,9.031,0,0,0-9.033-9.02h-5.14a9.026,9.026,0,0,0-9.021,9.03l0.034,50.16a9.034,9.034,0,0,0,9.033,9.03h5.14A9.028,9.028,0,0,0,103.526,1452.01Z"/>
    <path id="Rounded_Rectangle_2_copy_23" data-name="Rounded Rectangle 2 copy 23" class="cls-29" d="M81.526,1456.01l-0.034-50.16a9.032,9.032,0,0,0-9.033-9.02h-5.14a9.026,9.026,0,0,0-9.021,9.03l0.035,50.16a9.034,9.034,0,0,0,9.033,9.03h5.14A9.028,9.028,0,0,0,81.526,1456.01Z"/>
    <path id="Rounded_Rectangle_2_copy_24" data-name="Rounded Rectangle 2 copy 24" class="cls-29" d="M60.526,1456.01l-0.035-50.16a9.032,9.032,0,0,0-9.033-9.02h-5.14a9.026,9.026,0,0,0-9.021,9.03l0.035,50.16a9.034,9.034,0,0,0,9.033,9.03h5.14A9.028,9.028,0,0,0,60.526,1456.01Z"/>
    <path id="Rounded_Rectangle_2_copy_25" data-name="Rounded Rectangle 2 copy 25" class="cls-29" d="M43.526,1456.01l-0.035-50.16a9.032,9.032,0,0,0-9.033-9.02h-5.14a9.026,9.026,0,0,0-9.021,9.03l0.035,50.16a9.034,9.034,0,0,0,9.033,9.03h5.14A9.028,9.028,0,0,0,43.526,1456.01Z"/>
  </g>
  <g id="Pipe_1" data-name="Pipe 1">
    <rect id="Rounded_Rectangle_2_copy_9" data-name="Rounded Rectangle 2 copy 9" class="cls-30" x="146.875" y="2529" width="23.125" height="68" rx="9" ry="9"/>
    <path id="Rounded_Rectangle_2_copy_9-2" data-name="Rounded Rectangle 2 copy 9" class="cls-29" d="M125.543,2583.17l6.884-49.52a9,9,0,0,1,10.154-7.68l5.076,0.71a9,9,0,0,1,7.675,10.15l-6.884,49.52a9,9,0,0,1-10.154,7.68l-5.076-.71A9,9,0,0,1,125.543,2583.17Z"/>
    <path id="Rounded_Rectangle_2_copy_9-3" data-name="Rounded Rectangle 2 copy 9" class="cls-29" d="M103.839,2572.32L119,2524.67a9,9,0,0,1,11.305-5.85l4.884,1.56a8.994,8.994,0,0,1,5.848,11.3l-15.16,47.65a9,9,0,0,1-11.305,5.85l-4.884-1.56A8.994,8.994,0,0,1,103.839,2572.32Z"/>
    <path id="Rounded_Rectangle_2_copy_9-4" data-name="Rounded Rectangle 2 copy 9" class="cls-29" d="M84.157,2559.26l23.523-44.12a9,9,0,0,1,12.176-3.7l4.522,2.41a8.992,8.992,0,0,1,3.708,12.17l-23.523,44.12a9,9,0,0,1-12.175,3.71l-4.522-2.41A9,9,0,0,1,84.157,2559.26Z"/>
    <path id="Rounded_Rectangle_2_copy_9-5" data-name="Rounded Rectangle 2 copy 9" class="cls-29" d="M67.606,2544.97l29.373-40.47a9,9,0,0,1,12.571-1.99l4.147,3.01a9,9,0,0,1,2,12.57L86.32,2558.55a9,9,0,0,1-12.57,2l-4.147-3.01A9,9,0,0,1,67.606,2544.97Z"/>
    <path id="Rounded_Rectangle_2_copy_9-6" data-name="Rounded Rectangle 2 copy 9" class="cls-29" d="M53.383,2526.88l35.793-34.91a9,9,0,0,1,12.727.16l3.578,3.67a9,9,0,0,1-.158,12.73L69.53,2543.44a9,9,0,0,1-12.727-.16l-3.578-3.67A9,9,0,0,1,53.383,2526.88Z"/>
    <path id="Rounded_Rectangle_2_copy_9-7" data-name="Rounded Rectangle 2 copy 9" class="cls-29" d="M39.194,2509.34l38.624-31.75a9,9,0,0,1,12.668,1.23l3.255,3.96a9,9,0,0,1-1.237,12.67L53.88,2527.2a9,9,0,0,1-12.668-1.24l-3.255-3.95A9,9,0,0,1,39.194,2509.34Z"/>
    <path id="Rounded_Rectangle_2_copy_9-8" data-name="Rounded Rectangle 2 copy 9" class="cls-29" d="M29.379,2489.79l42.628-26.13a9,9,0,0,1,12.377,2.97l2.679,4.37a9,9,0,0,1-2.969,12.38l-42.628,26.13a9,9,0,0,1-12.377-2.97l-2.679-4.37A9,9,0,0,1,29.379,2489.79Z"/>
    <path id="Rounded_Rectangle_2_copy_9-9" data-name="Rounded Rectangle 2 copy 9" class="cls-29" d="M23.163,2467.64L69.6,2449.1a8.992,8.992,0,0,1,11.7,5.02l1.9,4.76a8.994,8.994,0,0,1-5.019,11.69l-46.433,18.55a9.008,9.008,0,0,1-11.7-5.02l-1.9-4.76A9,9,0,0,1,23.163,2467.64Z"/>
    <path id="Rounded_Rectangle_2_copy_10" data-name="Rounded Rectangle 2 copy 10" class="cls-29" d="M44.541,2296.52l31.392,39.1a9.028,9.028,0,0,0,12.692,1.39l4.01-3.22a9.026,9.026,0,0,0,1.391-12.69l-31.392-39.11a9.027,9.027,0,0,0-12.692-1.38l-4.01,3.22A9.026,9.026,0,0,0,44.541,2296.52Z"/>
    <path id="Rounded_Rectangle_2_copy_10-2" data-name="Rounded Rectangle 2 copy 10" class="cls-29" d="M30.884,2313.69l36.479,34.41a9.027,9.027,0,0,0,12.763-.37l3.528-3.74a9.025,9.025,0,0,0-.37-12.76l-36.479-34.41a9.027,9.027,0,0,0-12.763.37l-3.529,3.74A9.025,9.025,0,0,0,30.884,2313.69Z"/>
    <path id="Rounded_Rectangle_2_copy_10-3" data-name="Rounded Rectangle 2 copy 10" class="cls-29" d="M20.717,2335.81l41.775,27.75a9.041,9.041,0,0,0,12.516-2.53l2.845-4.28a9.032,9.032,0,0,0-2.523-12.52l-41.775-27.74a9.03,9.03,0,0,0-12.516,2.52l-2.845,4.29A9.022,9.022,0,0,0,20.717,2335.81Z"/>
    <path id="Rounded_Rectangle_2_copy_10-4" data-name="Rounded Rectangle 2 copy 10" class="cls-29" d="M13.514,2358.38l46.105,19.74a9.037,9.037,0,0,0,11.854-4.75l2.025-4.73a9.024,9.024,0,0,0-4.744-11.85l-46.1-19.73a9.032,9.032,0,0,0-11.854,4.74l-2.024,4.73A9.024,9.024,0,0,0,13.514,2358.38Z"/>
    <path id="Rounded_Rectangle_2_copy_10-5" data-name="Rounded Rectangle 2 copy 10" class="cls-29" d="M9.541,2379.96l48.385,13.2a9.037,9.037,0,0,0,11.088-6.34l1.355-4.96a9.018,9.018,0,0,0-6.331-11.08l-48.385-13.2a9.029,9.029,0,0,0-11.088,6.34l-1.355,4.95A9.029,9.029,0,0,0,9.541,2379.96Z"/>
    <path id="Rounded_Rectangle_2_copy_11" data-name="Rounded Rectangle 2 copy 11" class="cls-29" d="M149.059,2249.91l-49.4-8.74a9,9,0,0,1-7.3-10.46l0.907-5.06a9.05,9.05,0,0,1,10.486-7.31l49.4,8.74a9,9,0,0,1,7.3,10.46l-0.908,5.06A9.05,9.05,0,0,1,149.059,2249.91Z"/>
    <path id="Rounded_Rectangle_2_copy_11-2" data-name="Rounded Rectangle 2 copy 11" class="cls-29" d="M140.509,2270.13L92.8,2254.68a9.009,9.009,0,0,1-5.785-11.37l1.6-4.89a9.051,9.051,0,0,1,11.391-5.8l47.712,15.45a9.009,9.009,0,0,1,5.785,11.37l-1.6,4.89A9.051,9.051,0,0,1,140.509,2270.13Z"/>
    <path id="Rounded_Rectangle_2_copy_11-3" data-name="Rounded Rectangle 2 copy 11" class="cls-29" d="M125.943,2289.67l-44.391-23.3a9.012,9.012,0,0,1-3.776-12.19l2.4-4.55a9.061,9.061,0,0,1,12.205-3.8l44.391,23.3a9.015,9.015,0,0,1,3.776,12.19l-2.4,4.55A9.062,9.062,0,0,1,125.943,2289.67Z"/>
    <path id="Rounded_Rectangle_2_copy_11-4" data-name="Rounded Rectangle 2 copy 11" class="cls-29" d="M109.561,2306.82l-39.428-30.94a9.013,9.013,0,0,1-1.507-12.67l3.183-4.05a9.052,9.052,0,0,1,12.687-1.53l39.428,30.94a9.014,9.014,0,0,1,1.507,12.67l-3.183,4.05A9.044,9.044,0,0,1,109.561,2306.82Z"/>
    <path id="Rounded_Rectangle_2_copy_11-5" data-name="Rounded Rectangle 2 copy 11" class="cls-29" d="M92.5,2320.66l-34.777-36.07a9.03,9.03,0,0,1,.254-12.77l3.709-3.56a9.037,9.037,0,0,1,12.773.22l34.777,36.08a9.018,9.018,0,0,1-.254,12.76l-3.709,3.57A9.038,9.038,0,0,1,92.5,2320.66Z"/>
    <path id="Rounded_Rectangle_2_copy_12" data-name="Rounded Rectangle 2 copy 12" class="cls-29" d="M63.518,2127.06l39.191-31.28a9.066,9.066,0,0,1,12.714,1.41l3.223,4.01a9,9,0,0,1-1.395,12.68L78.06,2145.16a9.067,9.067,0,0,1-12.714-1.42l-3.223-4.01A8.99,8.99,0,0,1,63.518,2127.06Z"/>
    <path id="Rounded_Rectangle_2_copy_12-2" data-name="Rounded Rectangle 2 copy 12" class="cls-29" d="M53.889,2107.34l43.147-25.59a9.066,9.066,0,0,1,12.4,3.15l2.639,4.41a9,9,0,0,1-3.132,12.36L65.8,2127.26a9.063,9.063,0,0,1-12.4-3.14l-2.639-4.42A9,9,0,0,1,53.889,2107.34Z"/>
    <path id="Rounded_Rectangle_2_copy_12-3" data-name="Rounded Rectangle 2 copy 12" class="cls-29" d="M41.763,2089.72l44-24.17a9.071,9.071,0,0,1,12.291,3.55l2.489,4.5a8.987,8.987,0,0,1-3.548,12.24l-44,24.17a9.071,9.071,0,0,1-12.291-3.55l-2.489-4.5A8.987,8.987,0,0,1,41.763,2089.72Z"/>
    <path id="Rounded_Rectangle_2_copy_13" data-name="Rounded Rectangle 2 copy 13" class="cls-29" d="M29.787,2065.53l47.138-17.25a9.059,9.059,0,0,1,11.615,5.36l1.782,4.82a9,9,0,0,1-5.355,11.57L37.83,2087.28a9.075,9.075,0,0,1-11.615-5.36l-1.783-4.82A8.99,8.99,0,0,1,29.787,2065.53Z"/>
    <path id="Rounded_Rectangle_2_copy_14" data-name="Rounded Rectangle 2 copy 14" class="cls-29" d="M17.787,2047.53l47.138-17.25a9.059,9.059,0,0,1,11.615,5.36l1.782,4.82a9,9,0,0,1-5.355,11.57L25.83,2069.28a9.075,9.075,0,0,1-11.615-5.36l-1.783-4.82A8.99,8.99,0,0,1,17.787,2047.53Z"/>
    <path id="Rounded_Rectangle_2_copy_12-4" data-name="Rounded Rectangle 2 copy 12" class="cls-29" d="M155.386,2203.95l-49.79-6.88a9,9,0,0,0-10.165,7.7l-0.685,5.09a9.061,9.061,0,0,0,7.759,10.17l49.79,6.88a8.987,8.987,0,0,0,10.165-7.69l0.685-5.09A9.075,9.075,0,0,0,155.386,2203.95Z"/>
    <path id="Rounded_Rectangle_2_copy_12-5" data-name="Rounded Rectangle 2 copy 12" class="cls-29" d="M153.428,2182.11l-50.236.02a8.981,8.981,0,0,0-9,9.02l0.024,5.14a9.084,9.084,0,0,0,9.085,9.02l50.236-.02a8.984,8.984,0,0,0,9-9.03l-0.024-5.13A9.078,9.078,0,0,0,153.428,2182.11Z"/>
    <path id="Rounded_Rectangle_2_copy_12-6" data-name="Rounded Rectangle 2 copy 12" class="cls-29" d="M145.522,2159.06l-49.473,8.5a8.982,8.982,0,0,0-7.334,10.42l0.895,5.06a9.087,9.087,0,0,0,10.476,7.37l49.473-8.5a8.978,8.978,0,0,0,7.334-10.42l-0.9-5.06A9.094,9.094,0,0,0,145.522,2159.06Z"/>
    <path id="Rounded_Rectangle_2_copy_12-7" data-name="Rounded Rectangle 2 copy 12" class="cls-29" d="M136.154,2135.73l-47.08,17.28a8.98,8.98,0,0,0-5.32,11.58l1.8,4.82a9.082,9.082,0,0,0,11.629,5.36l47.08-17.29a8.977,8.977,0,0,0,5.32-11.58l-1.8-4.82A9.086,9.086,0,0,0,136.154,2135.73Z"/>
    <path id="Rounded_Rectangle_2_copy_12-8" data-name="Rounded Rectangle 2 copy 12" class="cls-29" d="M120.129,2115.32l-44.219,23.6a8.989,8.989,0,0,0-3.668,12.21l2.444,4.53a9.071,9.071,0,0,0,12.251,3.71l44.219-23.59a8.992,8.992,0,0,0,3.668-12.21l-2.444-4.53A9.084,9.084,0,0,0,120.129,2115.32Z"/>
    <path id="Rounded_Rectangle_2_copy_10-6" data-name="Rounded Rectangle 2 copy 10" class="cls-29" d="M9.766,2403.03l49.923,4.83a9.028,9.028,0,0,0,9.858-8.12l0.5-5.11a9.026,9.026,0,0,0-8.115-9.86l-49.923-4.82a9.028,9.028,0,0,0-9.858,8.11l-0.5,5.12A9.022,9.022,0,0,0,9.766,2403.03Z"/>
    <path id="Rounded_Rectangle_2_copy_10-7" data-name="Rounded Rectangle 2 copy 10" class="cls-29" d="M9.682,2425.67l50.154,0.57a9.024,9.024,0,0,0,9.134-8.92l0.061-5.14a9.029,9.029,0,0,0-8.921-9.13l-50.154-.58a9.039,9.039,0,0,0-9.134,8.93l-0.061,5.14A9.029,9.029,0,0,0,9.682,2425.67Z"/>
    <path id="Rounded_Rectangle_2_copy_15" data-name="Rounded Rectangle 2 copy 15" class="cls-29" d="M8.971,1955.08l47,17.5a9.031,9.031,0,0,0,11.612-5.31l1.795-4.82a9.022,9.022,0,0,0-5.307-11.61l-47-17.5a9.031,9.031,0,0,0-11.612,5.31l-1.8,4.82A9.026,9.026,0,0,0,8.971,1955.08Z"/>
    <path id="Rounded_Rectangle_2_copy_16" data-name="Rounded Rectangle 2 copy 16" class="cls-29" d="M15.971,1935.08l47,17.5a9.031,9.031,0,0,0,11.612-5.31l1.795-4.82a9.022,9.022,0,0,0-5.307-11.61l-47-17.5a9.031,9.031,0,0,0-11.612,5.31l-1.795,4.82A9.026,9.026,0,0,0,15.971,1935.08Z"/>
    <path id="Rounded_Rectangle_2_copy_15-2" data-name="Rounded Rectangle 2 copy 15" class="cls-29" d="M7.1,1978.7l49.388,8.71a9.027,9.027,0,0,0,10.461-7.32l0.895-5.07a9.028,9.028,0,0,0-7.319-10.46l-49.388-8.71a9.027,9.027,0,0,0-10.461,7.32l-0.895,5.07A9.028,9.028,0,0,0,7.1,1978.7Z"/>
    <path id="Rounded_Rectangle_2_copy_15-3" data-name="Rounded Rectangle 2 copy 15" class="cls-29" d="M8.145,2000.61l50.12,1.83a9.032,9.032,0,0,0,9.354-8.69l0.189-5.14a9.024,9.024,0,0,0-8.689-9.35L9,1977.43a9.032,9.032,0,0,0-9.354,8.69l-0.189,5.14A9.024,9.024,0,0,0,8.145,2000.61Z"/>
    <path id="Rounded_Rectangle_2_copy_15-4" data-name="Rounded Rectangle 2 copy 15" class="cls-29" d="M13.62,2023.03l49.71-6.67a9.037,9.037,0,0,0,7.75-10.15l-0.682-5.1a9.03,9.03,0,0,0-10.146-7.75l-49.71,6.68a9.026,9.026,0,0,0-7.75,10.15l0.682,5.09A9.03,9.03,0,0,0,13.62,2023.03Z"/>
    <path id="Rounded_Rectangle_2_copy_15-5" data-name="Rounded Rectangle 2 copy 15" class="cls-29" d="M18.694,2045.09l48.967-10.87a9.031,9.031,0,0,0,6.862-10.77l-1.112-5.01a9.024,9.024,0,0,0-10.766-6.86l-48.967,10.86a9.031,9.031,0,0,0-6.862,10.77l1.112,5.02A9.024,9.024,0,0,0,18.694,2045.09Z"/>
    <path id="Rounded_Rectangle_2_copy_10-8" data-name="Rounded Rectangle 2 copy 10" class="cls-29" d="M14.274,2447.12l49.758-6.33a9.033,9.033,0,0,0,7.819-10.1l-0.648-5.1a9.025,9.025,0,0,0-10.094-7.81l-49.758,6.33a9.033,9.033,0,0,0-7.819,10.1l0.648,5.1A9.025,9.025,0,0,0,14.274,2447.12Z"/>
    <path id="Rounded_Rectangle_2_copy_10-9" data-name="Rounded Rectangle 2 copy 10" class="cls-29" d="M23.317,2468.35l47.973-14.66a9.029,9.029,0,0,0,6-11.27l-1.5-4.92a9.019,9.019,0,0,0-11.271-5.99l-47.973,14.65a9.04,9.04,0,0,0-6,11.28l1.5,4.91A9.024,9.024,0,0,0,23.317,2468.35Z"/>
  </g>
  <g id="Pipe_2" data-name="Pipe 2">
    <rect id="Rounded_Rectangle_2_copy_9-10" data-name="Rounded Rectangle 2 copy 9" class="cls-30" x="146.875" y="1962" width="23.125" height="68" rx="9" ry="9"/>
    <path id="Rounded_Rectangle_2_copy_9-11" data-name="Rounded Rectangle 2 copy 9" class="cls-29" d="M125.543,2016.17l6.884-49.52a9,9,0,0,1,10.154-7.68l5.076,0.71a9,9,0,0,1,7.675,10.15l-6.884,49.52a9,9,0,0,1-10.154,7.68l-5.076-.71A9,9,0,0,1,125.543,2016.17Z"/>
    <path id="Rounded_Rectangle_2_copy_9-12" data-name="Rounded Rectangle 2 copy 9" class="cls-29" d="M103.839,2005.32L119,1957.67a9,9,0,0,1,11.305-5.85l4.884,1.56a8.994,8.994,0,0,1,5.848,11.3l-15.16,47.65a9,9,0,0,1-11.305,5.85l-4.884-1.56A8.994,8.994,0,0,1,103.839,2005.32Z"/>
    <path id="Rounded_Rectangle_2_copy_9-13" data-name="Rounded Rectangle 2 copy 9" class="cls-29" d="M84.157,1992.26l23.523-44.12a9,9,0,0,1,12.176-3.7l4.522,2.41a8.992,8.992,0,0,1,3.708,12.17l-23.523,44.12a9,9,0,0,1-12.175,3.71l-4.522-2.41A9,9,0,0,1,84.157,1992.26Z"/>
    <path id="Rounded_Rectangle_2_copy_9-14" data-name="Rounded Rectangle 2 copy 9" class="cls-29" d="M67.606,1977.97l29.373-40.47a9,9,0,0,1,12.571-1.99l4.147,3.01a9,9,0,0,1,2,12.57L86.32,1991.55a9,9,0,0,1-12.57,2l-4.147-3.01A9,9,0,0,1,67.606,1977.97Z"/>
    <path id="Rounded_Rectangle_2_copy_9-15" data-name="Rounded Rectangle 2 copy 9" class="cls-29" d="M53.383,1959.88l35.793-34.91a9,9,0,0,1,12.727.16l3.578,3.67a9,9,0,0,1-.158,12.73L69.53,1976.44a9,9,0,0,1-12.727-.16l-3.578-3.67A9,9,0,0,1,53.383,1959.88Z"/>
    <path id="Rounded_Rectangle_2_copy_9-16" data-name="Rounded Rectangle 2 copy 9" class="cls-29" d="M39.194,1942.34l38.624-31.75a9,9,0,0,1,12.668,1.23l3.255,3.96a9,9,0,0,1-1.237,12.67L53.88,1960.2a9,9,0,0,1-12.668-1.24l-3.255-3.95A9,9,0,0,1,39.194,1942.34Z"/>
    <path id="Rounded_Rectangle_2_copy_9-17" data-name="Rounded Rectangle 2 copy 9" class="cls-29" d="M29.379,1922.79l42.628-26.13a9,9,0,0,1,12.377,2.97l2.679,4.37a9,9,0,0,1-2.969,12.38l-42.628,26.13a9,9,0,0,1-12.377-2.97l-2.679-4.37A9,9,0,0,1,29.379,1922.79Z"/>
    <path id="Rounded_Rectangle_2_copy_9-18" data-name="Rounded Rectangle 2 copy 9" class="cls-29" d="M23.163,1900.64L69.6,1882.1a8.992,8.992,0,0,1,11.7,5.02l1.9,4.76a8.994,8.994,0,0,1-5.019,11.69l-46.433,18.55a9.008,9.008,0,0,1-11.7-5.02l-1.9-4.76A9,9,0,0,1,23.163,1900.64Z"/>
    <path id="Rounded_Rectangle_2_copy_10-10" data-name="Rounded Rectangle 2 copy 10" class="cls-29" d="M44.541,1729.52l31.392,39.1a9.028,9.028,0,0,0,12.692,1.39l4.01-3.22a9.026,9.026,0,0,0,1.391-12.69l-31.392-39.11a9.027,9.027,0,0,0-12.692-1.38l-4.01,3.22A9.026,9.026,0,0,0,44.541,1729.52Z"/>
    <path id="Rounded_Rectangle_2_copy_10-11" data-name="Rounded Rectangle 2 copy 10" class="cls-29" d="M30.884,1746.69l36.479,34.41a9.027,9.027,0,0,0,12.763-.37l3.528-3.74a9.025,9.025,0,0,0-.37-12.76l-36.479-34.41a9.027,9.027,0,0,0-12.763.37l-3.529,3.74A9.025,9.025,0,0,0,30.884,1746.69Z"/>
    <path id="Rounded_Rectangle_2_copy_10-12" data-name="Rounded Rectangle 2 copy 10" class="cls-29" d="M20.717,1768.81l41.775,27.75a9.041,9.041,0,0,0,12.516-2.53l2.845-4.28a9.032,9.032,0,0,0-2.523-12.52l-41.775-27.74a9.03,9.03,0,0,0-12.516,2.52l-2.845,4.29A9.022,9.022,0,0,0,20.717,1768.81Z"/>
    <path id="Rounded_Rectangle_2_copy_10-13" data-name="Rounded Rectangle 2 copy 10" class="cls-29" d="M13.514,1791.38l46.105,19.74a9.037,9.037,0,0,0,11.854-4.75l2.025-4.73a9.024,9.024,0,0,0-4.744-11.85l-46.1-19.73a9.032,9.032,0,0,0-11.854,4.74l-2.024,4.73A9.024,9.024,0,0,0,13.514,1791.38Z"/>
    <path id="Rounded_Rectangle_2_copy_10-14" data-name="Rounded Rectangle 2 copy 10" class="cls-29" d="M9.541,1812.96l48.385,13.2a9.037,9.037,0,0,0,11.088-6.34l1.355-4.96a9.018,9.018,0,0,0-6.331-11.08l-48.385-13.2a9.029,9.029,0,0,0-11.088,6.34l-1.355,4.95A9.029,9.029,0,0,0,9.541,1812.96Z"/>
    <path id="Rounded_Rectangle_2_copy_11-6" data-name="Rounded Rectangle 2 copy 11" class="cls-29" d="M149.059,1682.91l-49.4-8.74a9,9,0,0,1-7.3-10.46l0.907-5.06a9.05,9.05,0,0,1,10.486-7.31l49.4,8.74a9,9,0,0,1,7.3,10.46l-0.908,5.06A9.05,9.05,0,0,1,149.059,1682.91Z"/>
    <path id="Rounded_Rectangle_2_copy_11-7" data-name="Rounded Rectangle 2 copy 11" class="cls-29" d="M140.509,1703.13L92.8,1687.68a9.009,9.009,0,0,1-5.785-11.37l1.6-4.89a9.051,9.051,0,0,1,11.391-5.8l47.712,15.45a9.009,9.009,0,0,1,5.785,11.37l-1.6,4.89A9.051,9.051,0,0,1,140.509,1703.13Z"/>
    <path id="Rounded_Rectangle_2_copy_11-8" data-name="Rounded Rectangle 2 copy 11" class="cls-29" d="M125.943,1722.67l-44.391-23.3a9.012,9.012,0,0,1-3.776-12.19l2.4-4.55a9.061,9.061,0,0,1,12.205-3.8l44.391,23.3a9.015,9.015,0,0,1,3.776,12.19l-2.4,4.55A9.062,9.062,0,0,1,125.943,1722.67Z"/>
    <path id="Rounded_Rectangle_2_copy_11-9" data-name="Rounded Rectangle 2 copy 11" class="cls-29" d="M109.561,1739.82l-39.428-30.94a9.013,9.013,0,0,1-1.507-12.67l3.183-4.05a9.052,9.052,0,0,1,12.687-1.53l39.428,30.94a9.014,9.014,0,0,1,1.507,12.67l-3.183,4.05A9.044,9.044,0,0,1,109.561,1739.82Z"/>
    <path id="Rounded_Rectangle_2_copy_11-10" data-name="Rounded Rectangle 2 copy 11" class="cls-29" d="M92.5,1753.66l-34.777-36.07a9.03,9.03,0,0,1,.254-12.77l3.709-3.56a9.037,9.037,0,0,1,12.773.22l34.777,36.08a9.018,9.018,0,0,1-.254,12.76l-3.709,3.57A9.038,9.038,0,0,1,92.5,1753.66Z"/>
    <path id="Rounded_Rectangle_2_copy_12-9" data-name="Rounded Rectangle 2 copy 12" class="cls-29" d="M63.518,1560.06l39.191-31.28a9.066,9.066,0,0,1,12.714,1.41l3.223,4.01a9,9,0,0,1-1.395,12.68L78.06,1578.16a9.067,9.067,0,0,1-12.714-1.42l-3.223-4.01A8.99,8.99,0,0,1,63.518,1560.06Z"/>
    <path id="Rounded_Rectangle_2_copy_12-10" data-name="Rounded Rectangle 2 copy 12" class="cls-29" d="M53.889,1540.34l43.147-25.59a9.066,9.066,0,0,1,12.4,3.15l2.639,4.41a9,9,0,0,1-3.132,12.36L65.8,1560.26a9.063,9.063,0,0,1-12.4-3.14l-2.639-4.42A9,9,0,0,1,53.889,1540.34Z"/>
    <path id="Rounded_Rectangle_2_copy_12-11" data-name="Rounded Rectangle 2 copy 12" class="cls-29" d="M41.763,1522.72l44-24.17a9.071,9.071,0,0,1,12.291,3.55l2.489,4.5a8.987,8.987,0,0,1-3.548,12.24l-44,24.17a9.071,9.071,0,0,1-12.291-3.55l-2.489-4.5A8.987,8.987,0,0,1,41.763,1522.72Z"/>
    <path id="Rounded_Rectangle_2_copy_13-2" data-name="Rounded Rectangle 2 copy 13" class="cls-29" d="M29.787,1498.53l47.138-17.25a9.059,9.059,0,0,1,11.615,5.36l1.782,4.82a9,9,0,0,1-5.355,11.57L37.83,1520.28a9.075,9.075,0,0,1-11.615-5.36l-1.783-4.82A8.99,8.99,0,0,1,29.787,1498.53Z"/>
    <path id="Rounded_Rectangle_2_copy_14-2" data-name="Rounded Rectangle 2 copy 14" class="cls-29" d="M17.787,1480.53l47.138-17.25a9.059,9.059,0,0,1,11.615,5.36l1.782,4.82a9,9,0,0,1-5.355,11.57L25.83,1502.28a9.075,9.075,0,0,1-11.615-5.36l-1.783-4.82A8.99,8.99,0,0,1,17.787,1480.53Z"/>
    <path id="Rounded_Rectangle_2_copy_17" data-name="Rounded Rectangle 2 copy 17" class="cls-29" d="M11.4,1458.56l49.137-10.25a9.062,9.062,0,0,1,10.719,6.98l1.067,5.03a8.992,8.992,0,0,1-6.971,10.67l-49.136,10.26A9.07,9.07,0,0,1,5.5,1474.27l-1.067-5.03A9,9,0,0,1,11.4,1458.56Z"/>
    <path id="Rounded_Rectangle_2_copy_18" data-name="Rounded Rectangle 2 copy 18" class="cls-29" d="M8.444,1435.1l50.055-3.76a9.062,9.062,0,0,1,9.717,8.32l0.4,5.12a9,9,0,0,1-8.3,9.68l-50.055,3.76a9.069,9.069,0,0,1-9.717-8.32l-0.4-5.12A9,9,0,0,1,8.444,1435.1Z"/>
    <path id="Rounded_Rectangle_2_copy_12-12" data-name="Rounded Rectangle 2 copy 12" class="cls-29" d="M155.386,1636.95l-49.79-6.88a9,9,0,0,0-10.165,7.7l-0.685,5.09a9.061,9.061,0,0,0,7.759,10.17l49.79,6.88a8.987,8.987,0,0,0,10.165-7.69l0.685-5.09A9.075,9.075,0,0,0,155.386,1636.95Z"/>
    <path id="Rounded_Rectangle_2_copy_12-13" data-name="Rounded Rectangle 2 copy 12" class="cls-29" d="M153.428,1615.11l-50.236.02a8.981,8.981,0,0,0-9,9.02l0.024,5.14a9.084,9.084,0,0,0,9.085,9.02l50.236-.02a8.984,8.984,0,0,0,9-9.03l-0.024-5.13A9.078,9.078,0,0,0,153.428,1615.11Z"/>
    <path id="Rounded_Rectangle_2_copy_12-14" data-name="Rounded Rectangle 2 copy 12" class="cls-29" d="M145.522,1592.06l-49.473,8.5a8.982,8.982,0,0,0-7.334,10.42l0.895,5.06a9.087,9.087,0,0,0,10.476,7.37l49.473-8.5a8.978,8.978,0,0,0,7.334-10.42l-0.9-5.06A9.094,9.094,0,0,0,145.522,1592.06Z"/>
    <path id="Rounded_Rectangle_2_copy_12-15" data-name="Rounded Rectangle 2 copy 12" class="cls-29" d="M136.154,1568.73l-47.08,17.28a8.98,8.98,0,0,0-5.32,11.58l1.8,4.82a9.082,9.082,0,0,0,11.629,5.36l47.08-17.29a8.977,8.977,0,0,0,5.32-11.58l-1.8-4.82A9.086,9.086,0,0,0,136.154,1568.73Z"/>
    <path id="Rounded_Rectangle_2_copy_12-16" data-name="Rounded Rectangle 2 copy 12" class="cls-29" d="M120.129,1548.32l-44.219,23.6a8.989,8.989,0,0,0-3.668,12.21l2.444,4.53a9.071,9.071,0,0,0,12.251,3.71l44.219-23.59a8.992,8.992,0,0,0,3.668-12.21l-2.444-4.53A9.084,9.084,0,0,0,120.129,1548.32Z"/>
    <path id="Rounded_Rectangle_2_copy_10-15" data-name="Rounded Rectangle 2 copy 10" class="cls-29" d="M9.766,1836.03l49.923,4.83a9.028,9.028,0,0,0,9.858-8.12l0.5-5.11a9.026,9.026,0,0,0-8.115-9.86l-49.923-4.82a9.028,9.028,0,0,0-9.858,8.11l-0.5,5.12A9.022,9.022,0,0,0,9.766,1836.03Z"/>
    <path id="Rounded_Rectangle_2_copy_10-16" data-name="Rounded Rectangle 2 copy 10" class="cls-29" d="M9.682,1858.67l50.154,0.57a9.024,9.024,0,0,0,9.134-8.92l0.061-5.14a9.029,9.029,0,0,0-8.921-9.13l-50.154-.58a9.039,9.039,0,0,0-9.134,8.93l-0.061,5.14A9.029,9.029,0,0,0,9.682,1858.67Z"/>
    <path id="Rounded_Rectangle_2_copy_10-17" data-name="Rounded Rectangle 2 copy 10" class="cls-29" d="M14.274,1880.12l49.758-6.33a9.033,9.033,0,0,0,7.819-10.1l-0.648-5.1a9.025,9.025,0,0,0-10.094-7.81l-49.758,6.33a9.033,9.033,0,0,0-7.819,10.1l0.648,5.1A9.025,9.025,0,0,0,14.274,1880.12Z"/>
    <path id="Rounded_Rectangle_2_copy_10-18" data-name="Rounded Rectangle 2 copy 10" class="cls-29" d="M23.317,1901.35l47.973-14.66a9.029,9.029,0,0,0,6-11.27l-1.5-4.92a9.019,9.019,0,0,0-11.271-5.99l-47.973,14.65a9.04,9.04,0,0,0-6,11.28l1.5,4.91A9.024,9.024,0,0,0,23.317,1901.35Z"/>
  </g>
  <g id="Pipe_5" data-name="Pipe 5">
    <rect id="Rounded_Rectangle_2_copy_9-19" data-name="Rounded Rectangle 2 copy 9" class="cls-30" x="146.812" y="251" width="23.188" height="67.969" rx="9" ry="9"/>
    <path id="Rounded_Rectangle_2_copy_9-20" data-name="Rounded Rectangle 2 copy 9" class="cls-29" d="M125.429,264.825l6.9,49.506A9.018,9.018,0,0,0,142.51,322l5.089-.7a9,9,0,0,0,7.7-10.15l-6.9-49.506a9.019,9.019,0,0,0-10.18-7.672l-5.089.705A9,9,0,0,0,125.429,264.825Z"/>
    <path id="Rounded_Rectangle_2_copy_9-21" data-name="Rounded Rectangle 2 copy 9" class="cls-29" d="M103.67,275.674l15.2,47.629a9.03,9.03,0,0,0,11.335,5.845l4.9-1.553a8.992,8.992,0,0,0,5.862-11.3l-15.2-47.629a9.03,9.03,0,0,0-11.335-5.846l-4.9,1.554A8.991,8.991,0,0,0,103.67,275.674Z"/>
    <path id="Rounded_Rectangle_2_copy_9-22" data-name="Rounded Rectangle 2 copy 9" class="cls-29" d="M83.937,288.722l23.583,44.105a9.036,9.036,0,0,0,12.207,3.706l4.534-2.41a8.983,8.983,0,0,0,3.718-12.171L104.4,277.847a9.037,9.037,0,0,0-12.208-3.707l-4.534,2.411A8.983,8.983,0,0,0,83.937,288.722Z"/>
    <path id="Rounded_Rectangle_2_copy_9-23" data-name="Rounded Rectangle 2 copy 9" class="cls-29" d="M67.343,303.015l29.449,40.447a9.04,9.04,0,0,0,12.6,2l4.159-3.01a8.981,8.981,0,0,0,2-12.566L86.105,289.434a9.041,9.041,0,0,0-12.6-2l-4.158,3.01A8.98,8.98,0,0,0,67.343,303.015Z"/>
    <path id="Rounded_Rectangle_2_copy_9-24" data-name="Rounded Rectangle 2 copy 9" class="cls-29" d="M53.084,321.09l35.885,34.9a9.041,9.041,0,0,0,12.759-.158l3.588-3.668a8.979,8.979,0,0,0-.159-12.722l-35.885-34.9a9.042,9.042,0,0,0-12.76.159l-3.588,3.667A8.979,8.979,0,0,0,53.084,321.09Z"/>
    <path id="Rounded_Rectangle_2_copy_9-25" data-name="Rounded Rectangle 2 copy 9" class="cls-29" d="M38.859,338.63l38.723,31.74a9.041,9.041,0,0,0,12.7-1.236l3.263-3.958a8.979,8.979,0,0,0-1.24-12.663l-38.723-31.74a9.041,9.041,0,0,0-12.7,1.236l-3.263,3.958A8.979,8.979,0,0,0,38.859,338.63Z"/>
    <path id="Rounded_Rectangle_2_copy_9-26" data-name="Rounded Rectangle 2 copy 9" class="cls-29" d="M29.018,358.168l42.737,26.123a9.039,9.039,0,0,0,12.409-2.969l2.685-4.367a8.981,8.981,0,0,0-2.977-12.372L41.135,338.46a9.038,9.038,0,0,0-12.408,2.968L26.041,345.8A8.981,8.981,0,0,0,29.018,358.168Z"/>
    <path id="Rounded_Rectangle_2_copy_9-27" data-name="Rounded Rectangle 2 copy 9" class="cls-29" d="M22.786,380.31l46.552,18.54a9.032,9.032,0,0,0,11.726-5.018l1.906-4.758a8.988,8.988,0,0,0-5.032-11.692l-46.552-18.54A9.032,9.032,0,0,0,19.66,363.86l-1.906,4.758A8.988,8.988,0,0,0,22.786,380.31Z"/>
    <path id="Rounded_Rectangle_2_copy_10-19" data-name="Rounded Rectangle 2 copy 10" class="cls-29" d="M44.219,551.373l31.473-39.091A9.069,9.069,0,0,1,88.417,510.9l4.02,3.217A9.007,9.007,0,0,1,93.831,526.8L62.358,565.892a9.07,9.07,0,0,1-12.725,1.386l-4.02-3.218A9.007,9.007,0,0,1,44.219,551.373Z"/>
    <path id="Rounded_Rectangle_2_copy_10-20" data-name="Rounded Rectangle 2 copy 10" class="cls-29" d="M30.527,534.2l36.573-34.4a9.07,9.07,0,0,1,12.8.374l3.538,3.738a9.005,9.005,0,0,1-.371,12.757l-36.573,34.4a9.071,9.071,0,0,1-12.8-.374l-3.537-3.739A9.005,9.005,0,0,1,30.527,534.2Z"/>
    <path id="Rounded_Rectangle_2_copy_10-21" data-name="Rounded Rectangle 2 copy 10" class="cls-29" d="M20.334,512.093L62.217,484.36a9.07,9.07,0,0,1,12.548,2.526l2.853,4.281a9.007,9.007,0,0,1-2.529,12.51L33.206,531.41a9.07,9.07,0,0,1-12.548-2.526L17.8,524.6A9.007,9.007,0,0,1,20.334,512.093Z"/>
    <path id="Rounded_Rectangle_2_copy_10-22" data-name="Rounded Rectangle 2 copy 10" class="cls-29" d="M13.113,489.531L59.336,469.8a9.064,9.064,0,0,1,11.884,4.745l2.03,4.725a9.011,9.011,0,0,1-4.756,11.847L22.271,510.848A9.064,9.064,0,0,1,10.386,506.1l-2.03-4.724A9.011,9.011,0,0,1,13.113,489.531Z"/>
    <path id="Rounded_Rectangle_2_copy_10-23" data-name="Rounded Rectangle 2 copy 10" class="cls-29" d="M9.13,467.961l48.509-13.194A9.059,9.059,0,0,1,68.756,461.1l1.358,4.958a9.019,9.019,0,0,1-6.347,11.081L15.257,490.331A9.057,9.057,0,0,1,4.141,484l-1.358-4.958A9.019,9.019,0,0,1,9.13,467.961Z"/>
    <path id="Rounded_Rectangle_2_copy_11-11" data-name="Rounded Rectangle 2 copy 11" class="cls-29" d="M149.005,597.959L99.477,606.7a9,9,0,0,0-7.317,10.456l0.91,5.059a9.075,9.075,0,0,0,10.512,7.311l49.529-8.738a9,9,0,0,0,7.317-10.457l-0.91-5.059A9.076,9.076,0,0,0,149.005,597.959Z"/>
    <path id="Rounded_Rectangle_2_copy_11-12" data-name="Rounded Rectangle 2 copy 11" class="cls-29" d="M140.434,577.747L92.6,593.2a9,9,0,0,0-5.8,11.364l1.6,4.887a9.083,9.083,0,0,0,11.42,5.8l47.835-15.45a9,9,0,0,0,5.8-11.364l-1.6-4.887A9.083,9.083,0,0,0,140.434,577.747Z"/>
    <path id="Rounded_Rectangle_2_copy_11-13" data-name="Rounded Rectangle 2 copy 11" class="cls-29" d="M125.83,558.22l-44.5,23.291a8.993,8.993,0,0,0-3.785,12.182l2.406,4.549a9.088,9.088,0,0,0,12.237,3.8l44.505-23.291a8.992,8.992,0,0,0,3.785-12.181l-2.406-4.55A9.088,9.088,0,0,0,125.83,558.22Z"/>
    <path id="Rounded_Rectangle_2_copy_11-14" data-name="Rounded Rectangle 2 copy 11" class="cls-29" d="M109.406,541.074L69.877,572a8.993,8.993,0,0,0-1.511,12.667l3.191,4.043a9.087,9.087,0,0,0,12.719,1.532l39.529-30.93a8.993,8.993,0,0,0,1.512-12.667l-3.192-4.042A9.086,9.086,0,0,0,109.406,541.074Z"/>
    <path id="Rounded_Rectangle_2_copy_11-15" data-name="Rounded Rectangle 2 copy 11" class="cls-29" d="M92.3,527.235L57.439,563.3a9,9,0,0,0,.255,12.757l3.719,3.568a9.082,9.082,0,0,0,12.806-.227l34.866-36.065a9,9,0,0,0-.254-12.757l-3.719-3.568A9.081,9.081,0,0,0,92.3,527.235Z"/>
    <path id="Rounded_Rectangle_2_copy_12-17" data-name="Rounded Rectangle 2 copy 12" class="cls-29" d="M63.245,720.769l39.291,31.267a9.109,9.109,0,0,0,12.747-1.412l3.231-4.01a8.972,8.972,0,0,0-1.4-12.668L77.825,702.678a9.108,9.108,0,0,0-12.747,1.413L61.847,708.1A8.974,8.974,0,0,0,63.245,720.769Z"/>
    <path id="Rounded_Rectangle_2_copy_12-18" data-name="Rounded Rectangle 2 copy 12" class="cls-29" d="M53.592,740.477l43.257,25.584a9.108,9.108,0,0,0,12.433-3.143l2.646-4.412a8.975,8.975,0,0,0-3.14-12.354L65.53,720.567A9.107,9.107,0,0,0,53.1,723.711l-2.646,4.412A8.975,8.975,0,0,0,53.592,740.477Z"/>
    <path id="Rounded_Rectangle_2_copy_12-19" data-name="Rounded Rectangle 2 copy 12" class="cls-29" d="M41.434,758.1l44.11,24.155a9.1,9.1,0,0,0,12.322-3.546l2.5-4.5A8.978,8.978,0,0,0,96.8,761.971l-44.11-24.155a9.1,9.1,0,0,0-12.322,3.546l-2.5,4.5A8.978,8.978,0,0,0,41.434,758.1Z"/>
    <path id="Rounded_Rectangle_2_copy_13-3" data-name="Rounded Rectangle 2 copy 13" class="cls-29" d="M29.428,782.279l47.259,17.245a9.1,9.1,0,0,0,11.645-5.358l1.787-4.819a8.983,8.983,0,0,0-5.368-11.566L37.491,760.535a9.1,9.1,0,0,0-11.645,5.359l-1.787,4.818A8.984,8.984,0,0,0,29.428,782.279Z"/>
    <path id="Rounded_Rectangle_2_copy_14-3" data-name="Rounded Rectangle 2 copy 14" class="cls-29" d="M17.4,800.272l47.259,17.246A9.1,9.1,0,0,0,76.3,812.16l1.787-4.819a8.984,8.984,0,0,0-5.368-11.567L25.461,778.529a9.1,9.1,0,0,0-11.645,5.358l-1.787,4.819A8.983,8.983,0,0,0,17.4,800.272Z"/>
    <path id="Rounded_Rectangle_2_copy_12-20" data-name="Rounded Rectangle 2 copy 12" class="cls-29" d="M155.349,643.9l-49.918,6.877a9.012,9.012,0,0,1-10.191-7.695L94.553,638a9.072,9.072,0,0,1,7.779-10.171l49.918-6.877a9.013,9.013,0,0,1,10.191,7.695l0.687,5.087A9.072,9.072,0,0,1,155.349,643.9Z"/>
    <path id="Rounded_Rectangle_2_copy_12-21" data-name="Rounded Rectangle 2 copy 12" class="cls-29" d="M153.385,665.74l-50.365-.021A9,9,0,0,1,94,656.7l0.024-5.135a9.09,9.09,0,0,1,9.109-9.015l50.365,0.021a9,9,0,0,1,9.023,9.022l-0.024,5.136A9.089,9.089,0,0,1,153.385,665.74Z"/>
    <path id="Rounded_Rectangle_2_copy_12-22" data-name="Rounded Rectangle 2 copy 12" class="cls-29" d="M145.459,688.775l-49.6-8.493a8.98,8.98,0,0,1-7.353-10.417l0.9-5.061a9.1,9.1,0,0,1,10.5-7.359l49.6,8.494a8.978,8.978,0,0,1,7.353,10.416l-0.9,5.061A9.1,9.1,0,0,1,145.459,688.775Z"/>
    <path id="Rounded_Rectangle_2_copy_12-23" data-name="Rounded Rectangle 2 copy 12" class="cls-29" d="M136.068,712.105l-47.2-17.278a8.971,8.971,0,0,1-5.333-11.576l1.8-4.82a9.115,9.115,0,0,1,11.659-5.355l47.2,17.279a8.97,8.97,0,0,1,5.334,11.575l-1.8,4.821A9.115,9.115,0,0,1,136.068,712.105Z"/>
    <path id="Rounded_Rectangle_2_copy_12-24" data-name="Rounded Rectangle 2 copy 12" class="cls-29" d="M120,732.5L75.669,708.91a8.969,8.969,0,0,1-3.677-12.2l2.45-4.531a9.116,9.116,0,0,1,12.282-3.71l44.332,23.589a8.969,8.969,0,0,1,3.677,12.2l-2.45,4.53A9.116,9.116,0,0,1,120,732.5Z"/>
    <path id="Rounded_Rectangle_2_copy_10-24" data-name="Rounded Rectangle 2 copy 10" class="cls-29" d="M9.355,444.9l50.051-4.824a9.047,9.047,0,0,1,9.883,8.114l0.5,5.115a9.028,9.028,0,0,1-8.135,9.851L11.6,467.975a9.049,9.049,0,0,1-9.883-8.115l-0.5-5.115A9.027,9.027,0,0,1,9.355,444.9Z"/>
    <path id="Rounded_Rectangle_2_copy_10-25" data-name="Rounded Rectangle 2 copy 10" class="cls-29" d="M9.271,422.269l50.283-.576a9.042,9.042,0,0,1,9.158,8.92l0.061,5.138a9.034,9.034,0,0,1-8.944,9.128l-50.283.576a9.043,9.043,0,0,1-9.158-8.921L0.327,431.4A9.033,9.033,0,0,1,9.271,422.269Z"/>
    <path id="Rounded_Rectangle_2_copy_15-6" data-name="Rounded Rectangle 2 copy 15" class="cls-29" d="M8.558,892.687L55.676,875.2A9.061,9.061,0,0,1,67.317,880.5l1.8,4.817A9.014,9.014,0,0,1,63.8,896.927L16.679,914.42a9.062,9.062,0,0,1-11.641-5.31l-1.8-4.816A9.016,9.016,0,0,1,8.558,892.687Z"/>
    <path id="Rounded_Rectangle_2_copy_16-2" data-name="Rounded Rectangle 2 copy 16" class="cls-29" d="M15.576,912.68l47.117-17.492A9.061,9.061,0,0,1,74.335,900.5l1.8,4.817a9.014,9.014,0,0,1-5.321,11.606L23.7,934.412A9.061,9.061,0,0,1,12.055,929.1l-1.8-4.816A9.015,9.015,0,0,1,15.576,912.68Z"/>
    <path id="Rounded_Rectangle_2_copy_15-7" data-name="Rounded Rectangle 2 copy 15" class="cls-29" d="M6.681,869.078L56.2,860.367a9.053,9.053,0,0,1,10.488,7.32l0.9,5.061A9.024,9.024,0,0,1,60.243,883.2l-49.515,8.711A9.052,9.052,0,0,1,.24,884.6l-0.9-5.061A9.024,9.024,0,0,1,6.681,869.078Z"/>
    <path id="Rounded_Rectangle_2_copy_15-8" data-name="Rounded Rectangle 2 copy 15" class="cls-29" d="M7.73,847.17l50.248-1.829a9.044,9.044,0,0,1,9.378,8.69l0.19,5.136a9.032,9.032,0,0,1-8.712,9.348L8.586,870.344a9.043,9.043,0,0,1-9.378-8.689l-0.19-5.136A9.033,9.033,0,0,1,7.73,847.17Z"/>
    <path id="Rounded_Rectangle_2_copy_15-9" data-name="Rounded Rectangle 2 copy 15" class="cls-29" d="M13.219,824.762l49.837,6.67a9.034,9.034,0,0,1,7.769,10.146l-0.684,5.093a9.044,9.044,0,0,1-10.172,7.745l-49.837-6.671A9.034,9.034,0,0,1,2.363,837.6l0.684-5.093A9.042,9.042,0,0,1,13.219,824.762Z"/>
    <path id="Rounded_Rectangle_2_copy_15-10" data-name="Rounded Rectangle 2 copy 15" class="cls-29" d="M18.306,802.711L67.4,813.57a9.029,9.029,0,0,1,6.879,10.766l-1.115,5.017a9.049,9.049,0,0,1-10.794,6.857L13.277,825.35A9.028,9.028,0,0,1,6.4,814.584l1.115-5.017A9.047,9.047,0,0,1,18.306,802.711Z"/>
    <path id="Rounded_Rectangle_2_copy_10-26" data-name="Rounded Rectangle 2 copy 10" class="cls-29" d="M13.875,400.825l49.886,6.331A9.034,9.034,0,0,1,71.6,417.248l-0.649,5.1a9.042,9.042,0,0,1-10.12,7.812l-49.885-6.331a9.034,9.034,0,0,1-7.839-10.092l0.649-5.1A9.042,9.042,0,0,1,13.875,400.825Z"/>
    <path id="Rounded_Rectangle_2_copy_10-27" data-name="Rounded Rectangle 2 copy 10" class="cls-29" d="M22.941,379.605l48.1,14.651a9.023,9.023,0,0,1,6.015,11.268l-1.5,4.915a9.054,9.054,0,0,1-11.3,5.993l-48.1-14.652a9.022,9.022,0,0,1-6.015-11.267l1.5-4.915A9.053,9.053,0,0,1,22.941,379.605Z"/>
  </g>
  <g id="Pipe_4" data-name="Pipe 4">
    <rect id="Rounded_Rectangle_2_copy_9-28" data-name="Rounded Rectangle 2 copy 9" class="cls-30" x="146.844" y="823" width="23.156" height="68.031" rx="9" ry="9"/>
    <path id="Rounded_Rectangle_2_copy_9-29" data-name="Rounded Rectangle 2 copy 9" class="cls-29" d="M125.51,836.837l6.889,49.55a9.006,9.006,0,0,0,10.161,7.679l5.08-.706a9.005,9.005,0,0,0,7.681-10.159l-6.889-49.549a9.006,9.006,0,0,0-10.161-7.679l-5.08.706A9,9,0,0,0,125.51,836.837Z"/>
    <path id="Rounded_Rectangle_2_copy_9-30" data-name="Rounded Rectangle 2 copy 9" class="cls-29" d="M103.791,847.7l15.171,47.672a9.006,9.006,0,0,0,11.313,5.85l4.888-1.554a9,9,0,0,0,5.851-11.312L125.843,840.68a9.006,9.006,0,0,0-11.313-5.85l-4.888,1.554A9,9,0,0,0,103.791,847.7Z"/>
    <path id="Rounded_Rectangle_2_copy_9-31" data-name="Rounded Rectangle 2 copy 9" class="cls-29" d="M84.094,860.756l23.54,44.144a9.008,9.008,0,0,0,12.185,3.709l4.526-2.412a9,9,0,0,0,3.71-12.182l-23.54-44.144a9.007,9.007,0,0,0-12.185-3.71L87.8,848.573A9,9,0,0,0,84.094,860.756Z"/>
    <path id="Rounded_Rectangle_2_copy_9-32" data-name="Rounded Rectangle 2 copy 9" class="cls-29" d="M67.531,875.061l29.395,40.483a9.007,9.007,0,0,0,12.58,2l4.151-3.012a9,9,0,0,0,2-12.577L86.258,861.469a9.008,9.008,0,0,0-12.58-2l-4.15,3.013A9,9,0,0,0,67.531,875.061Z"/>
    <path id="Rounded_Rectangle_2_copy_9-33" data-name="Rounded Rectangle 2 copy 9" class="cls-29" d="M53.3,893.152l35.819,34.93a9.008,9.008,0,0,0,12.737-.158l3.581-3.671a9,9,0,0,0-.159-12.734l-35.819-34.93a9.008,9.008,0,0,0-12.736.159l-3.581,3.67A9,9,0,0,0,53.3,893.152Z"/>
    <path id="Rounded_Rectangle_2_copy_9-34" data-name="Rounded Rectangle 2 copy 9" class="cls-29" d="M39.1,910.707l38.652,31.769a9.009,9.009,0,0,0,12.677-1.237l3.257-3.961A9,9,0,0,0,92.447,924.6L53.794,892.835a9.007,9.007,0,0,0-12.677,1.237l-3.257,3.961A9,9,0,0,0,39.1,910.707Z"/>
    <path id="Rounded_Rectangle_2_copy_9-35" data-name="Rounded Rectangle 2 copy 9" class="cls-29" d="M29.275,930.263l42.659,26.146a9.008,9.008,0,0,0,12.386-2.971L87,949.066a9,9,0,0,0-2.971-12.383L41.37,910.538a9.007,9.007,0,0,0-12.386,2.97L26.3,917.88A9,9,0,0,0,29.275,930.263Z"/>
    <path id="Rounded_Rectangle_2_copy_9-36" data-name="Rounded Rectangle 2 copy 9" class="cls-29" d="M23.055,952.424l46.467,18.557a9.008,9.008,0,0,0,11.7-5.022l1.9-4.762a9,9,0,0,0-5.023-11.7L31.639,930.938a9.007,9.007,0,0,0-11.7,5.022l-1.9,4.762A9,9,0,0,0,23.055,952.424Z"/>
    <path id="Rounded_Rectangle_2_copy_10-28" data-name="Rounded Rectangle 2 copy 10" class="cls-29" d="M44.449,1123.64l31.415-39.13a9.029,9.029,0,0,1,12.7-1.38l4.013,3.22a9.033,9.033,0,0,1,1.392,12.7l-31.415,39.12a9.039,9.039,0,0,1-12.7,1.39l-4.013-3.22A9.034,9.034,0,0,1,44.449,1123.64Z"/>
    <path id="Rounded_Rectangle_2_copy_10-29" data-name="Rounded Rectangle 2 copy 10" class="cls-29" d="M30.782,1106.46l36.506-34.43a9.038,9.038,0,0,1,12.772.37l3.531,3.74a9.032,9.032,0,0,1-.37,12.77l-36.506,34.43a9.038,9.038,0,0,1-12.772-.37l-3.531-3.75A9.02,9.02,0,0,1,30.782,1106.46Z"/>
    <path id="Rounded_Rectangle_2_copy_10-30" data-name="Rounded Rectangle 2 copy 10" class="cls-29" d="M20.607,1084.32l41.806-27.75a9.041,9.041,0,0,1,12.525,2.52l2.847,4.29a9.028,9.028,0,0,1-2.525,12.52l-41.806,27.76a9.034,9.034,0,0,1-12.526-2.53l-2.847-4.28A9.039,9.039,0,0,1,20.607,1084.32Z"/>
    <path id="Rounded_Rectangle_2_copy_10-31" data-name="Rounded Rectangle 2 copy 10" class="cls-29" d="M13.4,1061.74L59.538,1042a9.029,9.029,0,0,1,11.863,4.75l2.026,4.73a9.021,9.021,0,0,1-4.747,11.85L22.54,1083.08a9.038,9.038,0,0,1-11.863-4.75l-2.026-4.73A9.032,9.032,0,0,1,13.4,1061.74Z"/>
    <path id="Rounded_Rectangle_2_copy_10-32" data-name="Rounded Rectangle 2 copy 10" class="cls-29" d="M9.423,1040.15l48.421-13.2a9.036,9.036,0,0,1,11.1,6.34l1.356,4.96a9.028,9.028,0,0,1-6.335,11.09l-48.421,13.2a9.03,9.03,0,0,1-11.1-6.33l-1.356-4.97A9.032,9.032,0,0,1,9.423,1040.15Z"/>
    <path id="Rounded_Rectangle_2_copy_11-16" data-name="Rounded Rectangle 2 copy 11" class="cls-29" d="M149.044,1170.27l-49.438,8.74a9.014,9.014,0,0,0-7.3,10.47l0.908,5.06a9.064,9.064,0,0,0,10.494,7.32l49.438-8.75a9.005,9.005,0,0,0,7.3-10.46l-0.909-5.07A9.056,9.056,0,0,0,149.044,1170.27Z"/>
    <path id="Rounded_Rectangle_2_copy_11-17" data-name="Rounded Rectangle 2 copy 11" class="cls-29" d="M140.488,1150.04L92.741,1165.5a9.008,9.008,0,0,0-5.79,11.37l1.6,4.9a9.059,9.059,0,0,0,11.4,5.8l47.747-15.46a9.008,9.008,0,0,0,5.789-11.37l-1.6-4.9A9.059,9.059,0,0,0,140.488,1150.04Z"/>
    <path id="Rounded_Rectangle_2_copy_11-18" data-name="Rounded Rectangle 2 copy 11" class="cls-29" d="M125.911,1130.49L81.487,1153.8a9.021,9.021,0,0,0-3.778,12.2l2.4,4.55a9.053,9.053,0,0,0,12.214,3.8l44.424-23.31a9.011,9.011,0,0,0,3.778-12.19l-2.4-4.56A9.07,9.07,0,0,0,125.911,1130.49Z"/>
    <path id="Rounded_Rectangle_2_copy_11-19" data-name="Rounded Rectangle 2 copy 11" class="cls-29" d="M109.517,1113.33L70.06,1144.29a9.02,9.02,0,0,0-1.508,12.68l3.185,4.04a9.056,9.056,0,0,0,12.7,1.54l39.457-30.96a9.02,9.02,0,0,0,1.508-12.68l-3.185-4.05A9.054,9.054,0,0,0,109.517,1113.33Z"/>
    <path id="Rounded_Rectangle_2_copy_11-20" data-name="Rounded Rectangle 2 copy 11" class="cls-29" d="M92.447,1099.48l-34.8,36.1a9.026,9.026,0,0,0,.254,12.77l3.712,3.57a9.049,9.049,0,0,0,12.783-.23l34.8-36.1a9.025,9.025,0,0,0-.254-12.77l-3.712-3.57A9.049,9.049,0,0,0,92.447,1099.48Z"/>
    <path id="Rounded_Rectangle_2_copy_12-25" data-name="Rounded Rectangle 2 copy 12" class="cls-29" d="M63.44,1293.19l39.22,31.29a9.077,9.077,0,0,0,12.723-1.41l3.225-4.02a9,9,0,0,0-1.4-12.68l-39.219-31.29a9.077,9.077,0,0,0-12.723,1.41l-3.225,4.02A9,9,0,0,0,63.44,1293.19Z"/>
    <path id="Rounded_Rectangle_2_copy_12-26" data-name="Rounded Rectangle 2 copy 12" class="cls-29" d="M53.8,1312.91l43.179,25.61a9.076,9.076,0,0,0,12.41-3.15l2.642-4.41a9,9,0,0,0-3.135-12.37l-43.178-25.61a9.085,9.085,0,0,0-12.41,3.15l-2.641,4.42A8.99,8.99,0,0,0,53.8,1312.91Z"/>
    <path id="Rounded_Rectangle_2_copy_12-27" data-name="Rounded Rectangle 2 copy 12" class="cls-29" d="M41.669,1330.55L85.7,1354.73a9.081,9.081,0,0,0,12.3-3.55l2.491-4.5a9.007,9.007,0,0,0-3.551-12.26l-44.029-24.17a9.072,9.072,0,0,0-12.3,3.55l-2.491,4.5A9,9,0,0,0,41.669,1330.55Z"/>
    <path id="Rounded_Rectangle_2_copy_13-4" data-name="Rounded Rectangle 2 copy 13" class="cls-29" d="M29.684,1354.75l47.173,17.26a9.067,9.067,0,0,0,11.624-5.36l1.784-4.83a8.992,8.992,0,0,0-5.359-11.57l-47.173-17.26a9.067,9.067,0,0,0-11.624,5.36l-1.784,4.82A9,9,0,0,0,29.684,1354.75Z"/>
    <path id="Rounded_Rectangle_2_copy_14-4" data-name="Rounded Rectangle 2 copy 14" class="cls-29" d="M17.675,1372.76l47.173,17.26a9.067,9.067,0,0,0,11.624-5.36l1.784-4.83a8.992,8.992,0,0,0-5.359-11.57L25.724,1351a9.067,9.067,0,0,0-11.624,5.36l-1.784,4.82A9,9,0,0,0,17.675,1372.76Z"/>
    <path id="Rounded_Rectangle_2_copy_17-2" data-name="Rounded Rectangle 2 copy 17" class="cls-29" d="M11.286,1394.73L60.459,1405a9.075,9.075,0,0,0,10.727-6.99l1.068-5.03a9,9,0,0,0-6.976-10.68L16.1,1372.04a9.069,9.069,0,0,0-10.726,6.98l-1.068,5.03A9,9,0,0,0,11.286,1394.73Z"/>
    <path id="Rounded_Rectangle_2_copy_18-2" data-name="Rounded Rectangle 2 copy 18" class="cls-29" d="M8.325,1418.21l50.091,3.77a9.081,9.081,0,0,0,9.724-8.33l0.4-5.12a9.007,9.007,0,0,0-8.309-9.69l-50.091-3.76a9.067,9.067,0,0,0-9.724,8.32l-0.4,5.13A9,9,0,0,0,8.325,1418.21Z"/>
    <path id="Rounded_Rectangle_2_copy_12-28" data-name="Rounded Rectangle 2 copy 12" class="cls-29" d="M155.376,1216.25l-49.827,6.89a9.008,9.008,0,0,1-10.173-7.71l-0.686-5.09a9.077,9.077,0,0,1,7.765-10.18l49.827-6.88a8.994,8.994,0,0,1,10.173,7.7l0.685,5.09A9.071,9.071,0,0,1,155.376,1216.25Z"/>
    <path id="Rounded_Rectangle_2_copy_12-29" data-name="Rounded Rectangle 2 copy 12" class="cls-29" d="M153.416,1238.11l-50.273-.02a8.993,8.993,0,0,1-9.007-9.03l0.024-5.14a9.089,9.089,0,0,1,9.092-9.03l50.273,0.03a8.986,8.986,0,0,1,9.006,9.03l-0.024,5.14A9.087,9.087,0,0,1,153.416,1238.11Z"/>
    <path id="Rounded_Rectangle_2_copy_12-30" data-name="Rounded Rectangle 2 copy 12" class="cls-29" d="M145.5,1261.16l-49.509-8.5a8.978,8.978,0,0,1-7.34-10.42l0.9-5.07a9.086,9.086,0,0,1,10.484-7.36l49.509,8.5a8.978,8.978,0,0,1,7.34,10.42l-0.9,5.07A9.086,9.086,0,0,1,145.5,1261.16Z"/>
    <path id="Rounded_Rectangle_2_copy_12-31" data-name="Rounded Rectangle 2 copy 12" class="cls-29" d="M136.129,1284.51l-47.114-17.29a8.99,8.99,0,0,1-5.324-11.59l1.8-4.82a9.09,9.09,0,0,1,11.638-5.36l47.115,17.29a8.989,8.989,0,0,1,5.324,11.59l-1.8,4.83A9.093,9.093,0,0,1,136.129,1284.51Z"/>
    <path id="Rounded_Rectangle_2_copy_12-32" data-name="Rounded Rectangle 2 copy 12" class="cls-29" d="M120.092,1304.93l-44.251-23.61a9,9,0,0,1-3.671-12.22l2.446-4.53a9.081,9.081,0,0,1,12.26-3.71l44.251,23.61a8.983,8.983,0,0,1,3.671,12.21l-2.446,4.53A9.094,9.094,0,0,1,120.092,1304.93Z"/>
    <path id="Rounded_Rectangle_2_copy_10-33" data-name="Rounded Rectangle 2 copy 10" class="cls-29" d="M9.648,1017.07l49.96-4.83a9.033,9.033,0,0,1,9.865,8.12l0.5,5.12a9.027,9.027,0,0,1-8.12,9.86l-49.96,4.83a9.04,9.04,0,0,1-9.865-8.12l-0.5-5.12A9.027,9.027,0,0,1,9.648,1017.07Z"/>
    <path id="Rounded_Rectangle_2_copy_10-34" data-name="Rounded Rectangle 2 copy 10" class="cls-29" d="M9.564,994.42l50.191-.576a9.037,9.037,0,0,1,9.141,8.926l0.061,5.15a9.032,9.032,0,0,1-8.928,9.13l-50.191.58A9.042,9.042,0,0,1,.7,1008.7l-0.061-5.14A9.032,9.032,0,0,1,9.564,994.42Z"/>
    <path id="Rounded_Rectangle_2_copy_10-35" data-name="Rounded Rectangle 2 copy 10" class="cls-29" d="M14.159,972.958L63.954,979.3a9.036,9.036,0,0,1,7.825,10.1l-0.648,5.1a9.033,9.033,0,0,1-10.1,7.822l-49.794-6.34a9.036,9.036,0,0,1-7.825-10.1l0.648-5.1A9.03,9.03,0,0,1,14.159,972.958Z"/>
    <path id="Rounded_Rectangle_2_copy_10-36" data-name="Rounded Rectangle 2 copy 10" class="cls-29" d="M23.21,951.719l48.008,14.665a9.034,9.034,0,0,1,6,11.277l-1.5,4.919a9.033,9.033,0,0,1-11.279,6L16.433,973.914a9.035,9.035,0,0,1-6-11.278l1.5-4.919A9.033,9.033,0,0,1,23.21,951.719Z"/>
  </g>
</svg>
