<svg id="Container_Tops" data-name="Container Tops" xmlns="http://www.w3.org/2000/svg" xmlns:xlink="http://www.w3.org/1999/xlink" width="262" height="2850" viewBox="0 0 262 2850">
  <metadata><?xpacket begin="﻿" id="W5M0MpCehiHzreSzNTczkc9d"?>
<x:xmpmeta xmlns:x="adobe:ns:meta/" x:xmptk="Adobe XMP Core 5.6-c140 79.160451, 2017/05/06-01:08:21        ">
   <rdf:RDF xmlns:rdf="http://www.w3.org/1999/02/22-rdf-syntax-ns#">
      <rdf:Description rdf:about=""/>
   </rdf:RDF>
</x:xmpmeta>
                                                                                                    
                                                                                                    
                                                                                                    
                                                                                                    
                                                                                                    
                                                                                                    
                                                                                                    
                                                                                                    
                                                                                                    
                                                                                                    
                                                                                                    
                                                                                                    
                                                                                                    
                                                                                                    
                                                                                                    
                                                                                                    
                                                                                                    
                                                                                                    
                                                                                                    
                                                                                                    
                           
<?xpacket end="w"?></metadata>
<defs>
    <style>
      .cls-1, .cls-10, .cls-11, .cls-12, .cls-13, .cls-14, .cls-15, .cls-16, .cls-17, .cls-18, .cls-19, .cls-2, .cls-20, .cls-21, .cls-22, .cls-23, .cls-24, .cls-25, .cls-26, .cls-27, .cls-28, .cls-29, .cls-3, .cls-30, .cls-4, .cls-5, .cls-6, .cls-7, .cls-8, .cls-9 {
        fill: #acb0b4;
        stroke: #4a525a;
      }

      .cls-1, .cls-2 {
        stroke-width: 3px;
      }

      .cls-10, .cls-11, .cls-12, .cls-13, .cls-14, .cls-15, .cls-16, .cls-17, .cls-18, .cls-19, .cls-2, .cls-20, .cls-21, .cls-22, .cls-23, .cls-24, .cls-25, .cls-26, .cls-27, .cls-28, .cls-29, .cls-3, .cls-4, .cls-5, .cls-6, .cls-7, .cls-8, .cls-9 {
        fill-rule: evenodd;
      }

      .cls-10, .cls-11, .cls-12, .cls-13, .cls-14, .cls-15, .cls-16, .cls-17, .cls-18, .cls-19, .cls-20, .cls-21, .cls-22, .cls-23, .cls-24, .cls-25, .cls-26, .cls-27, .cls-28, .cls-3, .cls-4, .cls-5, .cls-6, .cls-7, .cls-8, .cls-9 {
        stroke-width: 1px;
      }

      .cls-3 {
        filter: url(#filter);
      }

      .cls-5 {
        filter: url(#filter-2);
      }

      .cls-6 {
        filter: url(#filter-3);
      }

      .cls-7 {
        filter: url(#filter-4);
      }

      .cls-8 {
        filter: url(#filter-5);
      }

      .cls-9 {
        filter: url(#filter-6);
      }

      .cls-10 {
        filter: url(#filter-7);
      }

      .cls-11 {
        filter: url(#filter-8);
      }

      .cls-12 {
        filter: url(#filter-9);
      }

      .cls-13 {
        filter: url(#filter-10);
      }

      .cls-14 {
        filter: url(#filter-11);
      }

      .cls-15 {
        filter: url(#filter-12);
      }

      .cls-16 {
        filter: url(#filter-13);
      }

      .cls-17 {
        filter: url(#filter-14);
      }

      .cls-18 {
        filter: url(#filter-15);
      }

      .cls-19 {
        filter: url(#filter-16);
      }

      .cls-20 {
        filter: url(#filter-17);
      }

      .cls-21 {
        filter: url(#filter-18);
      }

      .cls-22 {
        filter: url(#filter-19);
      }

      .cls-23 {
        filter: url(#filter-20);
      }

      .cls-24 {
        filter: url(#filter-21);
      }

      .cls-25 {
        filter: url(#filter-22);
      }

      .cls-26 {
        filter: url(#filter-23);
      }

      .cls-27 {
        filter: url(#filter-24);
      }

      .cls-28 {
        filter: url(#filter-25);
      }

      .cls-29, .cls-30 {
        stroke-width: 4px;
      }
    </style>
    <filter id="filter" x="4" y="8" width="23" height="23" filterUnits="userSpaceOnUse">
      <feFlood result="flood" flood-color="#292d32"/>
      <feComposite result="composite" operator="in" in2="SourceGraphic"/>
      <feBlend result="blend" in2="SourceGraphic"/>
    </filter>
    <filter id="filter-2" x="4" y="130" width="23" height="23" filterUnits="userSpaceOnUse">
      <feFlood result="flood" flood-color="#292d32"/>
      <feComposite result="composite" operator="in" in2="SourceGraphic"/>
      <feBlend result="blend" in2="SourceGraphic"/>
    </filter>
    <filter id="filter-3" x="4" y="534" width="23" height="23" filterUnits="userSpaceOnUse">
      <feFlood result="flood" flood-color="#292d32"/>
      <feComposite result="composite" operator="in" in2="SourceGraphic"/>
      <feBlend result="blend" in2="SourceGraphic"/>
    </filter>
    <filter id="filter-4" x="4" y="269" width="23" height="23" filterUnits="userSpaceOnUse">
      <feFlood result="flood" flood-color="#292d32"/>
      <feComposite result="composite" operator="in" in2="SourceGraphic"/>
      <feBlend result="blend" in2="SourceGraphic"/>
    </filter>
    <filter id="filter-5" x="4" y="412" width="23" height="23" filterUnits="userSpaceOnUse">
      <feFlood result="flood" flood-color="#292d32"/>
      <feComposite result="composite" operator="in" in2="SourceGraphic"/>
      <feBlend result="blend" in2="SourceGraphic"/>
    </filter>
    <filter id="filter-6" x="4" y="578" width="23" height="23" filterUnits="userSpaceOnUse">
      <feFlood result="flood" flood-color="#292d32"/>
      <feComposite result="composite" operator="in" in2="SourceGraphic"/>
      <feBlend result="blend" in2="SourceGraphic"/>
    </filter>
    <filter id="filter-7" x="4" y="700" width="23" height="23" filterUnits="userSpaceOnUse">
      <feFlood result="flood" flood-color="#292d32"/>
      <feComposite result="composite" operator="in" in2="SourceGraphic"/>
      <feBlend result="blend" in2="SourceGraphic"/>
    </filter>
    <filter id="filter-8" x="4" y="1104" width="23" height="23" filterUnits="userSpaceOnUse">
      <feFlood result="flood" flood-color="#292d32"/>
      <feComposite result="composite" operator="in" in2="SourceGraphic"/>
      <feBlend result="blend" in2="SourceGraphic"/>
    </filter>
    <filter id="filter-9" x="4" y="839" width="23" height="23" filterUnits="userSpaceOnUse">
      <feFlood result="flood" flood-color="#292d32"/>
      <feComposite result="composite" operator="in" in2="SourceGraphic"/>
      <feBlend result="blend" in2="SourceGraphic"/>
    </filter>
    <filter id="filter-10" x="4" y="982" width="23" height="23" filterUnits="userSpaceOnUse">
      <feFlood result="flood" flood-color="#292d32"/>
      <feComposite result="composite" operator="in" in2="SourceGraphic"/>
      <feBlend result="blend" in2="SourceGraphic"/>
    </filter>
    <filter id="filter-11" x="4" y="1148" width="23" height="23" filterUnits="userSpaceOnUse">
      <feFlood result="flood" flood-color="#292d32"/>
      <feComposite result="composite" operator="in" in2="SourceGraphic"/>
      <feBlend result="blend" in2="SourceGraphic"/>
    </filter>
    <filter id="filter-12" x="4" y="1270" width="23" height="23" filterUnits="userSpaceOnUse">
      <feFlood result="flood" flood-color="#292d32"/>
      <feComposite result="composite" operator="in" in2="SourceGraphic"/>
      <feBlend result="blend" in2="SourceGraphic"/>
    </filter>
    <filter id="filter-13" x="4" y="1674" width="23" height="23" filterUnits="userSpaceOnUse">
      <feFlood result="flood" flood-color="#292d32"/>
      <feComposite result="composite" operator="in" in2="SourceGraphic"/>
      <feBlend result="blend" in2="SourceGraphic"/>
    </filter>
    <filter id="filter-14" x="4" y="1409" width="23" height="23" filterUnits="userSpaceOnUse">
      <feFlood result="flood" flood-color="#292d32"/>
      <feComposite result="composite" operator="in" in2="SourceGraphic"/>
      <feBlend result="blend" in2="SourceGraphic"/>
    </filter>
    <filter id="filter-15" x="4" y="1552" width="23" height="23" filterUnits="userSpaceOnUse">
      <feFlood result="flood" flood-color="#292d32"/>
      <feComposite result="composite" operator="in" in2="SourceGraphic"/>
      <feBlend result="blend" in2="SourceGraphic"/>
    </filter>
    <filter id="filter-16" x="4" y="1718" width="23" height="23" filterUnits="userSpaceOnUse">
      <feFlood result="flood" flood-color="#292d32"/>
      <feComposite result="composite" operator="in" in2="SourceGraphic"/>
      <feBlend result="blend" in2="SourceGraphic"/>
    </filter>
    <filter id="filter-17" x="4" y="1840" width="23" height="23" filterUnits="userSpaceOnUse">
      <feFlood result="flood" flood-color="#292d32"/>
      <feComposite result="composite" operator="in" in2="SourceGraphic"/>
      <feBlend result="blend" in2="SourceGraphic"/>
    </filter>
    <filter id="filter-18" x="4" y="2244" width="23" height="23" filterUnits="userSpaceOnUse">
      <feFlood result="flood" flood-color="#292d32"/>
      <feComposite result="composite" operator="in" in2="SourceGraphic"/>
      <feBlend result="blend" in2="SourceGraphic"/>
    </filter>
    <filter id="filter-19" x="4" y="1979" width="23" height="23" filterUnits="userSpaceOnUse">
      <feFlood result="flood" flood-color="#292d32"/>
      <feComposite result="composite" operator="in" in2="SourceGraphic"/>
      <feBlend result="blend" in2="SourceGraphic"/>
    </filter>
    <filter id="filter-20" x="4" y="2122" width="23" height="23" filterUnits="userSpaceOnUse">
      <feFlood result="flood" flood-color="#292d32"/>
      <feComposite result="composite" operator="in" in2="SourceGraphic"/>
      <feBlend result="blend" in2="SourceGraphic"/>
    </filter>
    <filter id="filter-21" x="4" y="2288" width="23" height="23" filterUnits="userSpaceOnUse">
      <feFlood result="flood" flood-color="#292d32"/>
      <feComposite result="composite" operator="in" in2="SourceGraphic"/>
      <feBlend result="blend" in2="SourceGraphic"/>
    </filter>
    <filter id="filter-22" x="4" y="2410" width="23" height="23" filterUnits="userSpaceOnUse">
      <feFlood result="flood" flood-color="#292d32"/>
      <feComposite result="composite" operator="in" in2="SourceGraphic"/>
      <feBlend result="blend" in2="SourceGraphic"/>
    </filter>
    <filter id="filter-23" x="4" y="2814" width="23" height="23" filterUnits="userSpaceOnUse">
      <feFlood result="flood" flood-color="#292d32"/>
      <feComposite result="composite" operator="in" in2="SourceGraphic"/>
      <feBlend result="blend" in2="SourceGraphic"/>
    </filter>
    <filter id="filter-24" x="4" y="2549" width="23" height="23" filterUnits="userSpaceOnUse">
      <feFlood result="flood" flood-color="#292d32"/>
      <feComposite result="composite" operator="in" in2="SourceGraphic"/>
      <feBlend result="blend" in2="SourceGraphic"/>
    </filter>
    <filter id="filter-25" x="4" y="2692" width="23" height="23" filterUnits="userSpaceOnUse">
      <feFlood result="flood" flood-color="#292d32"/>
      <feComposite result="composite" operator="in" in2="SourceGraphic"/>
      <feBlend result="blend" in2="SourceGraphic"/>
    </filter>
  </defs>
  <g id="Cap">
    <rect id="Rounded_Rectangle_2" data-name="Rounded Rectangle 2" class="cls-1" x="71" y="242" width="23" height="83" rx="11.5" ry="11.5"/>
    <rect id="Rounded_Rectangle_1" data-name="Rounded Rectangle 1" class="cls-1" x="33" y="176" width="49" height="215" rx="24.5" ry="24.5"/>
    <path id="Shape_1_copy_4" data-name="Shape 1 copy 4" class="cls-2" d="M-1,3S56,1.729,56,53s-1,441.793-1,477S-1,570-1,570V3Z"/>
    <g id="Nut">
      <g style="fill: #acb0b4; filter: url(#filter)">
        <path id="Polygon_1_copy" data-name="Polygon 1 copy" class="cls-3" d="M6.244,28.743l-2.253-14.2L16.824,8.013,27.007,18.181,20.469,30.993Z" style="stroke: inherit; filter: none; fill: inherit"/>
      </g>
      <use xlink:href="#Polygon_1_copy" style="stroke: #4a525a; filter: none; fill: none"/>
      <path id="Polygon_1" data-name="Polygon 1" class="cls-4" d="M8.855,25.632L6.9,13.282,18.04,7.605l8.842,8.842L21.2,27.587Z"/>
    </g>
    <g id="Nut_copy_3" data-name="Nut copy 3">
      <g style="fill: #acb0b4; filter: url(#filter-2)">
        <path id="Polygon_1_copy-2" data-name="Polygon 1 copy" class="cls-5" d="M6.244,150.743l-2.253-14.2,12.832-6.528,10.184,10.168-6.538,12.812Z" style="stroke: inherit; filter: none; fill: inherit"/>
      </g>
      <use xlink:href="#Polygon_1_copy-2" style="stroke: #4a525a; filter: none; fill: none"/>
      <path id="Polygon_1-2" data-name="Polygon 1" class="cls-4" d="M8.855,147.631L6.9,135.282,18.04,129.6l8.842,8.842L21.2,149.587Z"/>
    </g>
    <g id="Nut_copy" data-name="Nut copy">
      <g style="fill: #acb0b4; filter: url(#filter-3)">
        <path id="Polygon_1_copy-3" data-name="Polygon 1 copy" class="cls-6" d="M6.244,554.743l-2.253-14.2,12.832-6.528,10.184,10.168-6.538,12.812Z" style="stroke: inherit; filter: none; fill: inherit"/>
      </g>
      <use xlink:href="#Polygon_1_copy-3" style="stroke: #4a525a; filter: none; fill: none"/>
      <path id="Polygon_1-3" data-name="Polygon 1" class="cls-4" d="M8.855,554.632L6.9,542.282l11.141-5.677,8.842,8.842L21.2,556.587Z"/>
    </g>
    <g id="Nut_copy_2" data-name="Nut copy 2">
      <g style="fill: #acb0b4; filter: url(#filter-4)">
        <path id="Polygon_1_copy-4" data-name="Polygon 1 copy" class="cls-7" d="M6.244,289.743l-2.253-14.2,12.832-6.528,10.184,10.168-6.538,12.812Z" style="stroke: inherit; filter: none; fill: inherit"/>
      </g>
      <use xlink:href="#Polygon_1_copy-4" style="stroke: #4a525a; filter: none; fill: none"/>
      <path id="Polygon_1-4" data-name="Polygon 1" class="cls-4" d="M8.855,287.631L6.9,275.282l11.141-5.677,8.842,8.842L21.2,289.587Z"/>
    </g>
    <g id="Nut_copy_4" data-name="Nut copy 4">
      <g style="fill: #acb0b4; filter: url(#filter-5)">
        <path id="Polygon_1_copy-5" data-name="Polygon 1 copy" class="cls-8" d="M6.244,432.743l-2.253-14.2,12.832-6.528,10.184,10.168-6.538,12.812Z" style="stroke: inherit; filter: none; fill: inherit"/>
      </g>
      <use xlink:href="#Polygon_1_copy-5" style="stroke: #4a525a; filter: none; fill: none"/>
      <path id="Polygon_1-5" data-name="Polygon 1" class="cls-4" d="M8.855,432.631L6.9,420.282l11.141-5.677,8.842,8.842L21.2,434.588Z"/>
    </g>
  </g>
  <g id="Cap_copy" data-name="Cap copy">
    <rect id="Rounded_Rectangle_2-2" data-name="Rounded Rectangle 2" class="cls-1" x="71" y="812" width="23" height="83" rx="11.5" ry="11.5"/>
    <rect id="Rounded_Rectangle_1-2" data-name="Rounded Rectangle 1" class="cls-1" x="33" y="746" width="49" height="215" rx="24.5" ry="24.5"/>
    <path id="Shape_1_copy_3" data-name="Shape 1 copy 3" class="cls-2" d="M-1,572s57-1.271,57,50-1,441.79-1,477-56,40-56,40V572Z"/>
    <g id="Nut-2" data-name="Nut">
      <g style="fill: #acb0b4; filter: url(#filter-6)">
        <path id="Polygon_1_copy-6" data-name="Polygon 1 copy" class="cls-9" d="M6.244,598.743l-2.253-14.2,12.832-6.528,10.184,10.168-6.538,12.812Z" style="stroke: inherit; filter: none; fill: inherit"/>
      </g>
      <use xlink:href="#Polygon_1_copy-6" style="stroke: #4a525a; filter: none; fill: none"/>
      <path id="Polygon_1-6" data-name="Polygon 1" class="cls-4" d="M8.855,595.631L6.9,583.282l11.141-5.677,8.842,8.842L21.2,597.588Z"/>
    </g>
    <g id="Nut_copy_3-2" data-name="Nut copy 3">
      <g style="fill: #acb0b4; filter: url(#filter-7)">
        <path id="Polygon_1_copy-7" data-name="Polygon 1 copy" class="cls-10" d="M6.244,720.743l-2.253-14.2,12.832-6.528,10.184,10.168-6.538,12.812Z" style="stroke: inherit; filter: none; fill: inherit"/>
      </g>
      <use xlink:href="#Polygon_1_copy-7" style="stroke: #4a525a; filter: none; fill: none"/>
      <path id="Polygon_1-7" data-name="Polygon 1" class="cls-4" d="M8.855,717.632L6.9,705.282l11.141-5.677,8.842,8.842L21.2,719.587Z"/>
    </g>
    <g id="Nut_copy-2" data-name="Nut copy">
      <g style="fill: #acb0b4; filter: url(#filter-8)">
        <path id="Polygon_1_copy-8" data-name="Polygon 1 copy" class="cls-11" d="M6.244,1124.74l-2.253-14.2,12.832-6.53,10.184,10.17-6.538,12.81Z" style="stroke: inherit; filter: none; fill: inherit"/>
      </g>
      <use xlink:href="#Polygon_1_copy-8" style="stroke: #4a525a; filter: none; fill: none"/>
      <path id="Polygon_1-8" data-name="Polygon 1" class="cls-4" d="M8.855,1124.63L6.9,1112.28l11.141-5.67,8.842,8.84L21.2,1126.59Z"/>
    </g>
    <g id="Nut_copy_2-2" data-name="Nut copy 2">
      <g style="fill: #acb0b4; filter: url(#filter-9)">
        <path id="Polygon_1_copy-9" data-name="Polygon 1 copy" class="cls-12" d="M6.244,859.743l-2.253-14.2,12.832-6.528,10.184,10.168-6.538,12.812Z" style="stroke: inherit; filter: none; fill: inherit"/>
      </g>
      <use xlink:href="#Polygon_1_copy-9" style="stroke: #4a525a; filter: none; fill: none"/>
      <path id="Polygon_1-9" data-name="Polygon 1" class="cls-4" d="M8.855,857.632L6.9,845.282l11.141-5.677,8.842,8.841L21.2,859.587Z"/>
    </g>
    <g id="Nut_copy_4-2" data-name="Nut copy 4">
      <g style="fill: #acb0b4; filter: url(#filter-10)">
        <path id="Polygon_1_copy-10" data-name="Polygon 1 copy" class="cls-13" d="M6.244,1002.74l-2.253-14.2,12.832-6.528,10.184,10.168-6.538,12.809Z" style="stroke: inherit; filter: none; fill: inherit"/>
      </g>
      <use xlink:href="#Polygon_1_copy-10" style="stroke: #4a525a; filter: none; fill: none"/>
      <path id="Polygon_1-10" data-name="Polygon 1" class="cls-4" d="M8.855,1002.63L6.9,990.282l11.141-5.677,8.842,8.842L21.2,1004.59Z"/>
    </g>
  </g>
  <g id="Cap_copy_2" data-name="Cap copy 2">
    <rect id="Rounded_Rectangle_2-3" data-name="Rounded Rectangle 2" class="cls-1" x="71" y="1382" width="23" height="83" rx="11.5" ry="11.5"/>
    <rect id="Rounded_Rectangle_1-3" data-name="Rounded Rectangle 1" class="cls-1" x="33" y="1316" width="49" height="215" rx="24.5" ry="24.5"/>
    <path id="Shape_1_copy_2" data-name="Shape 1 copy 2" class="cls-2" d="M-1,1142s57-1.27,57,50-1,441.79-1,477-56,40-56,40V1142Z"/>
    <g id="Nut-3" data-name="Nut">
      <g style="fill: #acb0b4; filter: url(#filter-11)">
        <path id="Polygon_1_copy-11" data-name="Polygon 1 copy" class="cls-14" d="M6.244,1168.74l-2.253-14.2,12.832-6.53,10.184,10.17-6.538,12.81Z" style="stroke: inherit; filter: none; fill: inherit"/>
      </g>
      <use xlink:href="#Polygon_1_copy-11" style="stroke: #4a525a; filter: none; fill: none"/>
      <path id="Polygon_1-11" data-name="Polygon 1" class="cls-4" d="M8.855,1165.63L6.9,1153.28l11.141-5.67,8.842,8.84L21.2,1167.59Z"/>
    </g>
    <g id="Nut_copy_3-3" data-name="Nut copy 3">
      <g style="fill: #acb0b4; filter: url(#filter-12)">
        <path id="Polygon_1_copy-12" data-name="Polygon 1 copy" class="cls-15" d="M6.244,1290.74l-2.253-14.2,12.832-6.53,10.184,10.17-6.538,12.81Z" style="stroke: inherit; filter: none; fill: inherit"/>
      </g>
      <use xlink:href="#Polygon_1_copy-12" style="stroke: #4a525a; filter: none; fill: none"/>
      <path id="Polygon_1-12" data-name="Polygon 1" class="cls-4" d="M8.855,1287.63L6.9,1275.28l11.141-5.67,8.842,8.84L21.2,1289.59Z"/>
    </g>
    <g id="Nut_copy-3" data-name="Nut copy">
      <g style="fill: #acb0b4; filter: url(#filter-13)">
        <path id="Polygon_1_copy-13" data-name="Polygon 1 copy" class="cls-16" d="M6.244,1694.74l-2.253-14.2,12.832-6.53,10.184,10.17-6.538,12.81Z" style="stroke: inherit; filter: none; fill: inherit"/>
      </g>
      <use xlink:href="#Polygon_1_copy-13" style="stroke: #4a525a; filter: none; fill: none"/>
      <path id="Polygon_1-13" data-name="Polygon 1" class="cls-4" d="M8.855,1694.63L6.9,1682.28l11.141-5.67,8.842,8.84L21.2,1696.59Z"/>
    </g>
    <g id="Nut_copy_2-3" data-name="Nut copy 2">
      <g style="fill: #acb0b4; filter: url(#filter-14)">
        <path id="Polygon_1_copy-14" data-name="Polygon 1 copy" class="cls-17" d="M6.244,1429.74l-2.253-14.2,12.832-6.53,10.184,10.17-6.538,12.81Z" style="stroke: inherit; filter: none; fill: inherit"/>
      </g>
      <use xlink:href="#Polygon_1_copy-14" style="stroke: #4a525a; filter: none; fill: none"/>
      <path id="Polygon_1-14" data-name="Polygon 1" class="cls-4" d="M8.855,1427.63L6.9,1415.28l11.141-5.67,8.842,8.84L21.2,1429.59Z"/>
    </g>
    <g id="Nut_copy_4-3" data-name="Nut copy 4">
      <g style="fill: #acb0b4; filter: url(#filter-15)">
        <path id="Polygon_1_copy-15" data-name="Polygon 1 copy" class="cls-18" d="M6.244,1572.74l-2.253-14.2,12.832-6.53,10.184,10.17-6.538,12.81Z" style="stroke: inherit; filter: none; fill: inherit"/>
      </g>
      <use xlink:href="#Polygon_1_copy-15" style="stroke: #4a525a; filter: none; fill: none"/>
      <path id="Polygon_1-15" data-name="Polygon 1" class="cls-4" d="M8.855,1572.63L6.9,1560.28l11.141-5.67,8.842,8.84L21.2,1574.59Z"/>
    </g>
  </g>
  <g id="Cap_copy_3" data-name="Cap copy 3">
    <rect id="Rounded_Rectangle_2-4" data-name="Rounded Rectangle 2" class="cls-1" x="71" y="1952" width="23" height="83" rx="11.5" ry="11.5"/>
    <rect id="Rounded_Rectangle_1-4" data-name="Rounded Rectangle 1" class="cls-1" x="33" y="1886" width="49" height="215" rx="24.5" ry="24.5"/>
    <path id="Shape_1_copy" data-name="Shape 1 copy" class="cls-2" d="M-1,1710s57-1.27,57,50-1,441.79-1,477-56,40-56,40V1710Z"/>
    <g id="Nut-4" data-name="Nut">
      <g style="fill: #acb0b4; filter: url(#filter-16)">
        <path id="Polygon_1_copy-16" data-name="Polygon 1 copy" class="cls-19" d="M6.244,1738.74l-2.253-14.2,12.832-6.53,10.184,10.17-6.538,12.81Z" style="stroke: inherit; filter: none; fill: inherit"/>
      </g>
      <use xlink:href="#Polygon_1_copy-16" style="stroke: #4a525a; filter: none; fill: none"/>
      <path id="Polygon_1-16" data-name="Polygon 1" class="cls-4" d="M8.855,1735.63L6.9,1723.28l11.141-5.67,8.842,8.84L21.2,1737.59Z"/>
    </g>
    <g id="Nut_copy_3-4" data-name="Nut copy 3">
      <g style="fill: #acb0b4; filter: url(#filter-17)">
        <path id="Polygon_1_copy-17" data-name="Polygon 1 copy" class="cls-20" d="M6.244,1860.74l-2.253-14.2,12.832-6.53,10.184,10.17-6.538,12.81Z" style="stroke: inherit; filter: none; fill: inherit"/>
      </g>
      <use xlink:href="#Polygon_1_copy-17" style="stroke: #4a525a; filter: none; fill: none"/>
      <path id="Polygon_1-17" data-name="Polygon 1" class="cls-4" d="M8.855,1857.63L6.9,1845.28l11.141-5.67,8.842,8.84L21.2,1859.59Z"/>
    </g>
    <g id="Nut_copy-4" data-name="Nut copy">
      <g style="fill: #acb0b4; filter: url(#filter-18)">
        <path id="Polygon_1_copy-18" data-name="Polygon 1 copy" class="cls-21" d="M6.244,2264.74l-2.253-14.2,12.832-6.53,10.184,10.17-6.538,12.81Z" style="stroke: inherit; filter: none; fill: inherit"/>
      </g>
      <use xlink:href="#Polygon_1_copy-18" style="stroke: #4a525a; filter: none; fill: none"/>
      <path id="Polygon_1-18" data-name="Polygon 1" class="cls-4" d="M8.855,2264.63L6.9,2252.28l11.141-5.67,8.842,8.84L21.2,2266.59Z"/>
    </g>
    <g id="Nut_copy_2-4" data-name="Nut copy 2">
      <g style="fill: #acb0b4; filter: url(#filter-19)">
        <path id="Polygon_1_copy-19" data-name="Polygon 1 copy" class="cls-22" d="M6.244,1999.74l-2.253-14.2,12.832-6.53,10.184,10.17-6.538,12.81Z" style="stroke: inherit; filter: none; fill: inherit"/>
      </g>
      <use xlink:href="#Polygon_1_copy-19" style="stroke: #4a525a; filter: none; fill: none"/>
      <path id="Polygon_1-19" data-name="Polygon 1" class="cls-4" d="M8.855,1997.63L6.9,1985.28l11.141-5.67,8.842,8.84L21.2,1999.59Z"/>
    </g>
    <g id="Nut_copy_4-4" data-name="Nut copy 4">
      <g style="fill: #acb0b4; filter: url(#filter-20)">
        <path id="Polygon_1_copy-20" data-name="Polygon 1 copy" class="cls-23" d="M6.244,2142.74l-2.253-14.2,12.832-6.53,10.184,10.17-6.538,12.81Z" style="stroke: inherit; filter: none; fill: inherit"/>
      </g>
      <use xlink:href="#Polygon_1_copy-20" style="stroke: #4a525a; filter: none; fill: none"/>
      <path id="Polygon_1-20" data-name="Polygon 1" class="cls-4" d="M8.855,2142.63L6.9,2130.28l11.141-5.67,8.842,8.84L21.2,2144.59Z"/>
    </g>
  </g>
  <g id="Cap_copy_4" data-name="Cap copy 4">
    <rect id="Rounded_Rectangle_2-5" data-name="Rounded Rectangle 2" class="cls-1" x="71" y="2522" width="23" height="83" rx="11.5" ry="11.5"/>
    <rect id="Rounded_Rectangle_1-5" data-name="Rounded Rectangle 1" class="cls-1" x="33" y="2456" width="49" height="215" rx="24.5" ry="24.5"/>
    <path class="cls-2" d="M-1,2280s57-1.27,57,50-1,441.79-1,477-56,40-56,40V2280Z"/>
    <g id="Nut-5" data-name="Nut">
      <g style="fill: #acb0b4; filter: url(#filter-21)">
        <path id="Polygon_1_copy-21" data-name="Polygon 1 copy" class="cls-24" d="M6.244,2308.74l-2.253-14.2,12.832-6.53,10.184,10.17-6.538,12.81Z" style="stroke: inherit; filter: none; fill: inherit"/>
      </g>
      <use xlink:href="#Polygon_1_copy-21" style="stroke: #4a525a; filter: none; fill: none"/>
      <path id="Polygon_1-21" data-name="Polygon 1" class="cls-4" d="M8.855,2305.63L6.9,2293.28l11.141-5.67,8.842,8.84L21.2,2307.59Z"/>
    </g>
    <g id="Nut_copy_3-5" data-name="Nut copy 3">
      <g style="fill: #acb0b4; filter: url(#filter-22)">
        <path id="Polygon_1_copy-22" data-name="Polygon 1 copy" class="cls-25" d="M6.244,2430.74l-2.253-14.2,12.832-6.53,10.184,10.17-6.538,12.81Z" style="stroke: inherit; filter: none; fill: inherit"/>
      </g>
      <use xlink:href="#Polygon_1_copy-22" style="stroke: #4a525a; filter: none; fill: none"/>
      <path id="Polygon_1-22" data-name="Polygon 1" class="cls-4" d="M8.855,2427.63L6.9,2415.28l11.141-5.67,8.842,8.84L21.2,2429.59Z"/>
    </g>
    <g id="Nut_copy-5" data-name="Nut copy">
      <g style="fill: #acb0b4; filter: url(#filter-23)">
        <path id="Polygon_1_copy-23" data-name="Polygon 1 copy" class="cls-26" d="M6.244,2834.74l-2.253-14.2,12.832-6.53,10.184,10.17-6.538,12.81Z" style="stroke: inherit; filter: none; fill: inherit"/>
      </g>
      <use xlink:href="#Polygon_1_copy-23" style="stroke: #4a525a; filter: none; fill: none"/>
      <path id="Polygon_1-23" data-name="Polygon 1" class="cls-4" d="M8.855,2834.63L6.9,2822.28l11.141-5.67,8.842,8.84L21.2,2836.59Z"/>
    </g>
    <g id="Nut_copy_2-5" data-name="Nut copy 2">
      <g style="fill: #acb0b4; filter: url(#filter-24)">
        <path id="Polygon_1_copy-24" data-name="Polygon 1 copy" class="cls-27" d="M6.244,2569.74l-2.253-14.2,12.832-6.53,10.184,10.17-6.538,12.81Z" style="stroke: inherit; filter: none; fill: inherit"/>
      </g>
      <use xlink:href="#Polygon_1_copy-24" style="stroke: #4a525a; filter: none; fill: none"/>
      <path id="Polygon_1-24" data-name="Polygon 1" class="cls-4" d="M8.855,2567.63L6.9,2555.28l11.141-5.67,8.842,8.84L21.2,2569.59Z"/>
    </g>
    <g id="Nut_copy_4-5" data-name="Nut copy 4">
      <g style="fill: #acb0b4; filter: url(#filter-25)">
        <path id="Polygon_1_copy-25" data-name="Polygon 1 copy" class="cls-28" d="M6.244,2712.74l-2.253-14.2,12.832-6.53,10.184,10.17-6.538,12.81Z" style="stroke: inherit; filter: none; fill: inherit"/>
      </g>
      <use xlink:href="#Polygon_1_copy-25" style="stroke: #4a525a; filter: none; fill: none"/>
      <path id="Polygon_1-25" data-name="Polygon 1" class="cls-4" d="M8.855,2712.63L6.9,2700.28l11.141-5.67,8.842,8.84L21.2,2714.59Z"/>
    </g>
  </g>
  <g id="Pipe_3" data-name="Pipe 3">
    <path id="Rounded_Rectangle_2_copy_19" data-name="Rounded Rectangle 2 copy 19" class="cls-29" d="M92.474,1397.99l0.034,50.16a9.032,9.032,0,0,0,9.033,9.02h5.14a9.026,9.026,0,0,0,9.021-9.03l-0.035-50.16a9.033,9.033,0,0,0-9.033-9.03H101.5A9.028,9.028,0,0,0,92.474,1397.99Z"/>
    <path id="Rounded_Rectangle_2_copy_20" data-name="Rounded Rectangle 2 copy 20" class="cls-29" d="M114.474,1397.99l0.035,50.16a9.031,9.031,0,0,0,9.033,9.02h5.14a9.026,9.026,0,0,0,9.021-9.03l-0.035-50.16a9.033,9.033,0,0,0-9.033-9.03H123.5A9.028,9.028,0,0,0,114.474,1397.99Z"/>
    <path id="Rounded_Rectangle_2_copy_21" data-name="Rounded Rectangle 2 copy 21" class="cls-29" d="M136.474,1393.99l0.035,50.16a9.031,9.031,0,0,0,9.033,9.02h5.14a9.026,9.026,0,0,0,9.021-9.03l-0.035-50.16a9.033,9.033,0,0,0-9.033-9.03H145.5A9.028,9.028,0,0,0,136.474,1393.99Z"/>
    <path id="Rounded_Rectangle_2_copy_22" data-name="Rounded Rectangle 2 copy 22" class="cls-29" d="M158.474,1397.99l0.035,50.16a9.031,9.031,0,0,0,9.033,9.02h5.14a9.026,9.026,0,0,0,9.021-9.03l-0.035-50.16a9.033,9.033,0,0,0-9.033-9.03H167.5A9.028,9.028,0,0,0,158.474,1397.99Z"/>
    <path id="Rounded_Rectangle_2_copy_23" data-name="Rounded Rectangle 2 copy 23" class="cls-29" d="M180.474,1393.99l0.035,50.16a9.031,9.031,0,0,0,9.033,9.02h5.14a9.026,9.026,0,0,0,9.021-9.03l-0.035-50.16a9.033,9.033,0,0,0-9.033-9.03H189.5A9.028,9.028,0,0,0,180.474,1393.99Z"/>
    <path id="Rounded_Rectangle_2_copy_24" data-name="Rounded Rectangle 2 copy 24" class="cls-29" d="M201.474,1393.99l0.035,50.16a9.031,9.031,0,0,0,9.033,9.02h5.14a9.026,9.026,0,0,0,9.021-9.03l-0.035-50.16a9.033,9.033,0,0,0-9.033-9.03H210.5A9.028,9.028,0,0,0,201.474,1393.99Z"/>
    <path id="Rounded_Rectangle_2_copy_25" data-name="Rounded Rectangle 2 copy 25" class="cls-29" d="M218.474,1393.99l0.035,50.16a9.031,9.031,0,0,0,9.033,9.02h5.14a9.026,9.026,0,0,0,9.021-9.03l-0.035-50.16a9.033,9.033,0,0,0-9.033-9.03H227.5A9.028,9.028,0,0,0,218.474,1393.99Z"/>
  </g>
  <g id="Pipe_1" data-name="Pipe 1">
    <rect id="Rounded_Rectangle_2_copy_9" data-name="Rounded Rectangle 2 copy 9" class="cls-30" x="92" y="253" width="23.125" height="68" rx="9" ry="9"/>
    <path id="Rounded_Rectangle_2_copy_9-2" data-name="Rounded Rectangle 2 copy 9" class="cls-29" d="M136.457,266.83l-6.884,49.524a9,9,0,0,1-10.154,7.675l-5.076-.706a9,9,0,0,1-7.675-10.153l6.884-49.524a9,9,0,0,1,10.154-7.675l5.076,0.706A9,9,0,0,1,136.457,266.83Z"/>
    <path id="Rounded_Rectangle_2_copy_9-3" data-name="Rounded Rectangle 2 copy 9" class="cls-29" d="M158.161,277.683L143,325.329a9,9,0,0,1-11.305,5.847l-4.884-1.553a9,9,0,0,1-5.848-11.306l15.16-47.646a9,9,0,0,1,11.305-5.847l4.884,1.553A9,9,0,0,1,158.161,277.683Z"/>
    <path id="Rounded_Rectangle_2_copy_9-4" data-name="Rounded Rectangle 2 copy 9" class="cls-29" d="M177.843,290.736L154.32,334.857a9,9,0,0,1-12.176,3.708l-4.522-2.411a9,9,0,0,1-3.708-12.176l23.523-44.121a9,9,0,0,1,12.175-3.708l4.523,2.411A9,9,0,0,1,177.843,290.736Z"/>
    <path id="Rounded_Rectangle_2_copy_9-5" data-name="Rounded Rectangle 2 copy 9" class="cls-29" d="M194.394,305.034L165.021,345.5a9,9,0,0,1-12.571,2l-4.147-3.011a9,9,0,0,1-2-12.57l29.373-40.463a9,9,0,0,1,12.571-2l4.147,3.011A9,9,0,0,1,194.394,305.034Z"/>
    <path id="Rounded_Rectangle_2_copy_9-6" data-name="Rounded Rectangle 2 copy 9" class="cls-29" d="M208.617,323.115l-35.793,34.913a9,9,0,0,1-12.727-.159l-3.578-3.669a9,9,0,0,1,.158-12.727l35.793-34.912a9,9,0,0,1,12.727.159l3.579,3.668A9,9,0,0,1,208.617,323.115Z"/>
    <path id="Rounded_Rectangle_2_copy_9-7" data-name="Rounded Rectangle 2 copy 9" class="cls-29" d="M222.806,340.662l-38.624,31.752a9,9,0,0,1-12.668-1.237l-3.255-3.959A9,9,0,0,1,169.5,354.55L208.12,322.8a9,9,0,0,1,12.668,1.237l3.254,3.959A9,9,0,0,1,222.806,340.662Z"/>
    <path id="Rounded_Rectangle_2_copy_9-8" data-name="Rounded Rectangle 2 copy 9" class="cls-29" d="M232.621,360.207l-42.627,26.132a9,9,0,0,1-12.377-2.969L174.938,379a9,9,0,0,1,2.969-12.377l42.628-26.132a9,9,0,0,1,12.377,2.969l2.678,4.37A9,9,0,0,1,232.621,360.207Z"/>
    <path id="Rounded_Rectangle_2_copy_9-9" data-name="Rounded Rectangle 2 copy 9" class="cls-29" d="M238.837,382.357L192.4,400.9a9,9,0,0,1-11.7-5.02l-1.9-4.759a9,9,0,0,1,5.019-11.7l46.433-18.546a9,9,0,0,1,11.7,5.019l1.9,4.76A9,9,0,0,1,238.837,382.357Z"/>
    <path id="Rounded_Rectangle_2_copy_10" data-name="Rounded Rectangle 2 copy 10" class="cls-29" d="M217.459,553.483l-31.393-39.106a9.028,9.028,0,0,0-12.692-1.386l-4.009,3.218a9.028,9.028,0,0,0-1.391,12.692l31.392,39.106a9.028,9.028,0,0,0,12.692,1.386l4.01-3.218A9.028,9.028,0,0,0,217.459,553.483Z"/>
    <path id="Rounded_Rectangle_2_copy_10-2" data-name="Rounded Rectangle 2 copy 10" class="cls-29" d="M231.116,536.308L194.637,501.9a9.029,9.029,0,0,0-12.763.374l-3.528,3.74a9.027,9.027,0,0,0,.369,12.762l36.48,34.409a9.027,9.027,0,0,0,12.762-.374l3.529-3.74A9.027,9.027,0,0,0,231.116,536.308Z"/>
    <path id="Rounded_Rectangle_2_copy_10-3" data-name="Rounded Rectangle 2 copy 10" class="cls-29" d="M241.283,514.189l-41.776-27.744a9.03,9.03,0,0,0-12.516,2.527l-2.845,4.282a9.026,9.026,0,0,0,2.523,12.515l41.775,27.744a9.031,9.031,0,0,0,12.516-2.527l2.846-4.283A9.026,9.026,0,0,0,241.283,514.189Z"/>
    <path id="Rounded_Rectangle_2_copy_10-4" data-name="Rounded Rectangle 2 copy 10" class="cls-29" d="M248.486,491.618l-46.1-19.734a9.03,9.03,0,0,0-11.854,4.747l-2.024,4.726a9.025,9.025,0,0,0,4.743,11.852l46.1,19.734a9.03,9.03,0,0,0,11.854-4.747l2.025-4.726A9.026,9.026,0,0,0,248.486,491.618Z"/>
    <path id="Rounded_Rectangle_2_copy_10-5" data-name="Rounded Rectangle 2 copy 10" class="cls-29" d="M252.459,470.04l-48.386-13.2a9.032,9.032,0,0,0-11.088,6.334l-1.354,4.959a9.024,9.024,0,0,0,6.331,11.085l48.385,13.2a9.032,9.032,0,0,0,11.088-6.334l1.354-4.959A9.024,9.024,0,0,0,252.459,470.04Z"/>
    <path id="Rounded_Rectangle_2_copy_11" data-name="Rounded Rectangle 2 copy 11" class="cls-29" d="M112.941,600.086l49.4,8.742a9,9,0,0,1,7.3,10.46l-0.907,5.061a9.055,9.055,0,0,1-10.486,7.313l-49.4-8.741a9.005,9.005,0,0,1-7.3-10.461l0.908-5.06A9.055,9.055,0,0,1,112.941,600.086Z"/>
    <path id="Rounded_Rectangle_2_copy_11-2" data-name="Rounded Rectangle 2 copy 11" class="cls-29" d="M121.491,579.867L169.2,595.322a9.005,9.005,0,0,1,5.785,11.368l-1.6,4.889a9.055,9.055,0,0,1-11.391,5.8l-47.712-15.456a9,9,0,0,1-5.785-11.368l1.6-4.889A9.054,9.054,0,0,1,121.491,579.867Z"/>
    <path id="Rounded_Rectangle_2_copy_11-3" data-name="Rounded Rectangle 2 copy 11" class="cls-29" d="M136.057,560.332l44.391,23.3a9.009,9.009,0,0,1,3.776,12.186l-2.4,4.551a9.053,9.053,0,0,1-12.206,3.8l-44.391-23.3a9.009,9.009,0,0,1-3.776-12.186l2.4-4.551A9.053,9.053,0,0,1,136.057,560.332Z"/>
    <path id="Rounded_Rectangle_2_copy_11-4" data-name="Rounded Rectangle 2 copy 11" class="cls-29" d="M152.439,543.18l39.428,30.941a9.014,9.014,0,0,1,1.507,12.671l-3.183,4.044a9.046,9.046,0,0,1-12.687,1.533l-39.428-30.941a9.015,9.015,0,0,1-1.507-12.672l3.183-4.044A9.046,9.046,0,0,1,152.439,543.18Z"/>
    <path id="Rounded_Rectangle_2_copy_11-5" data-name="Rounded Rectangle 2 copy 11" class="cls-29" d="M169.5,529.336l34.776,36.078a9.02,9.02,0,0,1-.254,12.762l-3.709,3.569a9.039,9.039,0,0,1-12.773-.227L152.76,545.44a9.021,9.021,0,0,1,.254-12.762l3.709-3.569A9.04,9.04,0,0,1,169.5,529.336Z"/>
    <path id="Rounded_Rectangle_2_copy_12" data-name="Rounded Rectangle 2 copy 12" class="cls-29" d="M198.482,722.94l-39.191,31.279a9.066,9.066,0,0,1-12.714-1.413l-3.223-4.01a9,9,0,0,1,1.395-12.674l39.191-31.279a9.067,9.067,0,0,1,12.714,1.413l3.223,4.011A8.995,8.995,0,0,1,198.482,722.94Z"/>
    <path id="Rounded_Rectangle_2_copy_12-2" data-name="Rounded Rectangle 2 copy 12" class="cls-29" d="M208.111,742.655l-43.147,25.594a9.068,9.068,0,0,1-12.4-3.144l-2.639-4.414a8.991,8.991,0,0,1,3.132-12.358L196.2,722.739a9.069,9.069,0,0,1,12.4,3.144l2.64,4.414A8.993,8.993,0,0,1,208.111,742.655Z"/>
    <path id="Rounded_Rectangle_2_copy_12-3" data-name="Rounded Rectangle 2 copy 12" class="cls-29" d="M220.237,760.284l-44,24.164a9.067,9.067,0,0,1-12.291-3.547l-2.489-4.5a8.994,8.994,0,0,1,3.548-12.246l44-24.164a9.067,9.067,0,0,1,12.291,3.547l2.489,4.5A8.994,8.994,0,0,1,220.237,760.284Z"/>
    <path id="Rounded_Rectangle_2_copy_13" data-name="Rounded Rectangle 2 copy 13" class="cls-29" d="M232.213,784.473l-47.139,17.252a9.067,9.067,0,0,1-11.615-5.36l-1.782-4.821a8.994,8.994,0,0,1,5.354-11.571l47.139-17.252a9.067,9.067,0,0,1,11.615,5.361l1.782,4.82A8.994,8.994,0,0,1,232.213,784.473Z"/>
    <path id="Rounded_Rectangle_2_copy_14" data-name="Rounded Rectangle 2 copy 14" class="cls-29" d="M244.213,802.473l-47.139,17.252a9.067,9.067,0,0,1-11.615-5.36l-1.782-4.821a8.994,8.994,0,0,1,5.354-11.571l47.139-17.252a9.067,9.067,0,0,1,11.615,5.361l1.782,4.82A8.994,8.994,0,0,1,244.213,802.473Z"/>
    <path id="Rounded_Rectangle_2_copy_12-4" data-name="Rounded Rectangle 2 copy 12" class="cls-29" d="M106.614,646.047l49.79,6.879a8.993,8.993,0,0,0,10.165-7.7l0.685-5.088a9.07,9.07,0,0,0-7.759-10.175l-49.79-6.88a8.994,8.994,0,0,0-10.165,7.7l-0.685,5.089A9.071,9.071,0,0,0,106.614,646.047Z"/>
    <path id="Rounded_Rectangle_2_copy_12-5" data-name="Rounded Rectangle 2 copy 12" class="cls-29" d="M108.572,667.892l50.236-.021a8.985,8.985,0,0,0,9-9.025l-0.024-5.138a9.079,9.079,0,0,0-9.085-9.018l-50.236.021a8.986,8.986,0,0,0-9,9.026l0.024,5.137A9.079,9.079,0,0,0,108.572,667.892Z"/>
    <path id="Rounded_Rectangle_2_copy_12-6" data-name="Rounded Rectangle 2 copy 12" class="cls-29" d="M116.478,690.935l49.473-8.5a8.98,8.98,0,0,0,7.334-10.421l-0.9-5.063a9.085,9.085,0,0,0-10.476-7.362l-49.473,8.5a8.981,8.981,0,0,0-7.334,10.421L106,683.574A9.084,9.084,0,0,0,116.478,690.935Z"/>
    <path id="Rounded_Rectangle_2_copy_12-7" data-name="Rounded Rectangle 2 copy 12" class="cls-29" d="M125.846,714.274l47.08-17.285a8.982,8.982,0,0,0,5.32-11.58l-1.8-4.822a9.084,9.084,0,0,0-11.629-5.357l-47.08,17.285a8.981,8.981,0,0,0-5.32,11.58l1.8,4.822A9.085,9.085,0,0,0,125.846,714.274Z"/>
    <path id="Rounded_Rectangle_2_copy_12-8" data-name="Rounded Rectangle 2 copy 12" class="cls-29" d="M141.871,734.676l44.219-23.6a8.986,8.986,0,0,0,3.668-12.207l-2.444-4.532a9.079,9.079,0,0,0-12.251-3.712l-44.219,23.6a8.986,8.986,0,0,0-3.668,12.207l2.444,4.532A9.08,9.08,0,0,0,141.871,734.676Z"/>
    <path id="Rounded_Rectangle_2_copy_10-6" data-name="Rounded Rectangle 2 copy 10" class="cls-29" d="M252.234,446.965l-49.923-4.825a9.031,9.031,0,0,0-9.858,8.117l-0.5,5.117a9.022,9.022,0,0,0,8.114,9.854L250,470.054a9.031,9.031,0,0,0,9.857-8.117l0.5-5.117A9.025,9.025,0,0,0,252.234,446.965Z"/>
    <path id="Rounded_Rectangle_2_copy_10-7" data-name="Rounded Rectangle 2 copy 10" class="cls-29" d="M252.318,424.331l-50.154-.576a9.032,9.032,0,0,0-9.134,8.924l-0.061,5.14a9.025,9.025,0,0,0,8.921,9.131l50.154,0.576a9.032,9.032,0,0,0,9.135-8.924l0.06-5.14A9.024,9.024,0,0,0,252.318,424.331Z"/>
    <path id="Rounded_Rectangle_2_copy_15" data-name="Rounded Rectangle 2 copy 15" class="cls-29" d="M253.029,894.922l-47-17.5a9.031,9.031,0,0,0-11.612,5.312l-1.795,4.818a9.026,9.026,0,0,0,5.307,11.611l47,17.5a9.03,9.03,0,0,0,11.612-5.311l1.8-4.818A9.026,9.026,0,0,0,253.029,894.922Z"/>
    <path id="Rounded_Rectangle_2_copy_16" data-name="Rounded Rectangle 2 copy 16" class="cls-29" d="M246.029,914.922l-47-17.5a9.031,9.031,0,0,0-11.612,5.312l-1.795,4.818a9.026,9.026,0,0,0,5.307,11.611l47,17.5a9.03,9.03,0,0,0,11.612-5.311l1.8-4.818A9.026,9.026,0,0,0,246.029,914.922Z"/>
    <path id="Rounded_Rectangle_2_copy_15-2" data-name="Rounded Rectangle 2 copy 15" class="cls-29" d="M254.9,871.3l-49.388-8.714a9.031,9.031,0,0,0-10.461,7.323l-0.895,5.063a9.025,9.025,0,0,0,7.319,10.459l49.388,8.714a9.03,9.03,0,0,0,10.461-7.323l0.9-5.063A9.024,9.024,0,0,0,254.9,871.3Z"/>
    <path id="Rounded_Rectangle_2_copy_15-3" data-name="Rounded Rectangle 2 copy 15" class="cls-29" d="M253.855,849.388l-50.12-1.83a9.032,9.032,0,0,0-9.354,8.693l-0.189,5.138a9.025,9.025,0,0,0,8.689,9.352l50.12,1.83a9.032,9.032,0,0,0,9.354-8.693l0.189-5.138A9.025,9.025,0,0,0,253.855,849.388Z"/>
    <path id="Rounded_Rectangle_2_copy_15-4" data-name="Rounded Rectangle 2 copy 15" class="cls-29" d="M248.38,826.971l-49.71,6.673a9.033,9.033,0,0,0-7.75,10.15l0.682,5.1a9.025,9.025,0,0,0,10.146,7.747l49.71-6.673a9.031,9.031,0,0,0,7.75-10.149l-0.682-5.1A9.025,9.025,0,0,0,248.38,826.971Z"/>
    <path id="Rounded_Rectangle_2_copy_15-5" data-name="Rounded Rectangle 2 copy 15" class="cls-29" d="M243.306,804.913l-48.967,10.863a9.031,9.031,0,0,0-6.861,10.77l1.112,5.019a9.023,9.023,0,0,0,10.766,6.858l48.967-10.863a9.033,9.033,0,0,0,6.861-10.77l-1.112-5.019A9.023,9.023,0,0,0,243.306,804.913Z"/>
    <path id="Rounded_Rectangle_2_copy_10-8" data-name="Rounded Rectangle 2 copy 10" class="cls-29" d="M247.726,402.879l-49.758,6.335a9.031,9.031,0,0,0-7.819,10.1l0.648,5.1a9.024,9.024,0,0,0,10.094,7.815l49.757-6.334a9.031,9.031,0,0,0,7.819-10.1l-0.647-5.1A9.026,9.026,0,0,0,247.726,402.879Z"/>
    <path id="Rounded_Rectangle_2_copy_10-9" data-name="Rounded Rectangle 2 copy 10" class="cls-29" d="M238.683,381.652L190.71,396.309a9.029,9.029,0,0,0-6,11.271l1.5,4.917a9.026,9.026,0,0,0,11.271,6l47.973-14.657a9.029,9.029,0,0,0,6-11.271l-1.5-4.917A9.025,9.025,0,0,0,238.683,381.652Z"/>
  </g>
  <g id="Pipe_2" data-name="Pipe 2">
    <rect id="Rounded_Rectangle_2_copy_9-10" data-name="Rounded Rectangle 2 copy 9" class="cls-30" x="92" y="820" width="23.125" height="68" rx="9" ry="9"/>
    <path id="Rounded_Rectangle_2_copy_9-11" data-name="Rounded Rectangle 2 copy 9" class="cls-29" d="M136.457,833.83l-6.884,49.524a9,9,0,0,1-10.154,7.675l-5.076-.706a9,9,0,0,1-7.675-10.153l6.884-49.524a9,9,0,0,1,10.154-7.675l5.076,0.706A9,9,0,0,1,136.457,833.83Z"/>
    <path id="Rounded_Rectangle_2_copy_9-12" data-name="Rounded Rectangle 2 copy 9" class="cls-29" d="M158.161,844.683L143,892.329a9,9,0,0,1-11.305,5.847l-4.884-1.553a9,9,0,0,1-5.848-11.306l15.16-47.646a9,9,0,0,1,11.305-5.847l4.884,1.553A9,9,0,0,1,158.161,844.683Z"/>
    <path id="Rounded_Rectangle_2_copy_9-13" data-name="Rounded Rectangle 2 copy 9" class="cls-29" d="M177.843,857.736L154.32,901.857a9,9,0,0,1-12.176,3.708l-4.522-2.411a9,9,0,0,1-3.708-12.176l23.523-44.121a9,9,0,0,1,12.175-3.708l4.523,2.411A9,9,0,0,1,177.843,857.736Z"/>
    <path id="Rounded_Rectangle_2_copy_9-14" data-name="Rounded Rectangle 2 copy 9" class="cls-29" d="M194.394,872.034L165.021,912.5a9,9,0,0,1-12.571,2l-4.147-3.011a9,9,0,0,1-2-12.57l29.373-40.463a9,9,0,0,1,12.571-2l4.147,3.011A9,9,0,0,1,194.394,872.034Z"/>
    <path id="Rounded_Rectangle_2_copy_9-15" data-name="Rounded Rectangle 2 copy 9" class="cls-29" d="M208.617,890.115l-35.793,34.913a9,9,0,0,1-12.727-.159l-3.578-3.669a9,9,0,0,1,.158-12.727l35.793-34.912a9,9,0,0,1,12.727.159l3.579,3.668A9,9,0,0,1,208.617,890.115Z"/>
    <path id="Rounded_Rectangle_2_copy_9-16" data-name="Rounded Rectangle 2 copy 9" class="cls-29" d="M222.806,907.662l-38.624,31.752a9,9,0,0,1-12.668-1.237l-3.255-3.959A9,9,0,0,1,169.5,921.55L208.12,889.8a9,9,0,0,1,12.668,1.237l3.254,3.959A9,9,0,0,1,222.806,907.662Z"/>
    <path id="Rounded_Rectangle_2_copy_9-17" data-name="Rounded Rectangle 2 copy 9" class="cls-29" d="M232.621,927.207l-42.627,26.132a9,9,0,0,1-12.377-2.969L174.938,946a9,9,0,0,1,2.969-12.377l42.628-26.132a9,9,0,0,1,12.377,2.969l2.678,4.37A9,9,0,0,1,232.621,927.207Z"/>
    <path id="Rounded_Rectangle_2_copy_9-18" data-name="Rounded Rectangle 2 copy 9" class="cls-29" d="M238.837,949.357L192.4,967.9a9,9,0,0,1-11.7-5.02l-1.9-4.759a9,9,0,0,1,5.019-11.7l46.433-18.546a9,9,0,0,1,11.7,5.019l1.9,4.76A9,9,0,0,1,238.837,949.357Z"/>
    <path id="Rounded_Rectangle_2_copy_10-10" data-name="Rounded Rectangle 2 copy 10" class="cls-29" d="M217.459,1120.48l-31.393-39.1a9.028,9.028,0,0,0-12.692-1.39l-4.009,3.22a9.025,9.025,0,0,0-1.391,12.69l31.392,39.11a9.027,9.027,0,0,0,12.692,1.38l4.01-3.22A9.025,9.025,0,0,0,217.459,1120.48Z"/>
    <path id="Rounded_Rectangle_2_copy_10-11" data-name="Rounded Rectangle 2 copy 10" class="cls-29" d="M231.116,1103.31l-36.479-34.41a9.028,9.028,0,0,0-12.763.37l-3.528,3.74a9.025,9.025,0,0,0,.369,12.76l36.48,34.41a9.026,9.026,0,0,0,12.762-.37l3.529-3.74A9.026,9.026,0,0,0,231.116,1103.31Z"/>
    <path id="Rounded_Rectangle_2_copy_10-12" data-name="Rounded Rectangle 2 copy 10" class="cls-29" d="M241.283,1081.19l-41.776-27.75a9.041,9.041,0,0,0-12.516,2.53l-2.845,4.28a9.031,9.031,0,0,0,2.523,12.52l41.775,27.74a9.029,9.029,0,0,0,12.516-2.52l2.846-4.29A9.022,9.022,0,0,0,241.283,1081.19Z"/>
    <path id="Rounded_Rectangle_2_copy_10-13" data-name="Rounded Rectangle 2 copy 10" class="cls-29" d="M248.486,1058.62l-46.1-19.74a9.037,9.037,0,0,0-11.854,4.75l-2.024,4.73a9.023,9.023,0,0,0,4.743,11.85l46.1,19.73a9.032,9.032,0,0,0,11.854-4.74l2.025-4.73A9.025,9.025,0,0,0,248.486,1058.62Z"/>
    <path id="Rounded_Rectangle_2_copy_10-14" data-name="Rounded Rectangle 2 copy 10" class="cls-29" d="M252.459,1037.04l-48.386-13.2a9.037,9.037,0,0,0-11.088,6.34l-1.354,4.96a9.018,9.018,0,0,0,6.331,11.08l48.385,13.2a9.029,9.029,0,0,0,11.088-6.34l1.354-4.95A9.028,9.028,0,0,0,252.459,1037.04Z"/>
    <path id="Rounded_Rectangle_2_copy_11-6" data-name="Rounded Rectangle 2 copy 11" class="cls-29" d="M112.941,1167.09l49.4,8.74a9,9,0,0,1,7.3,10.46l-0.907,5.06a9.051,9.051,0,0,1-10.486,7.31l-49.4-8.74a9,9,0,0,1-7.3-10.46l0.908-5.06A9.05,9.05,0,0,1,112.941,1167.09Z"/>
    <path id="Rounded_Rectangle_2_copy_11-7" data-name="Rounded Rectangle 2 copy 11" class="cls-29" d="M121.491,1146.87l47.712,15.45a9.009,9.009,0,0,1,5.785,11.37l-1.6,4.89a9.051,9.051,0,0,1-11.391,5.8l-47.712-15.45a9.009,9.009,0,0,1-5.785-11.37l1.6-4.89A9.051,9.051,0,0,1,121.491,1146.87Z"/>
    <path id="Rounded_Rectangle_2_copy_11-8" data-name="Rounded Rectangle 2 copy 11" class="cls-29" d="M136.057,1127.33l44.391,23.3a9.012,9.012,0,0,1,3.776,12.19l-2.4,4.55a9.062,9.062,0,0,1-12.206,3.8l-44.391-23.3a9.015,9.015,0,0,1-3.776-12.19l2.4-4.55A9.062,9.062,0,0,1,136.057,1127.33Z"/>
    <path id="Rounded_Rectangle_2_copy_11-9" data-name="Rounded Rectangle 2 copy 11" class="cls-29" d="M152.439,1110.18l39.428,30.94a9.014,9.014,0,0,1,1.507,12.67l-3.183,4.05a9.053,9.053,0,0,1-12.687,1.53l-39.428-30.94a9.014,9.014,0,0,1-1.507-12.67l3.183-4.05A9.044,9.044,0,0,1,152.439,1110.18Z"/>
    <path id="Rounded_Rectangle_2_copy_11-10" data-name="Rounded Rectangle 2 copy 11" class="cls-29" d="M169.5,1096.34l34.776,36.07a9.03,9.03,0,0,1-.254,12.77l-3.709,3.56a9.037,9.037,0,0,1-12.773-.22l-34.777-36.08a9.018,9.018,0,0,1,.254-12.76l3.709-3.57A9.038,9.038,0,0,1,169.5,1096.34Z"/>
    <path id="Rounded_Rectangle_2_copy_12-9" data-name="Rounded Rectangle 2 copy 12" class="cls-29" d="M198.482,1289.94l-39.191,31.28a9.066,9.066,0,0,1-12.714-1.41l-3.223-4.01a9,9,0,0,1,1.395-12.68l39.191-31.28a9.067,9.067,0,0,1,12.714,1.42l3.223,4.01A8.991,8.991,0,0,1,198.482,1289.94Z"/>
    <path id="Rounded_Rectangle_2_copy_12-10" data-name="Rounded Rectangle 2 copy 12" class="cls-29" d="M208.111,1309.66l-43.147,25.59a9.066,9.066,0,0,1-12.4-3.15l-2.639-4.41a9,9,0,0,1,3.132-12.36l43.146-25.59a9.063,9.063,0,0,1,12.4,3.14l2.64,4.42A9,9,0,0,1,208.111,1309.66Z"/>
    <path id="Rounded_Rectangle_2_copy_12-11" data-name="Rounded Rectangle 2 copy 12" class="cls-29" d="M220.237,1327.28l-44,24.17a9.071,9.071,0,0,1-12.291-3.55l-2.489-4.5a8.987,8.987,0,0,1,3.548-12.24l44-24.17a9.071,9.071,0,0,1,12.291,3.55l2.489,4.5A8.987,8.987,0,0,1,220.237,1327.28Z"/>
    <path id="Rounded_Rectangle_2_copy_13-2" data-name="Rounded Rectangle 2 copy 13" class="cls-29" d="M232.213,1351.47l-47.139,17.25a9.059,9.059,0,0,1-11.615-5.36l-1.782-4.82a9,9,0,0,1,5.354-11.57l47.139-17.25a9.075,9.075,0,0,1,11.615,5.36l1.782,4.82A8.989,8.989,0,0,1,232.213,1351.47Z"/>
    <path id="Rounded_Rectangle_2_copy_14-2" data-name="Rounded Rectangle 2 copy 14" class="cls-29" d="M244.213,1369.47l-47.139,17.25a9.059,9.059,0,0,1-11.615-5.36l-1.782-4.82a9,9,0,0,1,5.354-11.57l47.139-17.25a9.075,9.075,0,0,1,11.615,5.36l1.782,4.82A8.989,8.989,0,0,1,244.213,1369.47Z"/>
    <path id="Rounded_Rectangle_2_copy_17" data-name="Rounded Rectangle 2 copy 17" class="cls-29" d="M250.6,1391.44l-49.136,10.25a9.062,9.062,0,0,1-10.719-6.98l-1.067-5.03a8.992,8.992,0,0,1,6.971-10.67l49.136-10.26a9.07,9.07,0,0,1,10.719,6.98l1.067,5.03A9,9,0,0,1,250.6,1391.44Z"/>
    <path id="Rounded_Rectangle_2_copy_18" data-name="Rounded Rectangle 2 copy 18" class="cls-29" d="M253.556,1414.9l-50.054,3.76a9.062,9.062,0,0,1-9.717-8.32l-0.4-5.12a9,9,0,0,1,8.3-9.68l50.054-3.76a9.07,9.07,0,0,1,9.717,8.32l0.4,5.12A9,9,0,0,1,253.556,1414.9Z"/>
    <path id="Rounded_Rectangle_2_copy_12-12" data-name="Rounded Rectangle 2 copy 12" class="cls-29" d="M106.614,1213.05l49.79,6.88a9,9,0,0,0,10.165-7.7l0.685-5.09a9.06,9.06,0,0,0-7.759-10.17l-49.79-6.88a8.988,8.988,0,0,0-10.165,7.69l-0.685,5.09A9.076,9.076,0,0,0,106.614,1213.05Z"/>
    <path id="Rounded_Rectangle_2_copy_12-13" data-name="Rounded Rectangle 2 copy 12" class="cls-29" d="M108.572,1234.89l50.236-.02a8.981,8.981,0,0,0,9-9.02l-0.024-5.14a9.084,9.084,0,0,0-9.085-9.02l-50.236.02a8.983,8.983,0,0,0-9,9.03l0.024,5.13A9.077,9.077,0,0,0,108.572,1234.89Z"/>
    <path id="Rounded_Rectangle_2_copy_12-14" data-name="Rounded Rectangle 2 copy 12" class="cls-29" d="M116.478,1257.94l49.473-8.5a8.982,8.982,0,0,0,7.334-10.42l-0.9-5.06a9.086,9.086,0,0,0-10.476-7.37l-49.473,8.5a8.978,8.978,0,0,0-7.334,10.42l0.895,5.06A9.094,9.094,0,0,0,116.478,1257.94Z"/>
    <path id="Rounded_Rectangle_2_copy_12-15" data-name="Rounded Rectangle 2 copy 12" class="cls-29" d="M125.846,1281.27l47.08-17.28a8.981,8.981,0,0,0,5.32-11.58l-1.8-4.82a9.081,9.081,0,0,0-11.629-5.36l-47.08,17.29a8.977,8.977,0,0,0-5.32,11.58l1.8,4.82A9.086,9.086,0,0,0,125.846,1281.27Z"/>
    <path id="Rounded_Rectangle_2_copy_12-16" data-name="Rounded Rectangle 2 copy 12" class="cls-29" d="M141.871,1301.68l44.219-23.6a8.989,8.989,0,0,0,3.668-12.21l-2.444-4.53a9.071,9.071,0,0,0-12.251-3.71l-44.219,23.59a8.992,8.992,0,0,0-3.668,12.21l2.444,4.53A9.084,9.084,0,0,0,141.871,1301.68Z"/>
    <path id="Rounded_Rectangle_2_copy_10-15" data-name="Rounded Rectangle 2 copy 10" class="cls-29" d="M252.234,1013.97l-49.923-4.83a9.028,9.028,0,0,0-9.858,8.12l-0.5,5.11a9.025,9.025,0,0,0,8.114,9.86L250,1037.05a9.027,9.027,0,0,0,9.857-8.11l0.5-5.12A9.023,9.023,0,0,0,252.234,1013.97Z"/>
    <path id="Rounded_Rectangle_2_copy_10-16" data-name="Rounded Rectangle 2 copy 10" class="cls-29" d="M252.318,991.331l-50.154-.576a9.032,9.032,0,0,0-9.134,8.924l-0.061,5.141a9.029,9.029,0,0,0,8.921,9.13l50.154,0.58a9.04,9.04,0,0,0,9.135-8.93l0.06-5.14A9.023,9.023,0,0,0,252.318,991.331Z"/>
    <path id="Rounded_Rectangle_2_copy_10-17" data-name="Rounded Rectangle 2 copy 10" class="cls-29" d="M247.726,969.879l-49.758,6.335a9.031,9.031,0,0,0-7.819,10.095l0.648,5.1a9.024,9.024,0,0,0,10.094,7.815l49.757-6.334a9.031,9.031,0,0,0,7.819-10.1l-0.647-5.1A9.026,9.026,0,0,0,247.726,969.879Z"/>
    <path id="Rounded_Rectangle_2_copy_10-18" data-name="Rounded Rectangle 2 copy 10" class="cls-29" d="M238.683,948.652L190.71,963.309a9.029,9.029,0,0,0-6,11.271l1.5,4.917a9.026,9.026,0,0,0,11.271,6l47.973-14.657a9.029,9.029,0,0,0,6-11.271l-1.5-4.917A9.025,9.025,0,0,0,238.683,948.652Z"/>
  </g>
  <g id="Pipe_5" data-name="Pipe 5">
    <rect id="Rounded_Rectangle_2_copy_9-19" data-name="Rounded Rectangle 2 copy 9" class="cls-30" x="92" y="2531.03" width="23.188" height="67.97" rx="9" ry="9"/>
    <path id="Rounded_Rectangle_2_copy_9-20" data-name="Rounded Rectangle 2 copy 9" class="cls-29" d="M136.571,2585.18l-6.9-49.51A9.013,9.013,0,0,0,119.49,2528l-5.089.7a9.006,9.006,0,0,0-7.695,10.15l6.9,49.51a9.021,9.021,0,0,0,10.18,7.67l5.089-.71A8.991,8.991,0,0,0,136.571,2585.18Z"/>
    <path id="Rounded_Rectangle_2_copy_9-21" data-name="Rounded Rectangle 2 copy 9" class="cls-29" d="M158.33,2574.33l-15.2-47.63a9.033,9.033,0,0,0-11.335-5.85l-4.9,1.56a8.985,8.985,0,0,0-5.862,11.3l15.2,47.63a9.027,9.027,0,0,0,11.335,5.84l4.9-1.55A8.993,8.993,0,0,0,158.33,2574.33Z"/>
    <path id="Rounded_Rectangle_2_copy_9-22" data-name="Rounded Rectangle 2 copy 9" class="cls-29" d="M178.063,2561.28l-23.583-44.11a9.036,9.036,0,0,0-12.207-3.7l-4.534,2.41a8.979,8.979,0,0,0-3.718,12.17l23.583,44.1a9.032,9.032,0,0,0,12.208,3.71l4.534-2.41A8.984,8.984,0,0,0,178.063,2561.28Z"/>
    <path id="Rounded_Rectangle_2_copy_9-23" data-name="Rounded Rectangle 2 copy 9" class="cls-29" d="M194.657,2546.99l-29.449-40.45a9.04,9.04,0,0,0-12.6-2l-4.159,3.01a8.986,8.986,0,0,0-2,12.57l29.449,40.45a9.039,9.039,0,0,0,12.6,1.99l4.158-3.01A8.974,8.974,0,0,0,194.657,2546.99Z"/>
    <path id="Rounded_Rectangle_2_copy_9-24" data-name="Rounded Rectangle 2 copy 9" class="cls-29" d="M208.916,2528.91l-35.884-34.9a9.039,9.039,0,0,0-12.76.16l-3.588,3.67a8.976,8.976,0,0,0,.159,12.72l35.885,34.9a9.039,9.039,0,0,0,12.76-.16l3.587-3.67A8.975,8.975,0,0,0,208.916,2528.91Z"/>
    <path id="Rounded_Rectangle_2_copy_9-25" data-name="Rounded Rectangle 2 copy 9" class="cls-29" d="M223.141,2511.37l-38.723-31.74a9.036,9.036,0,0,0-12.7,1.24l-3.263,3.95a8.987,8.987,0,0,0,1.24,12.67l38.723,31.74a9.045,9.045,0,0,0,12.7-1.24l3.263-3.96A8.975,8.975,0,0,0,223.141,2511.37Z"/>
    <path id="Rounded_Rectangle_2_copy_9-26" data-name="Rounded Rectangle 2 copy 9" class="cls-29" d="M232.982,2491.83l-42.737-26.12a9.033,9.033,0,0,0-12.409,2.97l-2.685,4.37a8.98,8.98,0,0,0,2.977,12.37l42.737,26.12a9.032,9.032,0,0,0,12.408-2.97l2.686-4.37A8.982,8.982,0,0,0,232.982,2491.83Z"/>
    <path id="Rounded_Rectangle_2_copy_9-27" data-name="Rounded Rectangle 2 copy 9" class="cls-29" d="M239.214,2469.69l-46.552-18.54a9.032,9.032,0,0,0-11.727,5.02l-1.906,4.76a8.99,8.99,0,0,0,5.033,11.69l46.552,18.54a9.039,9.039,0,0,0,11.726-5.02l1.906-4.76A8.987,8.987,0,0,0,239.214,2469.69Z"/>
    <path id="Rounded_Rectangle_2_copy_10-19" data-name="Rounded Rectangle 2 copy 10" class="cls-29" d="M217.781,2298.63l-31.473,39.09a9.075,9.075,0,0,1-12.725,1.38l-4.02-3.21a9.01,9.01,0,0,1-1.394-12.69l31.473-39.09a9.066,9.066,0,0,1,12.724-1.39l4.02,3.22A9.011,9.011,0,0,1,217.781,2298.63Z"/>
    <path id="Rounded_Rectangle_2_copy_10-20" data-name="Rounded Rectangle 2 copy 10" class="cls-29" d="M231.473,2315.8L194.9,2350.19a9.066,9.066,0,0,1-12.8-.37l-3.538-3.74a9.008,9.008,0,0,1,.371-12.76l36.573-34.39a9.066,9.066,0,0,1,12.8.37l3.538,3.74A9.01,9.01,0,0,1,231.473,2315.8Z"/>
    <path id="Rounded_Rectangle_2_copy_10-21" data-name="Rounded Rectangle 2 copy 10" class="cls-29" d="M241.666,2337.91l-41.883,27.73a9.06,9.06,0,0,1-12.548-2.53l-2.853-4.28a9.008,9.008,0,0,1,2.529-12.51l41.883-27.73a9.06,9.06,0,0,1,12.548,2.53l2.853,4.28A9.008,9.008,0,0,1,241.666,2337.91Z"/>
    <path id="Rounded_Rectangle_2_copy_10-22" data-name="Rounded Rectangle 2 copy 10" class="cls-29" d="M248.887,2360.47l-46.223,19.73a9.068,9.068,0,0,1-11.884-4.75l-2.03-4.72a9.012,9.012,0,0,1,4.756-11.85l46.223-19.73a9.07,9.07,0,0,1,11.885,4.75l2.029,4.72A9.015,9.015,0,0,1,248.887,2360.47Z"/>
    <path id="Rounded_Rectangle_2_copy_10-23" data-name="Rounded Rectangle 2 copy 10" class="cls-29" d="M252.87,2382.04l-48.509,13.19a9.058,9.058,0,0,1-11.117-6.33l-1.358-4.96a9.016,9.016,0,0,1,6.347-11.08l48.51-13.19a9.056,9.056,0,0,1,11.116,6.33l1.358,4.96A9.015,9.015,0,0,1,252.87,2382.04Z"/>
    <path id="Rounded_Rectangle_2_copy_11-11" data-name="Rounded Rectangle 2 copy 11" class="cls-29" d="M113,2252.04l49.528-8.74a9,9,0,0,0,7.317-10.45l-0.91-5.06a9.071,9.071,0,0,0-10.512-7.31l-49.529,8.73a9.006,9.006,0,0,0-7.317,10.46l0.91,5.06A9.071,9.071,0,0,0,113,2252.04Z"/>
    <path id="Rounded_Rectangle_2_copy_11-12" data-name="Rounded Rectangle 2 copy 11" class="cls-29" d="M121.566,2272.25L169.4,2256.8a8.99,8.99,0,0,0,5.8-11.36l-1.6-4.89a9.079,9.079,0,0,0-11.42-5.8l-47.835,15.45a8.994,8.994,0,0,0-5.8,11.36l1.6,4.89A9.079,9.079,0,0,0,121.566,2272.25Z"/>
    <path id="Rounded_Rectangle_2_copy_11-13" data-name="Rounded Rectangle 2 copy 11" class="cls-29" d="M136.17,2291.78l44.505-23.29a8.992,8.992,0,0,0,3.785-12.18l-2.406-4.55a9.1,9.1,0,0,0-12.237-3.8l-44.505,23.29a8.992,8.992,0,0,0-3.785,12.18l2.406,4.55A9.078,9.078,0,0,0,136.17,2291.78Z"/>
    <path id="Rounded_Rectangle_2_copy_11-14" data-name="Rounded Rectangle 2 copy 11" class="cls-29" d="M152.594,2308.93L192.123,2278a9,9,0,0,0,1.511-12.67l-3.191-4.04a9.082,9.082,0,0,0-12.719-1.53L138.2,2290.69a8.984,8.984,0,0,0-1.512,12.66l3.192,4.04A9.083,9.083,0,0,0,152.594,2308.93Z"/>
    <path id="Rounded_Rectangle_2_copy_11-15" data-name="Rounded Rectangle 2 copy 11" class="cls-29" d="M169.7,2322.77l34.866-36.07a9,9,0,0,0-.254-12.76l-3.719-3.56a9.086,9.086,0,0,0-12.806.22l-34.866,36.07a8.99,8.99,0,0,0,.254,12.75l3.719,3.57A9.086,9.086,0,0,0,169.7,2322.77Z"/>
    <path id="Rounded_Rectangle_2_copy_12-17" data-name="Rounded Rectangle 2 copy 12" class="cls-29" d="M198.755,2129.23l-39.291-31.27a9.116,9.116,0,0,0-12.747,1.42l-3.231,4.01a8.963,8.963,0,0,0,1.4,12.66l39.291,31.27a9.105,9.105,0,0,0,12.747-1.41l3.231-4.01A8.975,8.975,0,0,0,198.755,2129.23Z"/>
    <path id="Rounded_Rectangle_2_copy_12-18" data-name="Rounded Rectangle 2 copy 12" class="cls-29" d="M208.408,2109.52l-43.257-25.58a9.109,9.109,0,0,0-12.433,3.14l-2.646,4.41a8.984,8.984,0,0,0,3.14,12.36l43.258,25.58a9.1,9.1,0,0,0,12.432-3.14l2.646-4.41A8.982,8.982,0,0,0,208.408,2109.52Z"/>
    <path id="Rounded_Rectangle_2_copy_12-19" data-name="Rounded Rectangle 2 copy 12" class="cls-29" d="M220.566,2091.9l-44.11-24.15a9.094,9.094,0,0,0-12.322,3.54l-2.5,4.5a8.975,8.975,0,0,0,3.557,12.24l44.11,24.15a9.1,9.1,0,0,0,12.323-3.54l2.5-4.5A8.974,8.974,0,0,0,220.566,2091.9Z"/>
    <path id="Rounded_Rectangle_2_copy_13-3" data-name="Rounded Rectangle 2 copy 13" class="cls-29" d="M232.572,2067.72l-47.259-17.24a9.092,9.092,0,0,0-11.645,5.35l-1.787,4.82a8.983,8.983,0,0,0,5.369,11.57l47.259,17.24a9.092,9.092,0,0,0,11.645-5.35l1.787-4.82A8.988,8.988,0,0,0,232.572,2067.72Z"/>
    <path id="Rounded_Rectangle_2_copy_14-3" data-name="Rounded Rectangle 2 copy 14" class="cls-29" d="M244.6,2049.73l-47.259-17.25a9.105,9.105,0,0,0-11.645,5.36l-1.787,4.82a8.991,8.991,0,0,0,5.368,11.57l47.259,17.24a9.089,9.089,0,0,0,11.645-5.36l1.787-4.82A8.975,8.975,0,0,0,244.6,2049.73Z"/>
    <path id="Rounded_Rectangle_2_copy_12-20" data-name="Rounded Rectangle 2 copy 12" class="cls-29" d="M106.651,2206.1l49.918-6.88a9.014,9.014,0,0,1,10.191,7.69l0.687,5.09a9.065,9.065,0,0,1-7.779,10.17l-49.918,6.88a9.014,9.014,0,0,1-10.191-7.7l-0.687-5.08A9.065,9.065,0,0,1,106.651,2206.1Z"/>
    <path id="Rounded_Rectangle_2_copy_12-21" data-name="Rounded Rectangle 2 copy 12" class="cls-29" d="M108.615,2184.26l50.365,0.02A8.993,8.993,0,0,1,168,2193.3l-0.024,5.14a9.088,9.088,0,0,1-9.109,9.01l-50.365-.02a8.993,8.993,0,0,1-9.023-9.02l0.024-5.14A9.087,9.087,0,0,1,108.615,2184.26Z"/>
    <path id="Rounded_Rectangle_2_copy_12-22" data-name="Rounded Rectangle 2 copy 12" class="cls-29" d="M116.541,2161.22l49.6,8.5a8.975,8.975,0,0,1,7.353,10.41l-0.9,5.07a9.117,9.117,0,0,1-10.5,7.36l-49.6-8.5a8.979,8.979,0,0,1-7.353-10.42l0.9-5.06A9.109,9.109,0,0,1,116.541,2161.22Z"/>
    <path id="Rounded_Rectangle_2_copy_12-23" data-name="Rounded Rectangle 2 copy 12" class="cls-29" d="M125.932,2137.89l47.2,17.28a8.974,8.974,0,0,1,5.334,11.58l-1.8,4.82a9.115,9.115,0,0,1-11.659,5.35l-47.2-17.27a8.978,8.978,0,0,1-5.334-11.58l1.8-4.82A9.12,9.12,0,0,1,125.932,2137.89Z"/>
    <path id="Rounded_Rectangle_2_copy_12-24" data-name="Rounded Rectangle 2 copy 12" class="cls-29" d="M142,2117.5l44.332,23.59a8.967,8.967,0,0,1,3.678,12.2l-2.45,4.53a9.107,9.107,0,0,1-12.283,3.71l-44.332-23.59a8.963,8.963,0,0,1-3.677-12.2l2.45-4.53A9.124,9.124,0,0,1,142,2117.5Z"/>
    <path id="Rounded_Rectangle_2_copy_10-24" data-name="Rounded Rectangle 2 copy 10" class="cls-29" d="M252.645,2405.11l-50.051,4.82a9.045,9.045,0,0,1-9.883-8.12l-0.5-5.11a9.029,9.029,0,0,1,8.136-9.85l50.051-4.82a9.045,9.045,0,0,1,9.883,8.11l0.5,5.11A9.031,9.031,0,0,1,252.645,2405.11Z"/>
    <path id="Rounded_Rectangle_2_copy_10-25" data-name="Rounded Rectangle 2 copy 10" class="cls-29" d="M252.729,2427.73l-50.282.58a9.049,9.049,0,0,1-9.158-8.92l-0.061-5.14a9.034,9.034,0,0,1,8.944-9.13l50.283-.57a9.038,9.038,0,0,1,9.158,8.92l0.06,5.13A9.033,9.033,0,0,1,252.729,2427.73Z"/>
    <path id="Rounded_Rectangle_2_copy_15-6" data-name="Rounded Rectangle 2 copy 15" class="cls-29" d="M253.442,1957.31l-47.118,17.49a9.056,9.056,0,0,1-11.641-5.3l-1.8-4.82a9.02,9.02,0,0,1,5.321-11.61l47.117-17.49a9.062,9.062,0,0,1,11.642,5.31l1.8,4.82A9.008,9.008,0,0,1,253.442,1957.31Z"/>
    <path id="Rounded_Rectangle_2_copy_16-2" data-name="Rounded Rectangle 2 copy 16" class="cls-29" d="M246.424,1937.32l-47.118,17.49a9.061,9.061,0,0,1-11.641-5.31l-1.8-4.81a9.02,9.02,0,0,1,5.321-11.61l47.117-17.49a9.062,9.062,0,0,1,11.642,5.31l1.8,4.81A9.02,9.02,0,0,1,246.424,1937.32Z"/>
    <path id="Rounded_Rectangle_2_copy_15-7" data-name="Rounded Rectangle 2 copy 15" class="cls-29" d="M255.319,1980.92l-49.515,8.71a9.048,9.048,0,0,1-10.488-7.32l-0.9-5.06a9.015,9.015,0,0,1,7.338-10.45l49.515-8.71a9.048,9.048,0,0,1,10.488,7.32l0.9,5.06A9.014,9.014,0,0,1,255.319,1980.92Z"/>
    <path id="Rounded_Rectangle_2_copy_15-8" data-name="Rounded Rectangle 2 copy 15" class="cls-29" d="M254.27,2002.83l-50.248,1.83a9.046,9.046,0,0,1-9.378-8.69l-0.19-5.14a9.024,9.024,0,0,1,8.712-9.34l50.248-1.83a9.033,9.033,0,0,1,9.378,8.69l0.189,5.13A9.033,9.033,0,0,1,254.27,2002.83Z"/>
    <path id="Rounded_Rectangle_2_copy_15-9" data-name="Rounded Rectangle 2 copy 15" class="cls-29" d="M248.781,2025.24l-49.838-6.67a9.041,9.041,0,0,1-7.769-10.15l0.684-5.09a9.049,9.049,0,0,1,10.172-7.75l49.837,6.68a9.026,9.026,0,0,1,7.77,10.14l-0.684,5.09A9.05,9.05,0,0,1,248.781,2025.24Z"/>
    <path id="Rounded_Rectangle_2_copy_15-10" data-name="Rounded Rectangle 2 copy 15" class="cls-29" d="M243.694,2047.29L194.6,2036.43a9.031,9.031,0,0,1-6.879-10.77l1.114-5.01a9.047,9.047,0,0,1,10.794-6.86l49.093,10.86a9.031,9.031,0,0,1,6.879,10.77l-1.115,5.01A9.047,9.047,0,0,1,243.694,2047.29Z"/>
    <path id="Rounded_Rectangle_2_copy_10-26" data-name="Rounded Rectangle 2 copy 10" class="cls-29" d="M248.125,2449.18l-49.885-6.34a9.028,9.028,0,0,1-7.839-10.09l0.649-5.1a9.044,9.044,0,0,1,10.12-7.81l49.885,6.33a9.038,9.038,0,0,1,7.839,10.1l-0.649,5.09A9.051,9.051,0,0,1,248.125,2449.18Z"/>
    <path id="Rounded_Rectangle_2_copy_10-27" data-name="Rounded Rectangle 2 copy 10" class="cls-29" d="M239.059,2470.4l-48.1-14.66a9.015,9.015,0,0,1-6.015-11.26l1.5-4.92a9.046,9.046,0,0,1,11.3-5.99l48.1,14.65a9.026,9.026,0,0,1,6.015,11.27l-1.5,4.91A9.059,9.059,0,0,1,239.059,2470.4Z"/>
  </g>
  <g id="Pipe_4" data-name="Pipe 4">
    <rect id="Rounded_Rectangle_2_copy_9-28" data-name="Rounded Rectangle 2 copy 9" class="cls-30" x="92" y="1958.97" width="23.156" height="68.03" rx="9" ry="9"/>
    <path id="Rounded_Rectangle_2_copy_9-29" data-name="Rounded Rectangle 2 copy 9" class="cls-29" d="M136.49,2013.16l-6.889-49.55a9.015,9.015,0,0,0-10.161-7.68l-5.08.71a9,9,0,0,0-7.681,10.16l6.889,49.55a9.015,9.015,0,0,0,10.161,7.68l5.08-.71A9,9,0,0,0,136.49,2013.16Z"/>
    <path id="Rounded_Rectangle_2_copy_9-30" data-name="Rounded Rectangle 2 copy 9" class="cls-29" d="M158.209,2002.3l-15.171-47.67a9,9,0,0,0-11.313-5.85l-4.888,1.56a9,9,0,0,0-5.851,11.31l15.171,47.67a9,9,0,0,0,11.313,5.85l4.888-1.55A9.013,9.013,0,0,0,158.209,2002.3Z"/>
    <path id="Rounded_Rectangle_2_copy_9-31" data-name="Rounded Rectangle 2 copy 9" class="cls-29" d="M177.906,1989.24l-23.54-44.14a9.006,9.006,0,0,0-12.185-3.71l-4.526,2.41a9.013,9.013,0,0,0-3.71,12.19l23.54,44.14a9.006,9.006,0,0,0,12.185,3.71l4.525-2.41A9.012,9.012,0,0,0,177.906,1989.24Z"/>
    <path id="Rounded_Rectangle_2_copy_9-32" data-name="Rounded Rectangle 2 copy 9" class="cls-29" d="M194.469,1974.94l-29.394-40.48a9.005,9.005,0,0,0-12.58-2l-4.151,3.01a9.006,9.006,0,0,0-2,12.58l29.395,40.48a9.005,9.005,0,0,0,12.58,2l4.15-3.01A9.008,9.008,0,0,0,194.469,1974.94Z"/>
    <path id="Rounded_Rectangle_2_copy_9-33" data-name="Rounded Rectangle 2 copy 9" class="cls-29" d="M208.7,1956.85l-35.819-34.93a9.011,9.011,0,0,0-12.737.16l-3.581,3.67a9,9,0,0,0,.159,12.73l35.819,34.93a9.011,9.011,0,0,0,12.737-.16l3.581-3.67A9,9,0,0,0,208.7,1956.85Z"/>
    <path id="Rounded_Rectangle_2_copy_9-34" data-name="Rounded Rectangle 2 copy 9" class="cls-29" d="M222.9,1939.29l-38.652-31.77a9.017,9.017,0,0,0-12.677,1.24l-3.257,3.96a9.011,9.011,0,0,0,1.237,12.68l38.653,31.77a9.017,9.017,0,0,0,12.677-1.24l3.257-3.96A9.012,9.012,0,0,0,222.9,1939.29Z"/>
    <path id="Rounded_Rectangle_2_copy_9-35" data-name="Rounded Rectangle 2 copy 9" class="cls-29" d="M232.725,1919.74l-42.659-26.15a9.007,9.007,0,0,0-12.386,2.97L175,1900.93a9.012,9.012,0,0,0,2.972,12.39l42.659,26.14a9.007,9.007,0,0,0,12.386-2.97l2.68-4.37A9,9,0,0,0,232.725,1919.74Z"/>
    <path id="Rounded_Rectangle_2_copy_9-36" data-name="Rounded Rectangle 2 copy 9" class="cls-29" d="M238.945,1897.58l-46.467-18.56a9,9,0,0,0-11.705,5.02l-1.9,4.76a9.014,9.014,0,0,0,5.024,11.71l46.467,18.55a9,9,0,0,0,11.705-5.02l1.9-4.76A9,9,0,0,0,238.945,1897.58Z"/>
    <path id="Rounded_Rectangle_2_copy_10-28" data-name="Rounded Rectangle 2 copy 10" class="cls-29" d="M217.551,1726.36l-31.415,39.13a9.029,9.029,0,0,1-12.7,1.38l-4.012-3.22a9.033,9.033,0,0,1-1.392-12.7l31.415-39.12a9.04,9.04,0,0,1,12.7-1.39l4.012,3.22A9.034,9.034,0,0,1,217.551,1726.36Z"/>
    <path id="Rounded_Rectangle_2_copy_10-29" data-name="Rounded Rectangle 2 copy 10" class="cls-29" d="M231.218,1743.54l-36.506,34.43a9.038,9.038,0,0,1-12.772-.37l-3.531-3.74a9.032,9.032,0,0,1,.37-12.77l36.506-34.43a9.038,9.038,0,0,1,12.772.37l3.531,3.75A9.02,9.02,0,0,1,231.218,1743.54Z"/>
    <path id="Rounded_Rectangle_2_copy_10-30" data-name="Rounded Rectangle 2 copy 10" class="cls-29" d="M241.393,1765.68l-41.807,27.75a9.04,9.04,0,0,1-12.525-2.52l-2.847-4.29a9.027,9.027,0,0,1,2.524-12.52l41.807-27.76a9.034,9.034,0,0,1,12.525,2.53l2.847,4.28A9.039,9.039,0,0,1,241.393,1765.68Z"/>
    <path id="Rounded_Rectangle_2_copy_10-31" data-name="Rounded Rectangle 2 copy 10" class="cls-29" d="M248.6,1788.26L202.462,1808a9.029,9.029,0,0,1-11.863-4.75l-2.025-4.73a9.021,9.021,0,0,1,4.747-11.85l46.139-19.75a9.037,9.037,0,0,1,11.862,4.75l2.026,4.73A9.032,9.032,0,0,1,248.6,1788.26Z"/>
    <path id="Rounded_Rectangle_2_copy_10-32" data-name="Rounded Rectangle 2 copy 10" class="cls-29" d="M252.577,1809.85l-48.421,13.2a9.036,9.036,0,0,1-11.1-6.34l-1.356-4.96a9.029,9.029,0,0,1,6.336-11.09l48.42-13.2a9.031,9.031,0,0,1,11.1,6.33l1.355,4.97A9.032,9.032,0,0,1,252.577,1809.85Z"/>
    <path id="Rounded_Rectangle_2_copy_11-16" data-name="Rounded Rectangle 2 copy 11" class="cls-29" d="M112.956,1679.73l49.438-8.74a9.014,9.014,0,0,0,7.3-10.47l-0.908-5.06a9.063,9.063,0,0,0-10.494-7.32l-49.438,8.75a9.005,9.005,0,0,0-7.3,10.46l0.909,5.07A9.056,9.056,0,0,0,112.956,1679.73Z"/>
    <path id="Rounded_Rectangle_2_copy_11-17" data-name="Rounded Rectangle 2 copy 11" class="cls-29" d="M121.512,1699.96l47.748-15.46a9.008,9.008,0,0,0,5.789-11.37l-1.6-4.9a9.059,9.059,0,0,0-11.4-5.8l-47.748,15.46a9.008,9.008,0,0,0-5.789,11.37l1.6,4.9A9.059,9.059,0,0,0,121.512,1699.96Z"/>
    <path id="Rounded_Rectangle_2_copy_11-18" data-name="Rounded Rectangle 2 copy 11" class="cls-29" d="M136.089,1719.51l44.424-23.31a9.021,9.021,0,0,0,3.779-12.2l-2.4-4.55a9.054,9.054,0,0,0-12.215-3.8l-44.424,23.31a9.011,9.011,0,0,0-3.778,12.19l2.4,4.56A9.07,9.07,0,0,0,136.089,1719.51Z"/>
    <path id="Rounded_Rectangle_2_copy_11-19" data-name="Rounded Rectangle 2 copy 11" class="cls-29" d="M152.483,1736.67l39.457-30.96a9.02,9.02,0,0,0,1.509-12.68l-3.186-4.04a9.056,9.056,0,0,0-12.7-1.54l-39.457,30.96a9.02,9.02,0,0,0-1.508,12.68l3.185,4.05A9.054,9.054,0,0,0,152.483,1736.67Z"/>
    <path id="Rounded_Rectangle_2_copy_11-20" data-name="Rounded Rectangle 2 copy 11" class="cls-29" d="M169.554,1750.52l34.8-36.1a9.025,9.025,0,0,0-.254-12.77l-3.712-3.57a9.049,9.049,0,0,0-12.783.23l-34.8,36.1a9.025,9.025,0,0,0,.254,12.77l3.712,3.57A9.049,9.049,0,0,0,169.554,1750.52Z"/>
    <path id="Rounded_Rectangle_2_copy_12-25" data-name="Rounded Rectangle 2 copy 12" class="cls-29" d="M198.56,1556.81l-39.22-31.29a9.077,9.077,0,0,0-12.723,1.41l-3.225,4.02a9,9,0,0,0,1.4,12.68l39.219,31.29a9.078,9.078,0,0,0,12.724-1.41l3.225-4.02A9,9,0,0,0,198.56,1556.81Z"/>
    <path id="Rounded_Rectangle_2_copy_12-26" data-name="Rounded Rectangle 2 copy 12" class="cls-29" d="M208.2,1537.09l-43.178-25.61a9.076,9.076,0,0,0-12.41,3.15l-2.642,4.41a9,9,0,0,0,3.135,12.37l43.178,25.61a9.085,9.085,0,0,0,12.41-3.15l2.641-4.42A8.989,8.989,0,0,0,208.2,1537.09Z"/>
    <path id="Rounded_Rectangle_2_copy_12-27" data-name="Rounded Rectangle 2 copy 12" class="cls-29" d="M220.331,1519.45L176.3,1495.27a9.081,9.081,0,0,0-12.3,3.55l-2.491,4.5a9.007,9.007,0,0,0,3.551,12.26l44.029,24.17a9.072,9.072,0,0,0,12.3-3.55l2.491-4.5A9,9,0,0,0,220.331,1519.45Z"/>
    <path id="Rounded_Rectangle_2_copy_13-4" data-name="Rounded Rectangle 2 copy 13" class="cls-29" d="M232.316,1495.25l-47.173-17.26a9.068,9.068,0,0,0-11.624,5.36l-1.784,4.83a8.991,8.991,0,0,0,5.359,11.57l47.173,17.26a9.068,9.068,0,0,0,11.624-5.36l1.783-4.82A9,9,0,0,0,232.316,1495.25Z"/>
    <path id="Rounded_Rectangle_2_copy_14-4" data-name="Rounded Rectangle 2 copy 14" class="cls-29" d="M244.325,1477.24l-47.173-17.26a9.068,9.068,0,0,0-11.624,5.36l-1.784,4.83a8.991,8.991,0,0,0,5.359,11.57L236.276,1499a9.067,9.067,0,0,0,11.623-5.36l1.784-4.82A9,9,0,0,0,244.325,1477.24Z"/>
    <path id="Rounded_Rectangle_2_copy_17-2" data-name="Rounded Rectangle 2 copy 17" class="cls-29" d="M250.714,1455.27L201.541,1445a9.075,9.075,0,0,0-10.726,6.99l-1.068,5.03a9,9,0,0,0,6.976,10.68l49.172,10.26a9.069,9.069,0,0,0,10.727-6.98l1.068-5.03A9,9,0,0,0,250.714,1455.27Z"/>
    <path id="Rounded_Rectangle_2_copy_18-2" data-name="Rounded Rectangle 2 copy 18" class="cls-29" d="M253.675,1431.79l-50.091-3.77a9.082,9.082,0,0,0-9.724,8.33l-0.4,5.12a9.008,9.008,0,0,0,8.309,9.69l50.092,3.76a9.066,9.066,0,0,0,9.723-8.32l0.4-5.13A9,9,0,0,0,253.675,1431.79Z"/>
    <path id="Rounded_Rectangle_2_copy_12-28" data-name="Rounded Rectangle 2 copy 12" class="cls-29" d="M106.624,1633.75l49.827-6.89a9.008,9.008,0,0,1,10.173,7.71l0.686,5.09a9.078,9.078,0,0,1-7.765,10.18l-49.827,6.88a8.994,8.994,0,0,1-10.173-7.7l-0.686-5.09A9.072,9.072,0,0,1,106.624,1633.75Z"/>
    <path id="Rounded_Rectangle_2_copy_12-29" data-name="Rounded Rectangle 2 copy 12" class="cls-29" d="M108.584,1611.89l50.273,0.02a8.993,8.993,0,0,1,9.007,9.03l-0.024,5.14a9.089,9.089,0,0,1-9.092,9.03l-50.273-.03a8.987,8.987,0,0,1-9.006-9.03l0.024-5.14A9.087,9.087,0,0,1,108.584,1611.89Z"/>
    <path id="Rounded_Rectangle_2_copy_12-30" data-name="Rounded Rectangle 2 copy 12" class="cls-29" d="M116.5,1588.84l49.509,8.5a8.978,8.978,0,0,1,7.34,10.42l-0.9,5.07a9.085,9.085,0,0,1-10.483,7.36l-49.509-8.5a8.978,8.978,0,0,1-7.34-10.42l0.895-5.07A9.086,9.086,0,0,1,116.5,1588.84Z"/>
    <path id="Rounded_Rectangle_2_copy_12-31" data-name="Rounded Rectangle 2 copy 12" class="cls-29" d="M125.871,1565.49l47.114,17.29a8.989,8.989,0,0,1,5.324,11.59l-1.8,4.82a9.089,9.089,0,0,1-11.637,5.36l-47.115-17.29a8.989,8.989,0,0,1-5.324-11.59l1.8-4.83A9.093,9.093,0,0,1,125.871,1565.49Z"/>
    <path id="Rounded_Rectangle_2_copy_12-32" data-name="Rounded Rectangle 2 copy 12" class="cls-29" d="M141.908,1545.07l44.251,23.61a9,9,0,0,1,3.671,12.22l-2.446,4.53a9.081,9.081,0,0,1-12.26,3.71l-44.251-23.61a8.983,8.983,0,0,1-3.671-12.21l2.446-4.53A9.094,9.094,0,0,1,141.908,1545.07Z"/>
    <path id="Rounded_Rectangle_2_copy_10-33" data-name="Rounded Rectangle 2 copy 10" class="cls-29" d="M252.352,1832.93l-49.96,4.83a9.033,9.033,0,0,1-9.865-8.12l-0.5-5.12a9.028,9.028,0,0,1,8.121-9.86l49.96-4.83a9.041,9.041,0,0,1,9.865,8.12l0.5,5.12A9.027,9.027,0,0,1,252.352,1832.93Z"/>
    <path id="Rounded_Rectangle_2_copy_10-34" data-name="Rounded Rectangle 2 copy 10" class="cls-29" d="M252.436,1855.58l-50.191.58a9.043,9.043,0,0,1-9.141-8.93l-0.06-5.15a9.032,9.032,0,0,1,8.927-9.13l50.191-.58a9.042,9.042,0,0,1,9.141,8.93l0.061,5.14A9.034,9.034,0,0,1,252.436,1855.58Z"/>
    <path id="Rounded_Rectangle_2_copy_10-35" data-name="Rounded Rectangle 2 copy 10" class="cls-29" d="M247.841,1877.04l-49.8-6.34a9.035,9.035,0,0,1-7.825-10.1l0.648-5.1a9.032,9.032,0,0,1,10.1-7.82l49.794,6.34a9.035,9.035,0,0,1,7.825,10.1l-0.648,5.1A9.031,9.031,0,0,1,247.841,1877.04Z"/>
    <path id="Rounded_Rectangle_2_copy_10-36" data-name="Rounded Rectangle 2 copy 10" class="cls-29" d="M238.79,1898.28l-48.007-14.66a9.038,9.038,0,0,1-6-11.28l1.5-4.92a9.032,9.032,0,0,1,11.279-6l48.008,14.67a9.023,9.023,0,0,1,6,11.27l-1.5,4.92A9.032,9.032,0,0,1,238.79,1898.28Z"/>
  </g>
</svg>
