<svg id="Container_Tops" data-name="Container Tops" xmlns="http://www.w3.org/2000/svg" xmlns:xlink="http://www.w3.org/1999/xlink" width="2850" height="262" viewBox="0 0 2850 262">
  <metadata><?xpacket begin="﻿" id="W5M0MpCehiHzreSzNTczkc9d"?>
<x:xmpmeta xmlns:x="adobe:ns:meta/" x:xmptk="Adobe XMP Core 5.6-c140 79.160451, 2017/05/06-01:08:21        ">
   <rdf:RDF xmlns:rdf="http://www.w3.org/1999/02/22-rdf-syntax-ns#">
      <rdf:Description rdf:about=""/>
   </rdf:RDF>
</x:xmpmeta>
                                                                                                    
                                                                                                    
                                                                                                    
                                                                                                    
                                                                                                    
                                                                                                    
                                                                                                    
                                                                                                    
                                                                                                    
                                                                                                    
                                                                                                    
                                                                                                    
                                                                                                    
                                                                                                    
                                                                                                    
                                                                                                    
                                                                                                    
                                                                                                    
                                                                                                    
                                                                                                    
                           
<?xpacket end="w"?></metadata>
<defs>
    <style>
      .cls-1, .cls-10, .cls-11, .cls-12, .cls-13, .cls-14, .cls-15, .cls-16, .cls-17, .cls-18, .cls-19, .cls-2, .cls-20, .cls-21, .cls-22, .cls-23, .cls-24, .cls-25, .cls-26, .cls-27, .cls-28, .cls-29, .cls-3, .cls-30, .cls-4, .cls-5, .cls-6, .cls-7, .cls-8, .cls-9 {
        fill: #acb0b4;
        stroke: #4a525a;
      }

      .cls-1, .cls-2 {
        stroke-width: 3px;
      }

      .cls-10, .cls-11, .cls-12, .cls-13, .cls-14, .cls-15, .cls-16, .cls-17, .cls-18, .cls-19, .cls-2, .cls-20, .cls-21, .cls-22, .cls-23, .cls-24, .cls-25, .cls-26, .cls-27, .cls-28, .cls-29, .cls-3, .cls-4, .cls-5, .cls-6, .cls-7, .cls-8, .cls-9 {
        fill-rule: evenodd;
      }

      .cls-10, .cls-11, .cls-12, .cls-13, .cls-14, .cls-15, .cls-16, .cls-17, .cls-18, .cls-19, .cls-20, .cls-21, .cls-22, .cls-23, .cls-24, .cls-25, .cls-26, .cls-27, .cls-28, .cls-3, .cls-4, .cls-5, .cls-6, .cls-7, .cls-8, .cls-9 {
        stroke-width: 1px;
      }

      .cls-3 {
        filter: url(#filter);
      }

      .cls-5 {
        filter: url(#filter-2);
      }

      .cls-6 {
        filter: url(#filter-3);
      }

      .cls-7 {
        filter: url(#filter-4);
      }

      .cls-8 {
        filter: url(#filter-5);
      }

      .cls-9 {
        filter: url(#filter-6);
      }

      .cls-10 {
        filter: url(#filter-7);
      }

      .cls-11 {
        filter: url(#filter-8);
      }

      .cls-12 {
        filter: url(#filter-9);
      }

      .cls-13 {
        filter: url(#filter-10);
      }

      .cls-14 {
        filter: url(#filter-11);
      }

      .cls-15 {
        filter: url(#filter-12);
      }

      .cls-16 {
        filter: url(#filter-13);
      }

      .cls-17 {
        filter: url(#filter-14);
      }

      .cls-18 {
        filter: url(#filter-15);
      }

      .cls-19 {
        filter: url(#filter-16);
      }

      .cls-20 {
        filter: url(#filter-17);
      }

      .cls-21 {
        filter: url(#filter-18);
      }

      .cls-22 {
        filter: url(#filter-19);
      }

      .cls-23 {
        filter: url(#filter-20);
      }

      .cls-24 {
        filter: url(#filter-21);
      }

      .cls-25 {
        filter: url(#filter-22);
      }

      .cls-26 {
        filter: url(#filter-23);
      }

      .cls-27 {
        filter: url(#filter-24);
      }

      .cls-28 {
        filter: url(#filter-25);
      }

      .cls-29, .cls-30 {
        stroke-width: 4px;
      }
    </style>
    <filter id="filter" x="8" y="235" width="23" height="23" filterUnits="userSpaceOnUse">
      <feFlood result="flood" flood-color="#292d32"/>
      <feComposite result="composite" operator="in" in2="SourceGraphic"/>
      <feBlend result="blend" in2="SourceGraphic"/>
    </filter>
    <filter id="filter-2" x="130" y="235" width="23" height="23" filterUnits="userSpaceOnUse">
      <feFlood result="flood" flood-color="#292d32"/>
      <feComposite result="composite" operator="in" in2="SourceGraphic"/>
      <feBlend result="blend" in2="SourceGraphic"/>
    </filter>
    <filter id="filter-3" x="534" y="235" width="23" height="23" filterUnits="userSpaceOnUse">
      <feFlood result="flood" flood-color="#292d32"/>
      <feComposite result="composite" operator="in" in2="SourceGraphic"/>
      <feBlend result="blend" in2="SourceGraphic"/>
    </filter>
    <filter id="filter-4" x="269" y="235" width="23" height="23" filterUnits="userSpaceOnUse">
      <feFlood result="flood" flood-color="#292d32"/>
      <feComposite result="composite" operator="in" in2="SourceGraphic"/>
      <feBlend result="blend" in2="SourceGraphic"/>
    </filter>
    <filter id="filter-5" x="412" y="235" width="23" height="23" filterUnits="userSpaceOnUse">
      <feFlood result="flood" flood-color="#292d32"/>
      <feComposite result="composite" operator="in" in2="SourceGraphic"/>
      <feBlend result="blend" in2="SourceGraphic"/>
    </filter>
    <filter id="filter-6" x="578" y="235" width="23" height="23" filterUnits="userSpaceOnUse">
      <feFlood result="flood" flood-color="#292d32"/>
      <feComposite result="composite" operator="in" in2="SourceGraphic"/>
      <feBlend result="blend" in2="SourceGraphic"/>
    </filter>
    <filter id="filter-7" x="700" y="235" width="23" height="23" filterUnits="userSpaceOnUse">
      <feFlood result="flood" flood-color="#292d32"/>
      <feComposite result="composite" operator="in" in2="SourceGraphic"/>
      <feBlend result="blend" in2="SourceGraphic"/>
    </filter>
    <filter id="filter-8" x="1104" y="235" width="23" height="23" filterUnits="userSpaceOnUse">
      <feFlood result="flood" flood-color="#292d32"/>
      <feComposite result="composite" operator="in" in2="SourceGraphic"/>
      <feBlend result="blend" in2="SourceGraphic"/>
    </filter>
    <filter id="filter-9" x="839" y="235" width="23" height="23" filterUnits="userSpaceOnUse">
      <feFlood result="flood" flood-color="#292d32"/>
      <feComposite result="composite" operator="in" in2="SourceGraphic"/>
      <feBlend result="blend" in2="SourceGraphic"/>
    </filter>
    <filter id="filter-10" x="982" y="235" width="23" height="23" filterUnits="userSpaceOnUse">
      <feFlood result="flood" flood-color="#292d32"/>
      <feComposite result="composite" operator="in" in2="SourceGraphic"/>
      <feBlend result="blend" in2="SourceGraphic"/>
    </filter>
    <filter id="filter-11" x="1148" y="235" width="23" height="23" filterUnits="userSpaceOnUse">
      <feFlood result="flood" flood-color="#292d32"/>
      <feComposite result="composite" operator="in" in2="SourceGraphic"/>
      <feBlend result="blend" in2="SourceGraphic"/>
    </filter>
    <filter id="filter-12" x="1270" y="235" width="23" height="23" filterUnits="userSpaceOnUse">
      <feFlood result="flood" flood-color="#292d32"/>
      <feComposite result="composite" operator="in" in2="SourceGraphic"/>
      <feBlend result="blend" in2="SourceGraphic"/>
    </filter>
    <filter id="filter-13" x="1674" y="235" width="23" height="23" filterUnits="userSpaceOnUse">
      <feFlood result="flood" flood-color="#292d32"/>
      <feComposite result="composite" operator="in" in2="SourceGraphic"/>
      <feBlend result="blend" in2="SourceGraphic"/>
    </filter>
    <filter id="filter-14" x="1409" y="235" width="23" height="23" filterUnits="userSpaceOnUse">
      <feFlood result="flood" flood-color="#292d32"/>
      <feComposite result="composite" operator="in" in2="SourceGraphic"/>
      <feBlend result="blend" in2="SourceGraphic"/>
    </filter>
    <filter id="filter-15" x="1552" y="235" width="23" height="23" filterUnits="userSpaceOnUse">
      <feFlood result="flood" flood-color="#292d32"/>
      <feComposite result="composite" operator="in" in2="SourceGraphic"/>
      <feBlend result="blend" in2="SourceGraphic"/>
    </filter>
    <filter id="filter-16" x="1718" y="235" width="23" height="23" filterUnits="userSpaceOnUse">
      <feFlood result="flood" flood-color="#292d32"/>
      <feComposite result="composite" operator="in" in2="SourceGraphic"/>
      <feBlend result="blend" in2="SourceGraphic"/>
    </filter>
    <filter id="filter-17" x="1840" y="235" width="23" height="23" filterUnits="userSpaceOnUse">
      <feFlood result="flood" flood-color="#292d32"/>
      <feComposite result="composite" operator="in" in2="SourceGraphic"/>
      <feBlend result="blend" in2="SourceGraphic"/>
    </filter>
    <filter id="filter-18" x="2244" y="235" width="23" height="23" filterUnits="userSpaceOnUse">
      <feFlood result="flood" flood-color="#292d32"/>
      <feComposite result="composite" operator="in" in2="SourceGraphic"/>
      <feBlend result="blend" in2="SourceGraphic"/>
    </filter>
    <filter id="filter-19" x="1979" y="235" width="23" height="23" filterUnits="userSpaceOnUse">
      <feFlood result="flood" flood-color="#292d32"/>
      <feComposite result="composite" operator="in" in2="SourceGraphic"/>
      <feBlend result="blend" in2="SourceGraphic"/>
    </filter>
    <filter id="filter-20" x="2122" y="235" width="23" height="23" filterUnits="userSpaceOnUse">
      <feFlood result="flood" flood-color="#292d32"/>
      <feComposite result="composite" operator="in" in2="SourceGraphic"/>
      <feBlend result="blend" in2="SourceGraphic"/>
    </filter>
    <filter id="filter-21" x="2288" y="235" width="23" height="23" filterUnits="userSpaceOnUse">
      <feFlood result="flood" flood-color="#292d32"/>
      <feComposite result="composite" operator="in" in2="SourceGraphic"/>
      <feBlend result="blend" in2="SourceGraphic"/>
    </filter>
    <filter id="filter-22" x="2410" y="235" width="23" height="23" filterUnits="userSpaceOnUse">
      <feFlood result="flood" flood-color="#292d32"/>
      <feComposite result="composite" operator="in" in2="SourceGraphic"/>
      <feBlend result="blend" in2="SourceGraphic"/>
    </filter>
    <filter id="filter-23" x="2814" y="235" width="23" height="23" filterUnits="userSpaceOnUse">
      <feFlood result="flood" flood-color="#292d32"/>
      <feComposite result="composite" operator="in" in2="SourceGraphic"/>
      <feBlend result="blend" in2="SourceGraphic"/>
    </filter>
    <filter id="filter-24" x="2549" y="235" width="23" height="23" filterUnits="userSpaceOnUse">
      <feFlood result="flood" flood-color="#292d32"/>
      <feComposite result="composite" operator="in" in2="SourceGraphic"/>
      <feBlend result="blend" in2="SourceGraphic"/>
    </filter>
    <filter id="filter-25" x="2692" y="235" width="23" height="23" filterUnits="userSpaceOnUse">
      <feFlood result="flood" flood-color="#292d32"/>
      <feComposite result="composite" operator="in" in2="SourceGraphic"/>
      <feBlend result="blend" in2="SourceGraphic"/>
    </filter>
  </defs>
  <g id="Cap">
    <rect id="Rounded_Rectangle_2" data-name="Rounded Rectangle 2" class="cls-1" x="242" y="168" width="83" height="23" rx="11.5" ry="11.5"/>
    <rect id="Rounded_Rectangle_1" data-name="Rounded Rectangle 1" class="cls-1" x="176" y="180" width="215" height="49" rx="24.5" ry="24.5"/>
    <path id="Shape_1_copy_4" data-name="Shape 1 copy 4" class="cls-2" d="M3,263s-1.271-57,50-57,441.793,1,477,1,40,56,40,56H3Z"/>
    <g id="Nut">
      <g style="fill: #acb0b4; filter: url(#filter)">
        <path id="Polygon_1_copy" data-name="Polygon 1 copy" class="cls-3" d="M28.743,255.756l-14.2,2.253L8.013,245.176l10.168-10.183,12.812,6.538Z" style="stroke: inherit; filter: none; fill: inherit"/>
      </g>
      <use xlink:href="#Polygon_1_copy" style="stroke: #4a525a; filter: none; fill: none"/>
      <path id="Polygon_1" data-name="Polygon 1" class="cls-4" d="M25.632,253.145L13.282,255.1,7.605,243.96l8.842-8.841L27.588,240.8Z"/>
    </g>
    <g id="Nut_copy_3" data-name="Nut copy 3">
      <g style="fill: #acb0b4; filter: url(#filter-2)">
        <path id="Polygon_1_copy-2" data-name="Polygon 1 copy" class="cls-5" d="M150.743,255.756l-14.2,2.253-6.528-12.833,10.168-10.183,12.812,6.538Z" style="stroke: inherit; filter: none; fill: inherit"/>
      </g>
      <use xlink:href="#Polygon_1_copy-2" style="stroke: #4a525a; filter: none; fill: none"/>
      <path id="Polygon_1-2" data-name="Polygon 1" class="cls-4" d="M147.631,253.145L135.282,255.1,129.6,243.96l8.842-8.841,11.14,5.676Z"/>
    </g>
    <g id="Nut_copy" data-name="Nut copy">
      <g style="fill: #acb0b4; filter: url(#filter-3)">
        <path id="Polygon_1_copy-3" data-name="Polygon 1 copy" class="cls-6" d="M554.743,255.756l-14.2,2.253-6.528-12.833,10.168-10.183,12.812,6.538Z" style="stroke: inherit; filter: none; fill: inherit"/>
      </g>
      <use xlink:href="#Polygon_1_copy-3" style="stroke: #4a525a; filter: none; fill: none"/>
      <path id="Polygon_1-3" data-name="Polygon 1" class="cls-4" d="M554.631,253.145L542.282,255.1l-5.677-11.141,8.842-8.841,11.14,5.676Z"/>
    </g>
    <g id="Nut_copy_2" data-name="Nut copy 2">
      <g style="fill: #acb0b4; filter: url(#filter-4)">
        <path id="Polygon_1_copy-4" data-name="Polygon 1 copy" class="cls-7" d="M289.743,255.756l-14.2,2.253-6.528-12.833,10.168-10.183,12.812,6.538Z" style="stroke: inherit; filter: none; fill: inherit"/>
      </g>
      <use xlink:href="#Polygon_1_copy-4" style="stroke: #4a525a; filter: none; fill: none"/>
      <path id="Polygon_1-4" data-name="Polygon 1" class="cls-4" d="M287.631,253.145L275.282,255.1l-5.677-11.141,8.842-8.841,11.14,5.676Z"/>
    </g>
    <g id="Nut_copy_4" data-name="Nut copy 4">
      <g style="fill: #acb0b4; filter: url(#filter-5)">
        <path id="Polygon_1_copy-5" data-name="Polygon 1 copy" class="cls-8" d="M432.743,255.756l-14.2,2.253-6.528-12.833,10.168-10.183,12.812,6.538Z" style="stroke: inherit; filter: none; fill: inherit"/>
      </g>
      <use xlink:href="#Polygon_1_copy-5" style="stroke: #4a525a; filter: none; fill: none"/>
      <path id="Polygon_1-5" data-name="Polygon 1" class="cls-4" d="M432.631,253.145L420.282,255.1l-5.677-11.141,8.842-8.841,11.14,5.676Z"/>
    </g>
  </g>
  <g id="Cap_copy" data-name="Cap copy">
    <rect id="Rounded_Rectangle_2-2" data-name="Rounded Rectangle 2" class="cls-1" x="812" y="168" width="83" height="23" rx="11.5" ry="11.5"/>
    <rect id="Rounded_Rectangle_1-2" data-name="Rounded Rectangle 1" class="cls-1" x="746" y="180" width="215" height="49" rx="24.5" ry="24.5"/>
    <path id="Shape_1_copy_3" data-name="Shape 1 copy 3" class="cls-2" d="M572,263s-1.271-57,50-57,441.79,1,477,1,40,56,40,56H572Z"/>
    <g id="Nut-2" data-name="Nut">
      <g style="fill: #acb0b4; filter: url(#filter-6)">
        <path id="Polygon_1_copy-6" data-name="Polygon 1 copy" class="cls-9" d="M598.743,255.756l-14.2,2.253-6.528-12.833,10.168-10.183,12.812,6.538Z" style="stroke: inherit; filter: none; fill: inherit"/>
      </g>
      <use xlink:href="#Polygon_1_copy-6" style="stroke: #4a525a; filter: none; fill: none"/>
      <path id="Polygon_1-6" data-name="Polygon 1" class="cls-4" d="M595.631,253.145L583.282,255.1l-5.677-11.141,8.842-8.841,11.14,5.676Z"/>
    </g>
    <g id="Nut_copy_3-2" data-name="Nut copy 3">
      <g style="fill: #acb0b4; filter: url(#filter-7)">
        <path id="Polygon_1_copy-7" data-name="Polygon 1 copy" class="cls-10" d="M720.743,255.756l-14.2,2.253-6.528-12.833,10.168-10.183,12.812,6.538Z" style="stroke: inherit; filter: none; fill: inherit"/>
      </g>
      <use xlink:href="#Polygon_1_copy-7" style="stroke: #4a525a; filter: none; fill: none"/>
      <path id="Polygon_1-7" data-name="Polygon 1" class="cls-4" d="M717.631,253.145L705.282,255.1l-5.677-11.141,8.842-8.841,11.14,5.676Z"/>
    </g>
    <g id="Nut_copy-2" data-name="Nut copy">
      <g style="fill: #acb0b4; filter: url(#filter-8)">
        <path id="Polygon_1_copy-8" data-name="Polygon 1 copy" class="cls-11" d="M1124.74,255.756l-14.2,2.253-6.53-12.833,10.17-10.183,12.81,6.538Z" style="stroke: inherit; filter: none; fill: inherit"/>
      </g>
      <use xlink:href="#Polygon_1_copy-8" style="stroke: #4a525a; filter: none; fill: none"/>
      <path id="Polygon_1-8" data-name="Polygon 1" class="cls-4" d="M1124.63,253.145l-12.35,1.956-5.67-11.141,8.84-8.841,11.14,5.676Z"/>
    </g>
    <g id="Nut_copy_2-2" data-name="Nut copy 2">
      <g style="fill: #acb0b4; filter: url(#filter-9)">
        <path id="Polygon_1_copy-9" data-name="Polygon 1 copy" class="cls-12" d="M859.743,255.756l-14.2,2.253-6.528-12.833,10.168-10.183,12.812,6.538Z" style="stroke: inherit; filter: none; fill: inherit"/>
      </g>
      <use xlink:href="#Polygon_1_copy-9" style="stroke: #4a525a; filter: none; fill: none"/>
      <path id="Polygon_1-9" data-name="Polygon 1" class="cls-4" d="M857.631,253.145L845.282,255.1l-5.677-11.141,8.842-8.841,11.14,5.676Z"/>
    </g>
    <g id="Nut_copy_4-2" data-name="Nut copy 4">
      <g style="fill: #acb0b4; filter: url(#filter-10)">
        <path id="Polygon_1_copy-10" data-name="Polygon 1 copy" class="cls-13" d="M1002.74,255.756l-14.2,2.253-6.528-12.833,10.168-10.183,12.809,6.538Z" style="stroke: inherit; filter: none; fill: inherit"/>
      </g>
      <use xlink:href="#Polygon_1_copy-10" style="stroke: #4a525a; filter: none; fill: none"/>
      <path id="Polygon_1-10" data-name="Polygon 1" class="cls-4" d="M1002.63,253.145L990.282,255.1l-5.677-11.141,8.842-8.841,11.143,5.676Z"/>
    </g>
  </g>
  <g id="Cap_copy_2" data-name="Cap copy 2">
    <rect id="Rounded_Rectangle_2-3" data-name="Rounded Rectangle 2" class="cls-1" x="1382" y="168" width="83" height="23" rx="11.5" ry="11.5"/>
    <rect id="Rounded_Rectangle_1-3" data-name="Rounded Rectangle 1" class="cls-1" x="1316" y="180" width="215" height="49" rx="24.5" ry="24.5"/>
    <path id="Shape_1_copy_2" data-name="Shape 1 copy 2" class="cls-2" d="M1142,263s-1.27-57,50-57,441.79,1,477,1,40,56,40,56H1142Z"/>
    <g id="Nut-3" data-name="Nut">
      <g style="fill: #acb0b4; filter: url(#filter-11)">
        <path id="Polygon_1_copy-11" data-name="Polygon 1 copy" class="cls-14" d="M1168.74,255.756l-14.2,2.253-6.53-12.833,10.17-10.183,12.81,6.538Z" style="stroke: inherit; filter: none; fill: inherit"/>
      </g>
      <use xlink:href="#Polygon_1_copy-11" style="stroke: #4a525a; filter: none; fill: none"/>
      <path id="Polygon_1-11" data-name="Polygon 1" class="cls-4" d="M1165.63,253.145l-12.35,1.956-5.67-11.141,8.84-8.841,11.14,5.676Z"/>
    </g>
    <g id="Nut_copy_3-3" data-name="Nut copy 3">
      <g style="fill: #acb0b4; filter: url(#filter-12)">
        <path id="Polygon_1_copy-12" data-name="Polygon 1 copy" class="cls-15" d="M1290.74,255.756l-14.2,2.253-6.53-12.833,10.17-10.183,12.81,6.538Z" style="stroke: inherit; filter: none; fill: inherit"/>
      </g>
      <use xlink:href="#Polygon_1_copy-12" style="stroke: #4a525a; filter: none; fill: none"/>
      <path id="Polygon_1-12" data-name="Polygon 1" class="cls-4" d="M1287.63,253.145l-12.35,1.956-5.67-11.141,8.84-8.841,11.14,5.676Z"/>
    </g>
    <g id="Nut_copy-3" data-name="Nut copy">
      <g style="fill: #acb0b4; filter: url(#filter-13)">
        <path id="Polygon_1_copy-13" data-name="Polygon 1 copy" class="cls-16" d="M1694.74,255.756l-14.2,2.253-6.53-12.833,10.17-10.183,12.81,6.538Z" style="stroke: inherit; filter: none; fill: inherit"/>
      </g>
      <use xlink:href="#Polygon_1_copy-13" style="stroke: #4a525a; filter: none; fill: none"/>
      <path id="Polygon_1-13" data-name="Polygon 1" class="cls-4" d="M1694.63,253.145l-12.35,1.956-5.67-11.141,8.84-8.841,11.14,5.676Z"/>
    </g>
    <g id="Nut_copy_2-3" data-name="Nut copy 2">
      <g style="fill: #acb0b4; filter: url(#filter-14)">
        <path id="Polygon_1_copy-14" data-name="Polygon 1 copy" class="cls-17" d="M1429.74,255.756l-14.2,2.253-6.53-12.833,10.17-10.183,12.81,6.538Z" style="stroke: inherit; filter: none; fill: inherit"/>
      </g>
      <use xlink:href="#Polygon_1_copy-14" style="stroke: #4a525a; filter: none; fill: none"/>
      <path id="Polygon_1-14" data-name="Polygon 1" class="cls-4" d="M1427.63,253.145l-12.35,1.956-5.67-11.141,8.84-8.841,11.14,5.676Z"/>
    </g>
    <g id="Nut_copy_4-3" data-name="Nut copy 4">
      <g style="fill: #acb0b4; filter: url(#filter-15)">
        <path id="Polygon_1_copy-15" data-name="Polygon 1 copy" class="cls-18" d="M1572.74,255.756l-14.2,2.253-6.53-12.833,10.17-10.183,12.81,6.538Z" style="stroke: inherit; filter: none; fill: inherit"/>
      </g>
      <use xlink:href="#Polygon_1_copy-15" style="stroke: #4a525a; filter: none; fill: none"/>
      <path id="Polygon_1-15" data-name="Polygon 1" class="cls-4" d="M1572.63,253.145l-12.35,1.956-5.67-11.141,8.84-8.841,11.14,5.676Z"/>
    </g>
  </g>
  <g id="Cap_copy_3" data-name="Cap copy 3">
    <rect id="Rounded_Rectangle_2-4" data-name="Rounded Rectangle 2" class="cls-1" x="1952" y="168" width="83" height="23" rx="11.5" ry="11.5"/>
    <rect id="Rounded_Rectangle_1-4" data-name="Rounded Rectangle 1" class="cls-1" x="1886" y="180" width="215" height="49" rx="24.5" ry="24.5"/>
    <path id="Shape_1_copy" data-name="Shape 1 copy" class="cls-2" d="M1710,263s-1.27-57,50-57,441.79,1,477,1,40,56,40,56H1710Z"/>
    <g id="Nut-4" data-name="Nut">
      <g style="fill: #acb0b4; filter: url(#filter-16)">
        <path id="Polygon_1_copy-16" data-name="Polygon 1 copy" class="cls-19" d="M1738.74,255.756l-14.2,2.253-6.53-12.833,10.17-10.183,12.81,6.538Z" style="stroke: inherit; filter: none; fill: inherit"/>
      </g>
      <use xlink:href="#Polygon_1_copy-16" style="stroke: #4a525a; filter: none; fill: none"/>
      <path id="Polygon_1-16" data-name="Polygon 1" class="cls-4" d="M1735.63,253.145l-12.35,1.956-5.67-11.141,8.84-8.841,11.14,5.676Z"/>
    </g>
    <g id="Nut_copy_3-4" data-name="Nut copy 3">
      <g style="fill: #acb0b4; filter: url(#filter-17)">
        <path id="Polygon_1_copy-17" data-name="Polygon 1 copy" class="cls-20" d="M1860.74,255.756l-14.2,2.253-6.53-12.833,10.17-10.183,12.81,6.538Z" style="stroke: inherit; filter: none; fill: inherit"/>
      </g>
      <use xlink:href="#Polygon_1_copy-17" style="stroke: #4a525a; filter: none; fill: none"/>
      <path id="Polygon_1-17" data-name="Polygon 1" class="cls-4" d="M1857.63,253.145l-12.35,1.956-5.67-11.141,8.84-8.841,11.14,5.676Z"/>
    </g>
    <g id="Nut_copy-4" data-name="Nut copy">
      <g style="fill: #acb0b4; filter: url(#filter-18)">
        <path id="Polygon_1_copy-18" data-name="Polygon 1 copy" class="cls-21" d="M2264.74,255.756l-14.2,2.253-6.53-12.833,10.17-10.183,12.81,6.538Z" style="stroke: inherit; filter: none; fill: inherit"/>
      </g>
      <use xlink:href="#Polygon_1_copy-18" style="stroke: #4a525a; filter: none; fill: none"/>
      <path id="Polygon_1-18" data-name="Polygon 1" class="cls-4" d="M2264.63,253.145l-12.35,1.956-5.67-11.141,8.84-8.841,11.14,5.676Z"/>
    </g>
    <g id="Nut_copy_2-4" data-name="Nut copy 2">
      <g style="fill: #acb0b4; filter: url(#filter-19)">
        <path id="Polygon_1_copy-19" data-name="Polygon 1 copy" class="cls-22" d="M1999.74,255.756l-14.2,2.253-6.53-12.833,10.17-10.183,12.81,6.538Z" style="stroke: inherit; filter: none; fill: inherit"/>
      </g>
      <use xlink:href="#Polygon_1_copy-19" style="stroke: #4a525a; filter: none; fill: none"/>
      <path id="Polygon_1-19" data-name="Polygon 1" class="cls-4" d="M1997.63,253.145l-12.35,1.956-5.67-11.141,8.84-8.841,11.14,5.676Z"/>
    </g>
    <g id="Nut_copy_4-4" data-name="Nut copy 4">
      <g style="fill: #acb0b4; filter: url(#filter-20)">
        <path id="Polygon_1_copy-20" data-name="Polygon 1 copy" class="cls-23" d="M2142.74,255.756l-14.2,2.253-6.53-12.833,10.17-10.183,12.81,6.538Z" style="stroke: inherit; filter: none; fill: inherit"/>
      </g>
      <use xlink:href="#Polygon_1_copy-20" style="stroke: #4a525a; filter: none; fill: none"/>
      <path id="Polygon_1-20" data-name="Polygon 1" class="cls-4" d="M2142.63,253.145l-12.35,1.956-5.67-11.141,8.84-8.841,11.14,5.676Z"/>
    </g>
  </g>
  <g id="Cap_copy_4" data-name="Cap copy 4">
    <rect id="Rounded_Rectangle_2-5" data-name="Rounded Rectangle 2" class="cls-1" x="2522" y="168" width="83" height="23" rx="11.5" ry="11.5"/>
    <rect id="Rounded_Rectangle_1-5" data-name="Rounded Rectangle 1" class="cls-1" x="2456" y="180" width="215" height="49" rx="24.5" ry="24.5"/>
    <path class="cls-2" d="M2280,263s-1.27-57,50-57,441.79,1,477,1,40,56,40,56H2280Z"/>
    <g id="Nut-5" data-name="Nut">
      <g style="fill: #acb0b4; filter: url(#filter-21)">
        <path id="Polygon_1_copy-21" data-name="Polygon 1 copy" class="cls-24" d="M2308.74,255.756l-14.2,2.253-6.53-12.833,10.17-10.183,12.81,6.538Z" style="stroke: inherit; filter: none; fill: inherit"/>
      </g>
      <use xlink:href="#Polygon_1_copy-21" style="stroke: #4a525a; filter: none; fill: none"/>
      <path id="Polygon_1-21" data-name="Polygon 1" class="cls-4" d="M2305.63,253.145l-12.35,1.956-5.67-11.141,8.84-8.841,11.14,5.676Z"/>
    </g>
    <g id="Nut_copy_3-5" data-name="Nut copy 3">
      <g style="fill: #acb0b4; filter: url(#filter-22)">
        <path id="Polygon_1_copy-22" data-name="Polygon 1 copy" class="cls-25" d="M2430.74,255.756l-14.2,2.253-6.53-12.833,10.17-10.183,12.81,6.538Z" style="stroke: inherit; filter: none; fill: inherit"/>
      </g>
      <use xlink:href="#Polygon_1_copy-22" style="stroke: #4a525a; filter: none; fill: none"/>
      <path id="Polygon_1-22" data-name="Polygon 1" class="cls-4" d="M2427.63,253.145l-12.35,1.956-5.67-11.141,8.84-8.841,11.14,5.676Z"/>
    </g>
    <g id="Nut_copy-5" data-name="Nut copy">
      <g style="fill: #acb0b4; filter: url(#filter-23)">
        <path id="Polygon_1_copy-23" data-name="Polygon 1 copy" class="cls-26" d="M2834.74,255.756l-14.2,2.253-6.53-12.833,10.17-10.183,12.81,6.538Z" style="stroke: inherit; filter: none; fill: inherit"/>
      </g>
      <use xlink:href="#Polygon_1_copy-23" style="stroke: #4a525a; filter: none; fill: none"/>
      <path id="Polygon_1-23" data-name="Polygon 1" class="cls-4" d="M2834.63,253.145l-12.35,1.956-5.67-11.141,8.84-8.841,11.14,5.676Z"/>
    </g>
    <g id="Nut_copy_2-5" data-name="Nut copy 2">
      <g style="fill: #acb0b4; filter: url(#filter-24)">
        <path id="Polygon_1_copy-24" data-name="Polygon 1 copy" class="cls-27" d="M2569.74,255.756l-14.2,2.253-6.53-12.833,10.17-10.183,12.81,6.538Z" style="stroke: inherit; filter: none; fill: inherit"/>
      </g>
      <use xlink:href="#Polygon_1_copy-24" style="stroke: #4a525a; filter: none; fill: none"/>
      <path id="Polygon_1-24" data-name="Polygon 1" class="cls-4" d="M2567.63,253.145l-12.35,1.956-5.67-11.141,8.84-8.841,11.14,5.676Z"/>
    </g>
    <g id="Nut_copy_4-5" data-name="Nut copy 4">
      <g style="fill: #acb0b4; filter: url(#filter-25)">
        <path id="Polygon_1_copy-25" data-name="Polygon 1 copy" class="cls-28" d="M2712.74,255.756l-14.2,2.253-6.53-12.833,10.17-10.183,12.81,6.538Z" style="stroke: inherit; filter: none; fill: inherit"/>
      </g>
      <use xlink:href="#Polygon_1_copy-25" style="stroke: #4a525a; filter: none; fill: none"/>
      <path id="Polygon_1-25" data-name="Polygon 1" class="cls-4" d="M2712.63,253.145l-12.35,1.956-5.67-11.141,8.84-8.841,11.14,5.676Z"/>
    </g>
  </g>
  <g id="Pipe_3" data-name="Pipe 3">
    <path id="Rounded_Rectangle_2_copy_19" data-name="Rounded Rectangle 2 copy 19" class="cls-29" d="M1397.99,169.526l50.16-.035a9.031,9.031,0,0,0,9.02-9.033v-5.14a9.026,9.026,0,0,0-9.03-9.021l-50.16.035a9.033,9.033,0,0,0-9.03,9.033v5.14A9.028,9.028,0,0,0,1397.99,169.526Z"/>
    <path id="Rounded_Rectangle_2_copy_20" data-name="Rounded Rectangle 2 copy 20" class="cls-29" d="M1397.99,147.526l50.16-.035a9.031,9.031,0,0,0,9.02-9.033v-5.14a9.026,9.026,0,0,0-9.03-9.021l-50.16.035a9.033,9.033,0,0,0-9.03,9.033v5.14A9.028,9.028,0,0,0,1397.99,147.526Z"/>
    <path id="Rounded_Rectangle_2_copy_21" data-name="Rounded Rectangle 2 copy 21" class="cls-29" d="M1393.99,125.526l50.16-.035a9.031,9.031,0,0,0,9.02-9.033v-5.14a9.026,9.026,0,0,0-9.03-9.021l-50.16.035a9.033,9.033,0,0,0-9.03,9.033v5.14A9.028,9.028,0,0,0,1393.99,125.526Z"/>
    <path id="Rounded_Rectangle_2_copy_22" data-name="Rounded Rectangle 2 copy 22" class="cls-29" d="M1397.99,103.526l50.16-.035a9.031,9.031,0,0,0,9.02-9.033v-5.14a9.026,9.026,0,0,0-9.03-9.021l-50.16.034a9.034,9.034,0,0,0-9.03,9.033v5.14A9.028,9.028,0,0,0,1397.99,103.526Z"/>
    <path id="Rounded_Rectangle_2_copy_23" data-name="Rounded Rectangle 2 copy 23" class="cls-29" d="M1393.99,81.526l50.16-.034a9.032,9.032,0,0,0,9.02-9.033v-5.14a9.026,9.026,0,0,0-9.03-9.021l-50.16.035a9.034,9.034,0,0,0-9.03,9.033v5.14A9.028,9.028,0,0,0,1393.99,81.526Z"/>
    <path id="Rounded_Rectangle_2_copy_24" data-name="Rounded Rectangle 2 copy 24" class="cls-29" d="M1393.99,60.526l50.16-.035a9.032,9.032,0,0,0,9.02-9.033v-5.14a9.026,9.026,0,0,0-9.03-9.021l-50.16.035a9.034,9.034,0,0,0-9.03,9.033v5.14A9.028,9.028,0,0,0,1393.99,60.526Z"/>
    <path id="Rounded_Rectangle_2_copy_25" data-name="Rounded Rectangle 2 copy 25" class="cls-29" d="M1393.99,43.526l50.16-.035a9.032,9.032,0,0,0,9.02-9.033v-5.14a9.026,9.026,0,0,0-9.03-9.021l-50.16.035a9.034,9.034,0,0,0-9.03,9.033v5.14A9.028,9.028,0,0,0,1393.99,43.526Z"/>
  </g>
  <g id="Pipe_1" data-name="Pipe 1">
    <rect id="Rounded_Rectangle_2_copy_9" data-name="Rounded Rectangle 2 copy 9" class="cls-30" x="253" y="146.875" width="68" height="23.125" rx="9" ry="9"/>
    <path id="Rounded_Rectangle_2_copy_9-2" data-name="Rounded Rectangle 2 copy 9" class="cls-29" d="M266.83,125.543l49.524,6.884a9,9,0,0,1,7.675,10.154l-0.706,5.076a9,9,0,0,1-10.153,7.675l-49.524-6.884a9,9,0,0,1-7.675-10.154l0.706-5.076A9,9,0,0,1,266.83,125.543Z"/>
    <path id="Rounded_Rectangle_2_copy_9-3" data-name="Rounded Rectangle 2 copy 9" class="cls-29" d="M277.683,103.839L325.329,119a9,9,0,0,1,5.847,11.305l-1.553,4.884a9,9,0,0,1-11.306,5.848l-47.646-15.16a9,9,0,0,1-5.847-11.305l1.553-4.884A9,9,0,0,1,277.683,103.839Z"/>
    <path id="Rounded_Rectangle_2_copy_9-4" data-name="Rounded Rectangle 2 copy 9" class="cls-29" d="M290.736,84.157l44.121,23.523a9,9,0,0,1,3.708,12.176l-2.411,4.522a9,9,0,0,1-12.176,3.708l-44.121-23.523a9,9,0,0,1-3.708-12.175l2.411-4.522A9,9,0,0,1,290.736,84.157Z"/>
    <path id="Rounded_Rectangle_2_copy_9-5" data-name="Rounded Rectangle 2 copy 9" class="cls-29" d="M305.034,67.606L345.5,96.979a9,9,0,0,1,2,12.571l-3.011,4.147a9,9,0,0,1-12.57,2L291.448,86.32a9,9,0,0,1-2-12.57l3.011-4.147A9,9,0,0,1,305.034,67.606Z"/>
    <path id="Rounded_Rectangle_2_copy_9-6" data-name="Rounded Rectangle 2 copy 9" class="cls-29" d="M323.115,53.383l34.912,35.793a9,9,0,0,1-.158,12.727l-3.669,3.578a9,9,0,0,1-12.727-.158L306.561,69.53A9,9,0,0,1,306.72,56.8l3.668-3.578A9,9,0,0,1,323.115,53.383Z"/>
    <path id="Rounded_Rectangle_2_copy_9-7" data-name="Rounded Rectangle 2 copy 9" class="cls-29" d="M340.662,39.194l31.752,38.624a9,9,0,0,1-1.237,12.668l-3.959,3.255A9,9,0,0,1,354.55,92.5L322.8,53.88a9,9,0,0,1,1.237-12.668l3.959-3.255A9,9,0,0,1,340.662,39.194Z"/>
    <path id="Rounded_Rectangle_2_copy_9-8" data-name="Rounded Rectangle 2 copy 9" class="cls-29" d="M360.207,29.379l26.132,42.628a9,9,0,0,1-2.969,12.377L379,87.062a9,9,0,0,1-12.377-2.969L340.492,41.465a9,9,0,0,1,2.969-12.377l4.37-2.679A9,9,0,0,1,360.207,29.379Z"/>
    <path id="Rounded_Rectangle_2_copy_9-9" data-name="Rounded Rectangle 2 copy 9" class="cls-29" d="M382.357,23.163L400.9,69.6a9,9,0,0,1-5.02,11.7l-4.759,1.9a9,9,0,0,1-11.7-5.019L360.882,31.741a9,9,0,0,1,5.019-11.7l4.76-1.9A9,9,0,0,1,382.357,23.163Z"/>
    <path id="Rounded_Rectangle_2_copy_10" data-name="Rounded Rectangle 2 copy 10" class="cls-29" d="M553.483,44.541L514.377,75.934a9.028,9.028,0,0,0-1.386,12.692l3.218,4.01A9.029,9.029,0,0,0,528.9,94.026l39.106-31.392a9.028,9.028,0,0,0,1.386-12.692l-3.218-4.01A9.028,9.028,0,0,0,553.483,44.541Z"/>
    <path id="Rounded_Rectangle_2_copy_10-2" data-name="Rounded Rectangle 2 copy 10" class="cls-29" d="M536.308,30.884L501.9,67.363a9.029,9.029,0,0,0,.374,12.763l3.74,3.528a9.026,9.026,0,0,0,12.761-.37l34.41-36.479a9.028,9.028,0,0,0-.374-12.763l-3.74-3.529A9.026,9.026,0,0,0,536.308,30.884Z"/>
    <path id="Rounded_Rectangle_2_copy_10-3" data-name="Rounded Rectangle 2 copy 10" class="cls-29" d="M514.189,20.717L486.445,62.493a9.03,9.03,0,0,0,2.527,12.516l4.282,2.845a9.026,9.026,0,0,0,12.515-2.523l27.744-41.775a9.031,9.031,0,0,0-2.527-12.516L526.7,18.194A9.025,9.025,0,0,0,514.189,20.717Z"/>
    <path id="Rounded_Rectangle_2_copy_10-4" data-name="Rounded Rectangle 2 copy 10" class="cls-29" d="M491.618,13.514L471.884,59.619a9.03,9.03,0,0,0,4.747,11.854l4.726,2.025a9.025,9.025,0,0,0,11.852-4.744l19.734-46.1A9.031,9.031,0,0,0,508.2,10.795L503.47,8.77A9.025,9.025,0,0,0,491.618,13.514Z"/>
    <path id="Rounded_Rectangle_2_copy_10-5" data-name="Rounded Rectangle 2 copy 10" class="cls-29" d="M470.04,9.541l-13.2,48.385a9.032,9.032,0,0,0,6.334,11.088l4.959,1.355a9.024,9.024,0,0,0,11.085-6.331l13.2-48.385a9.032,9.032,0,0,0-6.334-11.088l-4.96-1.355A9.024,9.024,0,0,0,470.04,9.541Z"/>
    <path id="Rounded_Rectangle_2_copy_11" data-name="Rounded Rectangle 2 copy 11" class="cls-29" d="M600.086,149.059l8.742-49.4a9,9,0,0,1,10.46-7.3l5.061,0.907a9.054,9.054,0,0,1,7.313,10.486l-8.741,49.4a9,9,0,0,1-10.46,7.3l-5.061-.908A9.055,9.055,0,0,1,600.086,149.059Z"/>
    <path id="Rounded_Rectangle_2_copy_11-2" data-name="Rounded Rectangle 2 copy 11" class="cls-29" d="M579.867,140.509L595.322,92.8a9.005,9.005,0,0,1,11.368-5.785l4.889,1.6a9.055,9.055,0,0,1,5.8,11.391l-15.456,47.712a9,9,0,0,1-11.368,5.785l-4.889-1.6A9.054,9.054,0,0,1,579.867,140.509Z"/>
    <path id="Rounded_Rectangle_2_copy_11-3" data-name="Rounded Rectangle 2 copy 11" class="cls-29" d="M560.333,125.943l23.3-44.391a9.008,9.008,0,0,1,12.186-3.776l4.551,2.4a9.052,9.052,0,0,1,3.8,12.205l-23.3,44.391a9.009,9.009,0,0,1-12.186,3.776l-4.551-2.4A9.052,9.052,0,0,1,560.333,125.943Z"/>
    <path id="Rounded_Rectangle_2_copy_11-4" data-name="Rounded Rectangle 2 copy 11" class="cls-29" d="M543.18,109.561l30.941-39.428a9.014,9.014,0,0,1,12.671-1.507l4.044,3.183A9.045,9.045,0,0,1,592.369,84.5l-30.941,39.428a9.015,9.015,0,0,1-12.672,1.507l-4.044-3.183A9.046,9.046,0,0,1,543.18,109.561Z"/>
    <path id="Rounded_Rectangle_2_copy_11-5" data-name="Rounded Rectangle 2 copy 11" class="cls-29" d="M529.336,92.5l36.078-34.777a9.02,9.02,0,0,1,12.762.254l3.569,3.709a9.039,9.039,0,0,1-.227,12.773L545.44,109.24a9.021,9.021,0,0,1-12.762-.254l-3.569-3.709A9.039,9.039,0,0,1,529.336,92.5Z"/>
    <path id="Rounded_Rectangle_2_copy_12" data-name="Rounded Rectangle 2 copy 12" class="cls-29" d="M722.94,63.518l31.279,39.191a9.066,9.066,0,0,1-1.413,12.714l-4.01,3.223a9,9,0,0,1-12.674-1.395L704.843,78.06a9.067,9.067,0,0,1,1.413-12.714l4.011-3.223A8.994,8.994,0,0,1,722.94,63.518Z"/>
    <path id="Rounded_Rectangle_2_copy_12-2" data-name="Rounded Rectangle 2 copy 12" class="cls-29" d="M742.655,53.889l25.594,43.147a9.068,9.068,0,0,1-3.144,12.4l-4.414,2.639a8.991,8.991,0,0,1-12.358-3.132L722.739,65.8a9.07,9.07,0,0,1,3.144-12.4l4.414-2.639A8.992,8.992,0,0,1,742.655,53.889Z"/>
    <path id="Rounded_Rectangle_2_copy_12-3" data-name="Rounded Rectangle 2 copy 12" class="cls-29" d="M760.284,41.763l24.164,44A9.067,9.067,0,0,1,780.9,98.051l-4.5,2.489a8.994,8.994,0,0,1-12.246-3.548l-24.164-44A9.067,9.067,0,0,1,743.541,40.7l4.5-2.489A8.994,8.994,0,0,1,760.284,41.763Z"/>
    <path id="Rounded_Rectangle_2_copy_13" data-name="Rounded Rectangle 2 copy 13" class="cls-29" d="M784.473,29.787l17.252,47.138a9.067,9.067,0,0,1-5.36,11.615l-4.821,1.782a8.995,8.995,0,0,1-11.571-5.355L762.721,37.83a9.067,9.067,0,0,1,5.361-11.615l4.82-1.783A8.994,8.994,0,0,1,784.473,29.787Z"/>
    <path id="Rounded_Rectangle_2_copy_14" data-name="Rounded Rectangle 2 copy 14" class="cls-29" d="M802.473,17.787l17.252,47.138a9.067,9.067,0,0,1-5.36,11.615l-4.821,1.782a8.995,8.995,0,0,1-11.571-5.355L780.721,25.83a9.067,9.067,0,0,1,5.361-11.615l4.82-1.783A8.994,8.994,0,0,1,802.473,17.787Z"/>
    <path id="Rounded_Rectangle_2_copy_12-4" data-name="Rounded Rectangle 2 copy 12" class="cls-29" d="M646.047,155.386l6.879-49.79a8.993,8.993,0,0,0-7.7-10.165l-5.088-.685a9.07,9.07,0,0,0-10.175,7.759l-6.88,49.79a8.994,8.994,0,0,0,7.7,10.165l5.089,0.685A9.07,9.07,0,0,0,646.047,155.386Z"/>
    <path id="Rounded_Rectangle_2_copy_12-5" data-name="Rounded Rectangle 2 copy 12" class="cls-29" d="M667.892,153.428l-0.021-50.236a8.986,8.986,0,0,0-9.026-9l-5.137.024a9.08,9.08,0,0,0-9.018,9.085l0.021,50.236a8.986,8.986,0,0,0,9.026,9l5.137-.024A9.079,9.079,0,0,0,667.892,153.428Z"/>
    <path id="Rounded_Rectangle_2_copy_12-6" data-name="Rounded Rectangle 2 copy 12" class="cls-29" d="M690.935,145.522l-8.5-49.473a8.981,8.981,0,0,0-10.421-7.334l-5.063.895a9.086,9.086,0,0,0-7.362,10.476l8.5,49.473a8.981,8.981,0,0,0,10.421,7.334l5.063-.9A9.084,9.084,0,0,0,690.935,145.522Z"/>
    <path id="Rounded_Rectangle_2_copy_12-7" data-name="Rounded Rectangle 2 copy 12" class="cls-29" d="M714.274,136.154l-17.285-47.08a8.981,8.981,0,0,0-11.58-5.32l-4.822,1.8A9.084,9.084,0,0,0,675.23,97.18l17.285,47.08a8.981,8.981,0,0,0,11.58,5.32l4.822-1.8A9.085,9.085,0,0,0,714.274,136.154Z"/>
    <path id="Rounded_Rectangle_2_copy_12-8" data-name="Rounded Rectangle 2 copy 12" class="cls-29" d="M734.676,120.129l-23.6-44.219a8.986,8.986,0,0,0-12.207-3.668l-4.532,2.444a9.079,9.079,0,0,0-3.712,12.251l23.6,44.219a8.986,8.986,0,0,0,12.207,3.668l4.532-2.444A9.08,9.08,0,0,0,734.676,120.129Z"/>
    <path id="Rounded_Rectangle_2_copy_10-6" data-name="Rounded Rectangle 2 copy 10" class="cls-29" d="M446.965,9.766L442.14,59.689a9.032,9.032,0,0,0,8.117,9.858l5.117,0.5a9.025,9.025,0,0,0,9.855-8.115l4.825-49.923a9.032,9.032,0,0,0-8.117-9.858l-5.117-.5A9.025,9.025,0,0,0,446.965,9.766Z"/>
    <path id="Rounded_Rectangle_2_copy_10-7" data-name="Rounded Rectangle 2 copy 10" class="cls-29" d="M424.331,9.682l-0.576,50.154a9.032,9.032,0,0,0,8.923,9.134l5.141,0.061a9.025,9.025,0,0,0,9.131-8.921l0.576-50.154A9.032,9.032,0,0,0,438.6.821l-5.14-.061A9.024,9.024,0,0,0,424.331,9.682Z"/>
    <path id="Rounded_Rectangle_2_copy_15" data-name="Rounded Rectangle 2 copy 15" class="cls-29" d="M894.922,8.971l-17.5,47a9.031,9.031,0,0,0,5.312,11.612l4.818,1.795a9.026,9.026,0,0,0,11.611-5.307l17.5-47a9.029,9.029,0,0,0-5.311-11.612l-4.818-1.8A9.026,9.026,0,0,0,894.922,8.971Z"/>
    <path id="Rounded_Rectangle_2_copy_16" data-name="Rounded Rectangle 2 copy 16" class="cls-29" d="M914.922,15.971l-17.5,47a9.031,9.031,0,0,0,5.312,11.612l4.818,1.795a9.026,9.026,0,0,0,11.611-5.307l17.5-47a9.029,9.029,0,0,0-5.311-11.612l-4.818-1.795A9.026,9.026,0,0,0,914.922,15.971Z"/>
    <path id="Rounded_Rectangle_2_copy_15-2" data-name="Rounded Rectangle 2 copy 15" class="cls-29" d="M871.3,7.1L862.59,56.487a9.031,9.031,0,0,0,7.323,10.461l5.063,0.895a9.025,9.025,0,0,0,10.459-7.319l8.714-49.388A9.031,9.031,0,0,0,886.826.675L881.763-.22A9.025,9.025,0,0,0,871.3,7.1Z"/>
    <path id="Rounded_Rectangle_2_copy_15-3" data-name="Rounded Rectangle 2 copy 15" class="cls-29" d="M849.388,8.145l-1.83,50.12a9.031,9.031,0,0,0,8.693,9.354l5.138,0.189a9.025,9.025,0,0,0,9.352-8.689L872.571,9a9.031,9.031,0,0,0-8.693-9.354L858.74-.544A9.025,9.025,0,0,0,849.388,8.145Z"/>
    <path id="Rounded_Rectangle_2_copy_15-4" data-name="Rounded Rectangle 2 copy 15" class="cls-29" d="M826.971,13.62l6.673,49.71a9.033,9.033,0,0,0,10.15,7.75l5.1-.682a9.025,9.025,0,0,0,7.747-10.146l-6.673-49.71a9.031,9.031,0,0,0-10.149-7.75l-5.1.682A9.025,9.025,0,0,0,826.971,13.62Z"/>
    <path id="Rounded_Rectangle_2_copy_15-5" data-name="Rounded Rectangle 2 copy 15" class="cls-29" d="M804.913,18.694l10.863,48.967a9.032,9.032,0,0,0,10.77,6.862l5.019-1.112a9.024,9.024,0,0,0,6.858-10.766L827.56,13.677a9.032,9.032,0,0,0-10.77-6.862l-5.019,1.112A9.024,9.024,0,0,0,804.913,18.694Z"/>
    <path id="Rounded_Rectangle_2_copy_10-8" data-name="Rounded Rectangle 2 copy 10" class="cls-29" d="M402.879,14.274l6.335,49.758a9.03,9.03,0,0,0,10.1,7.819l5.1-.648a9.024,9.024,0,0,0,7.815-10.094L425.89,11.352a9.032,9.032,0,0,0-10.1-7.819l-5.1.648A9.026,9.026,0,0,0,402.879,14.274Z"/>
    <path id="Rounded_Rectangle_2_copy_10-9" data-name="Rounded Rectangle 2 copy 10" class="cls-29" d="M381.652,23.317L396.309,71.29a9.03,9.03,0,0,0,11.271,6l4.917-1.5a9.025,9.025,0,0,0,6-11.271L403.835,16.545a9.03,9.03,0,0,0-11.271-6l-4.917,1.5A9.025,9.025,0,0,0,381.652,23.317Z"/>
  </g>
  <g id="Pipe_2" data-name="Pipe 2">
    <rect id="Rounded_Rectangle_2_copy_9-10" data-name="Rounded Rectangle 2 copy 9" class="cls-30" x="820" y="146.875" width="68" height="23.125" rx="9" ry="9"/>
    <path id="Rounded_Rectangle_2_copy_9-11" data-name="Rounded Rectangle 2 copy 9" class="cls-29" d="M833.83,125.543l49.524,6.884a9,9,0,0,1,7.675,10.154l-0.706,5.076a9,9,0,0,1-10.153,7.675l-49.524-6.884a9,9,0,0,1-7.675-10.154l0.706-5.076A9,9,0,0,1,833.83,125.543Z"/>
    <path id="Rounded_Rectangle_2_copy_9-12" data-name="Rounded Rectangle 2 copy 9" class="cls-29" d="M844.683,103.839L892.329,119a9,9,0,0,1,5.847,11.305l-1.553,4.884a9,9,0,0,1-11.306,5.848l-47.646-15.16a9,9,0,0,1-5.847-11.305l1.553-4.884A9,9,0,0,1,844.683,103.839Z"/>
    <path id="Rounded_Rectangle_2_copy_9-13" data-name="Rounded Rectangle 2 copy 9" class="cls-29" d="M857.736,84.157l44.121,23.523a9,9,0,0,1,3.708,12.176l-2.411,4.522a9,9,0,0,1-12.176,3.708l-44.121-23.523a9,9,0,0,1-3.708-12.175l2.411-4.522A9,9,0,0,1,857.736,84.157Z"/>
    <path id="Rounded_Rectangle_2_copy_9-14" data-name="Rounded Rectangle 2 copy 9" class="cls-29" d="M872.034,67.606L912.5,96.979a9,9,0,0,1,2,12.571l-3.011,4.147a9,9,0,0,1-12.57,2L858.448,86.32a9,9,0,0,1-2-12.57l3.011-4.147A9,9,0,0,1,872.034,67.606Z"/>
    <path id="Rounded_Rectangle_2_copy_9-15" data-name="Rounded Rectangle 2 copy 9" class="cls-29" d="M890.115,53.383l34.912,35.793a9,9,0,0,1-.158,12.727l-3.669,3.578a9,9,0,0,1-12.727-.158L873.561,69.53A9,9,0,0,1,873.72,56.8l3.668-3.578A9,9,0,0,1,890.115,53.383Z"/>
    <path id="Rounded_Rectangle_2_copy_9-16" data-name="Rounded Rectangle 2 copy 9" class="cls-29" d="M907.662,39.194l31.752,38.624a9,9,0,0,1-1.237,12.668l-3.959,3.255A9,9,0,0,1,921.55,92.5L889.8,53.88a9,9,0,0,1,1.237-12.668l3.959-3.255A9,9,0,0,1,907.662,39.194Z"/>
    <path id="Rounded_Rectangle_2_copy_9-17" data-name="Rounded Rectangle 2 copy 9" class="cls-29" d="M927.207,29.379l26.132,42.628a9,9,0,0,1-2.969,12.377L946,87.062a9,9,0,0,1-12.377-2.969L907.492,41.465a9,9,0,0,1,2.969-12.377l4.37-2.679A9,9,0,0,1,927.207,29.379Z"/>
    <path id="Rounded_Rectangle_2_copy_9-18" data-name="Rounded Rectangle 2 copy 9" class="cls-29" d="M949.357,23.163L967.9,69.6a9,9,0,0,1-5.02,11.7l-4.759,1.9a9,9,0,0,1-11.7-5.019L927.882,31.741a9,9,0,0,1,5.019-11.7l4.76-1.9A9,9,0,0,1,949.357,23.163Z"/>
    <path id="Rounded_Rectangle_2_copy_10-10" data-name="Rounded Rectangle 2 copy 10" class="cls-29" d="M1120.48,44.541l-39.1,31.392a9.028,9.028,0,0,0-1.39,12.692l3.22,4.01a9.026,9.026,0,0,0,12.69,1.391l39.11-31.392a9.027,9.027,0,0,0,1.38-12.692l-3.22-4.01A9.026,9.026,0,0,0,1120.48,44.541Z"/>
    <path id="Rounded_Rectangle_2_copy_10-11" data-name="Rounded Rectangle 2 copy 10" class="cls-29" d="M1103.31,30.884L1068.9,67.363a9.027,9.027,0,0,0,.37,12.763l3.74,3.528a9.025,9.025,0,0,0,12.76-.37l34.41-36.479a9.027,9.027,0,0,0-.37-12.763l-3.74-3.529A9.025,9.025,0,0,0,1103.31,30.884Z"/>
    <path id="Rounded_Rectangle_2_copy_10-12" data-name="Rounded Rectangle 2 copy 10" class="cls-29" d="M1081.19,20.717l-27.75,41.775a9.041,9.041,0,0,0,2.53,12.516l4.28,2.845a9.032,9.032,0,0,0,12.52-2.523l27.74-41.775a9.03,9.03,0,0,0-2.52-12.516l-4.29-2.845A9.022,9.022,0,0,0,1081.19,20.717Z"/>
    <path id="Rounded_Rectangle_2_copy_10-13" data-name="Rounded Rectangle 2 copy 10" class="cls-29" d="M1058.62,13.514l-19.74,46.105a9.037,9.037,0,0,0,4.75,11.854l4.73,2.025a9.024,9.024,0,0,0,11.85-4.744l19.73-46.1a9.032,9.032,0,0,0-4.74-11.854l-4.73-2.024A9.024,9.024,0,0,0,1058.62,13.514Z"/>
    <path id="Rounded_Rectangle_2_copy_10-14" data-name="Rounded Rectangle 2 copy 10" class="cls-29" d="M1037.04,9.541l-13.2,48.385a9.037,9.037,0,0,0,6.34,11.088l4.96,1.355a9.018,9.018,0,0,0,11.08-6.331l13.2-48.385a9.031,9.031,0,0,0-6.33-11.088l-4.96-1.355A9.029,9.029,0,0,0,1037.04,9.541Z"/>
    <path id="Rounded_Rectangle_2_copy_11-6" data-name="Rounded Rectangle 2 copy 11" class="cls-29" d="M1167.09,149.059l8.74-49.4a9,9,0,0,1,10.46-7.3l5.06,0.907a9.05,9.05,0,0,1,7.31,10.486l-8.74,49.4a9,9,0,0,1-10.46,7.3l-5.06-.908A9.05,9.05,0,0,1,1167.09,149.059Z"/>
    <path id="Rounded_Rectangle_2_copy_11-7" data-name="Rounded Rectangle 2 copy 11" class="cls-29" d="M1146.87,140.509L1162.32,92.8a9.009,9.009,0,0,1,11.37-5.785l4.89,1.6a9.051,9.051,0,0,1,5.8,11.391l-15.45,47.712a9.009,9.009,0,0,1-11.37,5.785l-4.89-1.6A9.051,9.051,0,0,1,1146.87,140.509Z"/>
    <path id="Rounded_Rectangle_2_copy_11-8" data-name="Rounded Rectangle 2 copy 11" class="cls-29" d="M1127.33,125.943l23.3-44.391a9.012,9.012,0,0,1,12.19-3.776l4.55,2.4a9.061,9.061,0,0,1,3.8,12.205l-23.3,44.391a9.015,9.015,0,0,1-12.19,3.776l-4.55-2.4A9.062,9.062,0,0,1,1127.33,125.943Z"/>
    <path id="Rounded_Rectangle_2_copy_11-9" data-name="Rounded Rectangle 2 copy 11" class="cls-29" d="M1110.18,109.561l30.94-39.428a9.013,9.013,0,0,1,12.67-1.507l4.05,3.183a9.052,9.052,0,0,1,1.53,12.687l-30.94,39.428a9.014,9.014,0,0,1-12.67,1.507l-4.05-3.183A9.044,9.044,0,0,1,1110.18,109.561Z"/>
    <path id="Rounded_Rectangle_2_copy_11-10" data-name="Rounded Rectangle 2 copy 11" class="cls-29" d="M1096.34,92.5l36.07-34.777a9.03,9.03,0,0,1,12.77.254l3.56,3.709a9.037,9.037,0,0,1-.22,12.773l-36.08,34.777a9.018,9.018,0,0,1-12.76-.254l-3.57-3.709A9.038,9.038,0,0,1,1096.34,92.5Z"/>
    <path id="Rounded_Rectangle_2_copy_12-9" data-name="Rounded Rectangle 2 copy 12" class="cls-29" d="M1289.94,63.518l31.28,39.191a9.066,9.066,0,0,1-1.41,12.714l-4.01,3.223a9,9,0,0,1-12.68-1.395L1271.84,78.06a9.067,9.067,0,0,1,1.42-12.714l4.01-3.223A8.99,8.99,0,0,1,1289.94,63.518Z"/>
    <path id="Rounded_Rectangle_2_copy_12-10" data-name="Rounded Rectangle 2 copy 12" class="cls-29" d="M1309.66,53.889l25.59,43.147a9.066,9.066,0,0,1-3.15,12.4l-4.41,2.639a9,9,0,0,1-12.36-3.132L1289.74,65.8a9.063,9.063,0,0,1,3.14-12.4l4.42-2.639A9,9,0,0,1,1309.66,53.889Z"/>
    <path id="Rounded_Rectangle_2_copy_12-11" data-name="Rounded Rectangle 2 copy 12" class="cls-29" d="M1327.28,41.763l24.17,44a9.071,9.071,0,0,1-3.55,12.291l-4.5,2.489a8.987,8.987,0,0,1-12.24-3.548l-24.17-44a9.071,9.071,0,0,1,3.55-12.291l4.5-2.489A8.987,8.987,0,0,1,1327.28,41.763Z"/>
    <path id="Rounded_Rectangle_2_copy_13-2" data-name="Rounded Rectangle 2 copy 13" class="cls-29" d="M1351.47,29.787l17.25,47.138a9.059,9.059,0,0,1-5.36,11.615l-4.82,1.782a9,9,0,0,1-11.57-5.355L1329.72,37.83a9.075,9.075,0,0,1,5.36-11.615l4.82-1.783A8.99,8.99,0,0,1,1351.47,29.787Z"/>
    <path id="Rounded_Rectangle_2_copy_14-2" data-name="Rounded Rectangle 2 copy 14" class="cls-29" d="M1369.47,17.787l17.25,47.138a9.059,9.059,0,0,1-5.36,11.615l-4.82,1.782a9,9,0,0,1-11.57-5.355L1347.72,25.83a9.075,9.075,0,0,1,5.36-11.615l4.82-1.783A8.99,8.99,0,0,1,1369.47,17.787Z"/>
    <path id="Rounded_Rectangle_2_copy_17" data-name="Rounded Rectangle 2 copy 17" class="cls-29" d="M1391.44,11.4l10.25,49.137a9.062,9.062,0,0,1-6.98,10.719l-5.03,1.067a8.992,8.992,0,0,1-10.67-6.971l-10.26-49.136A9.07,9.07,0,0,1,1375.73,5.5l5.03-1.067A9,9,0,0,1,1391.44,11.4Z"/>
    <path id="Rounded_Rectangle_2_copy_18" data-name="Rounded Rectangle 2 copy 18" class="cls-29" d="M1414.9,8.444l3.76,50.055a9.062,9.062,0,0,1-8.32,9.717l-5.12.4a9,9,0,0,1-9.68-8.3l-3.76-50.055A9.069,9.069,0,0,1,1400.1.543l5.12-.4A9,9,0,0,1,1414.9,8.444Z"/>
    <path id="Rounded_Rectangle_2_copy_12-12" data-name="Rounded Rectangle 2 copy 12" class="cls-29" d="M1213.05,155.386l6.88-49.79a9,9,0,0,0-7.7-10.165l-5.09-.685a9.061,9.061,0,0,0-10.17,7.759l-6.88,49.79a8.987,8.987,0,0,0,7.69,10.165l5.09,0.685A9.075,9.075,0,0,0,1213.05,155.386Z"/>
    <path id="Rounded_Rectangle_2_copy_12-13" data-name="Rounded Rectangle 2 copy 12" class="cls-29" d="M1234.89,153.428l-0.02-50.236a8.981,8.981,0,0,0-9.02-9l-5.14.024a9.084,9.084,0,0,0-9.02,9.085l0.02,50.236a8.984,8.984,0,0,0,9.03,9l5.13-.024A9.078,9.078,0,0,0,1234.89,153.428Z"/>
    <path id="Rounded_Rectangle_2_copy_12-14" data-name="Rounded Rectangle 2 copy 12" class="cls-29" d="M1257.94,145.522l-8.5-49.473a8.982,8.982,0,0,0-10.42-7.334l-5.06.895a9.087,9.087,0,0,0-7.37,10.476l8.5,49.473a8.978,8.978,0,0,0,10.42,7.334l5.06-.9A9.094,9.094,0,0,0,1257.94,145.522Z"/>
    <path id="Rounded_Rectangle_2_copy_12-15" data-name="Rounded Rectangle 2 copy 12" class="cls-29" d="M1281.27,136.154l-17.28-47.08a8.98,8.98,0,0,0-11.58-5.32l-4.82,1.8a9.082,9.082,0,0,0-5.36,11.629l17.29,47.08a8.969,8.969,0,0,0,11.57,5.32l4.83-1.8A9.086,9.086,0,0,0,1281.27,136.154Z"/>
    <path id="Rounded_Rectangle_2_copy_12-16" data-name="Rounded Rectangle 2 copy 12" class="cls-29" d="M1301.68,120.129l-23.6-44.219a8.989,8.989,0,0,0-12.21-3.668l-4.53,2.444a9.071,9.071,0,0,0-3.71,12.251l23.59,44.219a8.992,8.992,0,0,0,12.21,3.668l4.53-2.444A9.084,9.084,0,0,0,1301.68,120.129Z"/>
    <path id="Rounded_Rectangle_2_copy_10-15" data-name="Rounded Rectangle 2 copy 10" class="cls-29" d="M1013.97,9.766l-4.83,49.923a9.028,9.028,0,0,0,8.12,9.858l5.11,0.5a9.026,9.026,0,0,0,9.86-8.115l4.82-49.923a9.028,9.028,0,0,0-8.11-9.858l-5.12-.5A9.022,9.022,0,0,0,1013.97,9.766Z"/>
    <path id="Rounded_Rectangle_2_copy_10-16" data-name="Rounded Rectangle 2 copy 10" class="cls-29" d="M991.331,9.682l-0.576,50.154a9.032,9.032,0,0,0,8.923,9.134l5.142,0.061a9.029,9.029,0,0,0,9.13-8.921l0.58-50.154A9.039,9.039,0,0,0,1005.6.821l-5.14-.061A9.024,9.024,0,0,0,991.331,9.682Z"/>
    <path id="Rounded_Rectangle_2_copy_10-17" data-name="Rounded Rectangle 2 copy 10" class="cls-29" d="M969.879,14.274l6.335,49.758a9.03,9.03,0,0,0,10.095,7.819l5.1-.648a9.024,9.024,0,0,0,7.815-10.094L992.89,11.352a9.032,9.032,0,0,0-10.1-7.819l-5.1.648A9.026,9.026,0,0,0,969.879,14.274Z"/>
    <path id="Rounded_Rectangle_2_copy_10-18" data-name="Rounded Rectangle 2 copy 10" class="cls-29" d="M948.652,23.317L963.309,71.29a9.03,9.03,0,0,0,11.271,6l4.917-1.5a9.025,9.025,0,0,0,6-11.271L970.835,16.545a9.03,9.03,0,0,0-11.271-6l-4.917,1.5A9.025,9.025,0,0,0,948.652,23.317Z"/>
  </g>
  <g id="Pipe_5" data-name="Pipe 5">
    <rect id="Rounded_Rectangle_2_copy_9-19" data-name="Rounded Rectangle 2 copy 9" class="cls-30" x="2531.03" y="146.812" width="67.97" height="23.188" rx="9" ry="9"/>
    <path id="Rounded_Rectangle_2_copy_9-20" data-name="Rounded Rectangle 2 copy 9" class="cls-29" d="M2585.18,125.429l-49.51,6.9A9.013,9.013,0,0,0,2528,142.51l0.7,5.089a9.006,9.006,0,0,0,10.15,7.7l49.51-6.9a9.021,9.021,0,0,0,7.67-10.18l-0.71-5.089A8.991,8.991,0,0,0,2585.18,125.429Z"/>
    <path id="Rounded_Rectangle_2_copy_9-21" data-name="Rounded Rectangle 2 copy 9" class="cls-29" d="M2574.33,103.67l-47.63,15.2a9.031,9.031,0,0,0-5.85,11.334l1.56,4.9a8.985,8.985,0,0,0,11.3,5.862l47.63-15.2a9.026,9.026,0,0,0,5.84-11.334l-1.55-4.9A8.993,8.993,0,0,0,2574.33,103.67Z"/>
    <path id="Rounded_Rectangle_2_copy_9-22" data-name="Rounded Rectangle 2 copy 9" class="cls-29" d="M2561.28,83.937l-44.11,23.583a9.036,9.036,0,0,0-3.7,12.207l2.41,4.534a8.979,8.979,0,0,0,12.17,3.718l44.1-23.583a9.031,9.031,0,0,0,3.71-12.208l-2.41-4.534A8.984,8.984,0,0,0,2561.28,83.937Z"/>
    <path id="Rounded_Rectangle_2_copy_9-23" data-name="Rounded Rectangle 2 copy 9" class="cls-29" d="M2546.99,67.343l-40.45,29.449a9.042,9.042,0,0,0-2,12.6l3.01,4.158a8.986,8.986,0,0,0,12.57,2l40.45-29.449a9.039,9.039,0,0,0,1.99-12.6l-3.01-4.158A8.973,8.973,0,0,0,2546.99,67.343Z"/>
    <path id="Rounded_Rectangle_2_copy_9-24" data-name="Rounded Rectangle 2 copy 9" class="cls-29" d="M2528.91,53.084l-34.9,35.885a9.038,9.038,0,0,0,.16,12.759l3.67,3.588a8.976,8.976,0,0,0,12.72-.159l34.9-35.885a9.038,9.038,0,0,0-.16-12.76l-3.67-3.588A8.975,8.975,0,0,0,2528.91,53.084Z"/>
    <path id="Rounded_Rectangle_2_copy_9-25" data-name="Rounded Rectangle 2 copy 9" class="cls-29" d="M2511.37,38.859l-31.74,38.723a9.036,9.036,0,0,0,1.24,12.7l3.95,3.263a8.987,8.987,0,0,0,12.67-1.24l31.74-38.723a9.045,9.045,0,0,0-1.24-12.7l-3.96-3.263A8.976,8.976,0,0,0,2511.37,38.859Z"/>
    <path id="Rounded_Rectangle_2_copy_9-26" data-name="Rounded Rectangle 2 copy 9" class="cls-29" d="M2491.83,29.018l-26.12,42.737a9.033,9.033,0,0,0,2.97,12.409l4.37,2.685a8.981,8.981,0,0,0,12.37-2.977l26.12-42.737a9.033,9.033,0,0,0-2.97-12.408l-4.37-2.685A8.981,8.981,0,0,0,2491.83,29.018Z"/>
    <path id="Rounded_Rectangle_2_copy_9-27" data-name="Rounded Rectangle 2 copy 9" class="cls-29" d="M2469.69,22.786l-18.54,46.552a9.031,9.031,0,0,0,5.02,11.726l4.76,1.906a8.99,8.99,0,0,0,11.69-5.032l18.54-46.552a9.039,9.039,0,0,0-5.02-11.726l-4.76-1.906A8.986,8.986,0,0,0,2469.69,22.786Z"/>
    <path id="Rounded_Rectangle_2_copy_10-19" data-name="Rounded Rectangle 2 copy 10" class="cls-29" d="M2298.63,44.219l39.09,31.473a9.066,9.066,0,0,1,1.38,12.725l-3.21,4.02a9.01,9.01,0,0,1-12.69,1.394l-39.09-31.473a9.067,9.067,0,0,1-1.39-12.725l3.22-4.02A9.01,9.01,0,0,1,2298.63,44.219Z"/>
    <path id="Rounded_Rectangle_2_copy_10-20" data-name="Rounded Rectangle 2 copy 10" class="cls-29" d="M2315.8,30.527L2350.19,67.1a9.067,9.067,0,0,1-.37,12.8l-3.74,3.538a9.009,9.009,0,0,1-12.76-.371l-34.39-36.573a9.067,9.067,0,0,1,.37-12.8l3.74-3.537A9.009,9.009,0,0,1,2315.8,30.527Z"/>
    <path id="Rounded_Rectangle_2_copy_10-21" data-name="Rounded Rectangle 2 copy 10" class="cls-29" d="M2337.91,20.334l27.73,41.883a9.061,9.061,0,0,1-2.53,12.548l-4.28,2.853a9.007,9.007,0,0,1-12.51-2.529l-27.73-41.883a9.061,9.061,0,0,1,2.53-12.548l4.28-2.853A9.007,9.007,0,0,1,2337.91,20.334Z"/>
    <path id="Rounded_Rectangle_2_copy_10-22" data-name="Rounded Rectangle 2 copy 10" class="cls-29" d="M2360.47,13.113l19.73,46.223a9.069,9.069,0,0,1-4.75,11.884l-4.72,2.03a9.012,9.012,0,0,1-11.85-4.756l-19.73-46.223a9.069,9.069,0,0,1,4.75-11.884l4.72-2.03A9.015,9.015,0,0,1,2360.47,13.113Z"/>
    <path id="Rounded_Rectangle_2_copy_10-23" data-name="Rounded Rectangle 2 copy 10" class="cls-29" d="M2382.04,9.13l13.19,48.509a9.057,9.057,0,0,1-6.33,11.116l-4.96,1.358a9.016,9.016,0,0,1-11.08-6.347l-13.19-48.509A9.057,9.057,0,0,1,2366,4.141l4.96-1.358A9.016,9.016,0,0,1,2382.04,9.13Z"/>
    <path id="Rounded_Rectangle_2_copy_11-11" data-name="Rounded Rectangle 2 copy 11" class="cls-29" d="M2252.04,149.005l-8.74-49.528a9,9,0,0,0-10.45-7.317l-5.06.91a9.071,9.071,0,0,0-7.31,10.512l8.73,49.529a9.006,9.006,0,0,0,10.46,7.317l5.06-.91A9.071,9.071,0,0,0,2252.04,149.005Z"/>
    <path id="Rounded_Rectangle_2_copy_11-12" data-name="Rounded Rectangle 2 copy 11" class="cls-29" d="M2272.25,140.434L2256.8,92.6a8.99,8.99,0,0,0-11.36-5.8l-4.89,1.6a9.079,9.079,0,0,0-5.8,11.42l15.45,47.835a8.994,8.994,0,0,0,11.36,5.8l4.89-1.6A9.079,9.079,0,0,0,2272.25,140.434Z"/>
    <path id="Rounded_Rectangle_2_copy_11-13" data-name="Rounded Rectangle 2 copy 11" class="cls-29" d="M2291.78,125.83l-23.29-44.5a8.992,8.992,0,0,0-12.18-3.785l-4.55,2.406a9.1,9.1,0,0,0-3.8,12.237l23.29,44.505a8.992,8.992,0,0,0,12.18,3.785l4.55-2.406A9.078,9.078,0,0,0,2291.78,125.83Z"/>
    <path id="Rounded_Rectangle_2_copy_11-14" data-name="Rounded Rectangle 2 copy 11" class="cls-29" d="M2308.93,109.406L2278,69.877a9,9,0,0,0-12.67-1.511l-4.04,3.191a9.082,9.082,0,0,0-1.53,12.719l30.93,39.529a8.984,8.984,0,0,0,12.66,1.512l4.04-3.192A9.083,9.083,0,0,0,2308.93,109.406Z"/>
    <path id="Rounded_Rectangle_2_copy_11-15" data-name="Rounded Rectangle 2 copy 11" class="cls-29" d="M2322.77,92.3L2286.7,57.439a9,9,0,0,0-12.76.255l-3.56,3.719a9.086,9.086,0,0,0,.22,12.806l36.07,34.866a8.99,8.99,0,0,0,12.75-.254l3.57-3.719A9.086,9.086,0,0,0,2322.77,92.3Z"/>
    <path id="Rounded_Rectangle_2_copy_12-17" data-name="Rounded Rectangle 2 copy 12" class="cls-29" d="M2129.23,63.245l-31.27,39.291a9.116,9.116,0,0,0,1.42,12.747l4.01,3.231a8.963,8.963,0,0,0,12.66-1.4l31.27-39.291a9.1,9.1,0,0,0-1.41-12.747l-4.01-3.231A8.975,8.975,0,0,0,2129.23,63.245Z"/>
    <path id="Rounded_Rectangle_2_copy_12-18" data-name="Rounded Rectangle 2 copy 12" class="cls-29" d="M2109.52,53.592l-25.58,43.257a9.109,9.109,0,0,0,3.14,12.433l4.41,2.646a8.984,8.984,0,0,0,12.36-3.14l25.58-43.258a9.1,9.1,0,0,0-3.14-12.433l-4.41-2.646A8.983,8.983,0,0,0,2109.52,53.592Z"/>
    <path id="Rounded_Rectangle_2_copy_12-19" data-name="Rounded Rectangle 2 copy 12" class="cls-29" d="M2091.9,41.434l-24.15,44.11a9.094,9.094,0,0,0,3.54,12.322l4.5,2.5a8.975,8.975,0,0,0,12.24-3.557l24.15-44.11a9.1,9.1,0,0,0-3.54-12.322l-4.5-2.5A8.975,8.975,0,0,0,2091.9,41.434Z"/>
    <path id="Rounded_Rectangle_2_copy_13-3" data-name="Rounded Rectangle 2 copy 13" class="cls-29" d="M2067.72,29.428l-17.24,47.259a9.092,9.092,0,0,0,5.35,11.645l4.82,1.787a8.983,8.983,0,0,0,11.57-5.368l17.24-47.259a9.092,9.092,0,0,0-5.35-11.645l-4.82-1.787A8.987,8.987,0,0,0,2067.72,29.428Z"/>
    <path id="Rounded_Rectangle_2_copy_14-3" data-name="Rounded Rectangle 2 copy 14" class="cls-29" d="M2049.73,17.4l-17.25,47.259a9.105,9.105,0,0,0,5.36,11.645l4.82,1.787a8.991,8.991,0,0,0,11.57-5.368l17.24-47.259a9.089,9.089,0,0,0-5.36-11.645l-4.82-1.787A8.976,8.976,0,0,0,2049.73,17.4Z"/>
    <path id="Rounded_Rectangle_2_copy_12-20" data-name="Rounded Rectangle 2 copy 12" class="cls-29" d="M2206.1,155.349l-6.88-49.918a9.015,9.015,0,0,1,7.69-10.191l5.09-.687a9.065,9.065,0,0,1,10.17,7.779l6.88,49.918a9.014,9.014,0,0,1-7.7,10.191l-5.08.687A9.066,9.066,0,0,1,2206.1,155.349Z"/>
    <path id="Rounded_Rectangle_2_copy_12-21" data-name="Rounded Rectangle 2 copy 12" class="cls-29" d="M2184.26,153.385l0.02-50.365A8.993,8.993,0,0,1,2193.3,94l5.14,0.024a9.087,9.087,0,0,1,9.01,9.109l-0.02,50.365a8.993,8.993,0,0,1-9.02,9.023l-5.14-.024A9.088,9.088,0,0,1,2184.26,153.385Z"/>
    <path id="Rounded_Rectangle_2_copy_12-22" data-name="Rounded Rectangle 2 copy 12" class="cls-29" d="M2161.22,145.459l8.5-49.6a8.979,8.979,0,0,1,10.42-7.353l5.06,0.9a9.116,9.116,0,0,1,7.36,10.5l-8.5,49.6a8.979,8.979,0,0,1-10.42,7.353l-5.06-.9A9.109,9.109,0,0,1,2161.22,145.459Z"/>
    <path id="Rounded_Rectangle_2_copy_12-23" data-name="Rounded Rectangle 2 copy 12" class="cls-29" d="M2137.89,136.068l17.28-47.2a8.974,8.974,0,0,1,11.58-5.333l4.82,1.8a9.115,9.115,0,0,1,5.35,11.659l-17.27,47.2a8.978,8.978,0,0,1-11.58,5.334l-4.82-1.8A9.12,9.12,0,0,1,2137.89,136.068Z"/>
    <path id="Rounded_Rectangle_2_copy_12-24" data-name="Rounded Rectangle 2 copy 12" class="cls-29" d="M2117.5,120l23.59-44.332a8.966,8.966,0,0,1,12.2-3.677l4.53,2.45a9.106,9.106,0,0,1,3.71,12.282l-23.59,44.332a8.963,8.963,0,0,1-12.2,3.677l-4.53-2.45A9.124,9.124,0,0,1,2117.5,120Z"/>
    <path id="Rounded_Rectangle_2_copy_10-24" data-name="Rounded Rectangle 2 copy 10" class="cls-29" d="M2405.11,9.355l4.82,50.051a9.045,9.045,0,0,1-8.12,9.883l-5.11.5a9.028,9.028,0,0,1-9.85-8.135L2382.03,11.6a9.045,9.045,0,0,1,8.11-9.883l5.11-.5A9.032,9.032,0,0,1,2405.11,9.355Z"/>
    <path id="Rounded_Rectangle_2_copy_10-25" data-name="Rounded Rectangle 2 copy 10" class="cls-29" d="M2427.73,9.271l0.58,50.283a9.049,9.049,0,0,1-8.92,9.158l-5.14.061a9.034,9.034,0,0,1-9.13-8.944l-0.57-50.283a9.036,9.036,0,0,1,8.92-9.158l5.13-.061A9.034,9.034,0,0,1,2427.73,9.271Z"/>
    <path id="Rounded_Rectangle_2_copy_15-6" data-name="Rounded Rectangle 2 copy 15" class="cls-29" d="M1957.31,8.558l17.49,47.117a9.056,9.056,0,0,1-5.3,11.641l-4.82,1.8a9.02,9.02,0,0,1-11.61-5.321l-17.49-47.117a9.061,9.061,0,0,1,5.31-11.641l4.82-1.8A9.009,9.009,0,0,1,1957.31,8.558Z"/>
    <path id="Rounded_Rectangle_2_copy_16-2" data-name="Rounded Rectangle 2 copy 16" class="cls-29" d="M1937.32,15.576l17.49,47.117a9.061,9.061,0,0,1-5.31,11.641l-4.81,1.8a9.02,9.02,0,0,1-11.61-5.321L1915.59,23.7a9.061,9.061,0,0,1,5.31-11.641l4.81-1.8A9.02,9.02,0,0,1,1937.32,15.576Z"/>
    <path id="Rounded_Rectangle_2_copy_15-7" data-name="Rounded Rectangle 2 copy 15" class="cls-29" d="M1980.92,6.681l8.71,49.515a9.048,9.048,0,0,1-7.32,10.488l-5.06.9a9.015,9.015,0,0,1-10.45-7.338l-8.71-49.515A9.048,9.048,0,0,1,1965.41.24l5.06-.9A9.015,9.015,0,0,1,1980.92,6.681Z"/>
    <path id="Rounded_Rectangle_2_copy_15-8" data-name="Rounded Rectangle 2 copy 15" class="cls-29" d="M2002.83,7.73l1.83,50.248a9.046,9.046,0,0,1-8.69,9.378l-5.14.19a9.039,9.039,0,0,1-9.35-8.712l-1.82-50.248a9.033,9.033,0,0,1,8.69-9.378l5.13-.19A9.033,9.033,0,0,1,2002.83,7.73Z"/>
    <path id="Rounded_Rectangle_2_copy_15-9" data-name="Rounded Rectangle 2 copy 15" class="cls-29" d="M2025.24,13.219l-6.67,49.837a9.041,9.041,0,0,1-10.15,7.769l-5.09-.684a9.049,9.049,0,0,1-7.75-10.172l6.68-49.837a9.026,9.026,0,0,1,10.14-7.77l5.09,0.684A9.049,9.049,0,0,1,2025.24,13.219Z"/>
    <path id="Rounded_Rectangle_2_copy_15-10" data-name="Rounded Rectangle 2 copy 15" class="cls-29" d="M2047.29,18.306L2036.43,67.4a9.031,9.031,0,0,1-10.77,6.879l-5.01-1.115a9.047,9.047,0,0,1-6.86-10.794l10.86-49.092A9.031,9.031,0,0,1,2035.42,6.4l5.01,1.115A9.047,9.047,0,0,1,2047.29,18.306Z"/>
    <path id="Rounded_Rectangle_2_copy_10-26" data-name="Rounded Rectangle 2 copy 10" class="cls-29" d="M2449.18,13.875l-6.34,49.886a9.029,9.029,0,0,1-10.09,7.839l-5.1-.649a9.044,9.044,0,0,1-7.81-10.12l6.33-49.885a9.038,9.038,0,0,1,10.1-7.839l5.09,0.649A9.051,9.051,0,0,1,2449.18,13.875Z"/>
    <path id="Rounded_Rectangle_2_copy_10-27" data-name="Rounded Rectangle 2 copy 10" class="cls-29" d="M2470.4,22.941l-14.66,48.1a9.014,9.014,0,0,1-11.26,6.015l-4.92-1.5a9.046,9.046,0,0,1-5.99-11.3l14.65-48.1a9.025,9.025,0,0,1,11.27-6.015l4.91,1.5A9.06,9.06,0,0,1,2470.4,22.941Z"/>
  </g>
  <g id="Pipe_4" data-name="Pipe 4">
    <rect id="Rounded_Rectangle_2_copy_9-28" data-name="Rounded Rectangle 2 copy 9" class="cls-30" x="1958.97" y="146.844" width="68.03" height="23.156" rx="9" ry="9"/>
    <path id="Rounded_Rectangle_2_copy_9-29" data-name="Rounded Rectangle 2 copy 9" class="cls-29" d="M2013.16,125.51l-49.55,6.889a9.015,9.015,0,0,0-7.68,10.161l0.71,5.08a9,9,0,0,0,10.16,7.681l49.55-6.889a9.015,9.015,0,0,0,7.68-10.161l-0.71-5.08A9,9,0,0,0,2013.16,125.51Z"/>
    <path id="Rounded_Rectangle_2_copy_9-30" data-name="Rounded Rectangle 2 copy 9" class="cls-29" d="M2002.3,103.791l-47.67,15.171a9,9,0,0,0-5.85,11.313l1.56,4.888a9,9,0,0,0,11.31,5.851l47.67-15.171a9,9,0,0,0,5.85-11.313l-1.55-4.888A9.013,9.013,0,0,0,2002.3,103.791Z"/>
    <path id="Rounded_Rectangle_2_copy_9-31" data-name="Rounded Rectangle 2 copy 9" class="cls-29" d="M1989.24,84.094l-44.14,23.54a9.006,9.006,0,0,0-3.71,12.185l2.41,4.526a9.013,9.013,0,0,0,12.19,3.71l44.14-23.54a9.006,9.006,0,0,0,3.71-12.185l-2.41-4.526A9.012,9.012,0,0,0,1989.24,84.094Z"/>
    <path id="Rounded_Rectangle_2_copy_9-32" data-name="Rounded Rectangle 2 copy 9" class="cls-29" d="M1974.94,67.531l-40.48,29.395a9,9,0,0,0-2,12.58l3.01,4.151a9.006,9.006,0,0,0,12.58,2l40.48-29.395a9,9,0,0,0,2-12.58l-3.01-4.15A9.009,9.009,0,0,0,1974.94,67.531Z"/>
    <path id="Rounded_Rectangle_2_copy_9-33" data-name="Rounded Rectangle 2 copy 9" class="cls-29" d="M1956.85,53.3l-34.93,35.819a9.011,9.011,0,0,0,.16,12.737l3.67,3.581a9,9,0,0,0,12.73-.159l34.93-35.819a9.01,9.01,0,0,0-.16-12.736l-3.67-3.581A9,9,0,0,0,1956.85,53.3Z"/>
    <path id="Rounded_Rectangle_2_copy_9-34" data-name="Rounded Rectangle 2 copy 9" class="cls-29" d="M1939.29,39.1l-31.77,38.652a9.017,9.017,0,0,0,1.24,12.677l3.96,3.257a9.01,9.01,0,0,0,12.68-1.238l31.77-38.652a9.017,9.017,0,0,0-1.24-12.677l-3.96-3.257A9.01,9.01,0,0,0,1939.29,39.1Z"/>
    <path id="Rounded_Rectangle_2_copy_9-35" data-name="Rounded Rectangle 2 copy 9" class="cls-29" d="M1919.74,29.275l-26.15,42.659a9.007,9.007,0,0,0,2.97,12.386l4.37,2.68a9.012,9.012,0,0,0,12.39-2.971l26.14-42.659a9.007,9.007,0,0,0-2.97-12.386l-4.37-2.681A9,9,0,0,0,1919.74,29.275Z"/>
    <path id="Rounded_Rectangle_2_copy_9-36" data-name="Rounded Rectangle 2 copy 9" class="cls-29" d="M1897.58,23.055l-18.56,46.467a9,9,0,0,0,5.02,11.7l4.76,1.9a9.014,9.014,0,0,0,11.71-5.023l18.55-46.467a9,9,0,0,0-5.02-11.7l-4.76-1.9A9,9,0,0,0,1897.58,23.055Z"/>
    <path id="Rounded_Rectangle_2_copy_10-28" data-name="Rounded Rectangle 2 copy 10" class="cls-29" d="M1726.36,44.449l39.13,31.415a9.029,9.029,0,0,1,1.38,12.7l-3.22,4.013a9.022,9.022,0,0,1-12.69,1.392l-39.13-31.415a9.039,9.039,0,0,1-1.39-12.7l3.22-4.013A9.034,9.034,0,0,1,1726.36,44.449Z"/>
    <path id="Rounded_Rectangle_2_copy_10-29" data-name="Rounded Rectangle 2 copy 10" class="cls-29" d="M1743.54,30.782l34.43,36.506a9.038,9.038,0,0,1-.37,12.772l-3.74,3.531a9.032,9.032,0,0,1-12.77-.37l-34.43-36.506a9.038,9.038,0,0,1,.37-12.772l3.75-3.531A9.02,9.02,0,0,1,1743.54,30.782Z"/>
    <path id="Rounded_Rectangle_2_copy_10-30" data-name="Rounded Rectangle 2 copy 10" class="cls-29" d="M1765.68,20.607l27.75,41.806a9.041,9.041,0,0,1-2.52,12.525l-4.29,2.847a9.028,9.028,0,0,1-12.52-2.525l-27.76-41.806a9.034,9.034,0,0,1,2.53-12.526l4.28-2.847A9.039,9.039,0,0,1,1765.68,20.607Z"/>
    <path id="Rounded_Rectangle_2_copy_10-31" data-name="Rounded Rectangle 2 copy 10" class="cls-29" d="M1788.26,13.4L1808,59.538a9.038,9.038,0,0,1-4.75,11.863l-4.73,2.026a9.021,9.021,0,0,1-11.85-4.747L1766.92,22.54a9.038,9.038,0,0,1,4.75-11.863l4.73-2.026A9.032,9.032,0,0,1,1788.26,13.4Z"/>
    <path id="Rounded_Rectangle_2_copy_10-32" data-name="Rounded Rectangle 2 copy 10" class="cls-29" d="M1809.85,9.423l13.2,48.421a9.036,9.036,0,0,1-6.34,11.1l-4.96,1.356a9.028,9.028,0,0,1-11.09-6.335l-13.2-48.421a9.03,9.03,0,0,1,6.33-11.1l4.97-1.356A9.032,9.032,0,0,1,1809.85,9.423Z"/>
    <path id="Rounded_Rectangle_2_copy_11-16" data-name="Rounded Rectangle 2 copy 11" class="cls-29" d="M1679.73,149.044l-8.74-49.438a9.014,9.014,0,0,0-10.47-7.3l-5.06.908a9.064,9.064,0,0,0-7.32,10.494l8.75,49.438a9.005,9.005,0,0,0,10.46,7.3l5.07-.909A9.056,9.056,0,0,0,1679.73,149.044Z"/>
    <path id="Rounded_Rectangle_2_copy_11-17" data-name="Rounded Rectangle 2 copy 11" class="cls-29" d="M1699.96,140.488L1684.5,92.741a9.008,9.008,0,0,0-11.37-5.79l-4.9,1.6a9.059,9.059,0,0,0-5.8,11.4l15.46,47.747a9.008,9.008,0,0,0,11.37,5.789l4.9-1.6A9.059,9.059,0,0,0,1699.96,140.488Z"/>
    <path id="Rounded_Rectangle_2_copy_11-18" data-name="Rounded Rectangle 2 copy 11" class="cls-29" d="M1719.51,125.911L1696.2,81.487a9.021,9.021,0,0,0-12.2-3.778l-4.55,2.4a9.053,9.053,0,0,0-3.8,12.214l23.31,44.424a9.011,9.011,0,0,0,12.19,3.778l4.56-2.4A9.07,9.07,0,0,0,1719.51,125.911Z"/>
    <path id="Rounded_Rectangle_2_copy_11-19" data-name="Rounded Rectangle 2 copy 11" class="cls-29" d="M1736.67,109.517L1705.71,70.06a9.02,9.02,0,0,0-12.68-1.508l-4.04,3.185a9.056,9.056,0,0,0-1.54,12.7l30.96,39.457a9.02,9.02,0,0,0,12.68,1.508l4.05-3.185A9.054,9.054,0,0,0,1736.67,109.517Z"/>
    <path id="Rounded_Rectangle_2_copy_11-20" data-name="Rounded Rectangle 2 copy 11" class="cls-29" d="M1750.52,92.447l-36.1-34.8a9.026,9.026,0,0,0-12.77.254l-3.57,3.712a9.049,9.049,0,0,0,.23,12.783l36.1,34.8a9.025,9.025,0,0,0,12.77-.254l3.57-3.712A9.049,9.049,0,0,0,1750.52,92.447Z"/>
    <path id="Rounded_Rectangle_2_copy_12-25" data-name="Rounded Rectangle 2 copy 12" class="cls-29" d="M1556.81,63.44l-31.29,39.22a9.077,9.077,0,0,0,1.41,12.723l4.02,3.225a9,9,0,0,0,12.68-1.4l31.29-39.219a9.077,9.077,0,0,0-1.41-12.723l-4.02-3.225A9,9,0,0,0,1556.81,63.44Z"/>
    <path id="Rounded_Rectangle_2_copy_12-26" data-name="Rounded Rectangle 2 copy 12" class="cls-29" d="M1537.09,53.8l-25.61,43.179a9.076,9.076,0,0,0,3.15,12.41l4.41,2.641a9,9,0,0,0,12.37-3.134l25.61-43.178a9.085,9.085,0,0,0-3.15-12.41l-4.42-2.641A8.99,8.99,0,0,0,1537.09,53.8Z"/>
    <path id="Rounded_Rectangle_2_copy_12-27" data-name="Rounded Rectangle 2 copy 12" class="cls-29" d="M1519.45,41.669L1495.27,85.7a9.081,9.081,0,0,0,3.55,12.3l4.5,2.491a9.007,9.007,0,0,0,12.26-3.551l24.17-44.029a9.072,9.072,0,0,0-3.55-12.3l-4.5-2.491A9,9,0,0,0,1519.45,41.669Z"/>
    <path id="Rounded_Rectangle_2_copy_13-4" data-name="Rounded Rectangle 2 copy 13" class="cls-29" d="M1495.25,29.684l-17.26,47.173a9.067,9.067,0,0,0,5.36,11.624l4.82,1.784a9,9,0,0,0,11.58-5.359l17.26-47.173a9.067,9.067,0,0,0-5.36-11.624l-4.82-1.784A9,9,0,0,0,1495.25,29.684Z"/>
    <path id="Rounded_Rectangle_2_copy_14-4" data-name="Rounded Rectangle 2 copy 14" class="cls-29" d="M1477.24,17.675l-17.26,47.173a9.067,9.067,0,0,0,5.36,11.624l4.83,1.784a8.992,8.992,0,0,0,11.57-5.359L1499,25.724a9.067,9.067,0,0,0-5.36-11.624l-4.82-1.784A9,9,0,0,0,1477.24,17.675Z"/>
    <path id="Rounded_Rectangle_2_copy_17-2" data-name="Rounded Rectangle 2 copy 17" class="cls-29" d="M1455.27,11.286L1445,60.459a9.075,9.075,0,0,0,6.99,10.726l5.03,1.068a9,9,0,0,0,10.68-6.976L1477.96,16.1a9.069,9.069,0,0,0-6.98-10.726l-5.03-1.068A9,9,0,0,0,1455.27,11.286Z"/>
    <path id="Rounded_Rectangle_2_copy_18-2" data-name="Rounded Rectangle 2 copy 18" class="cls-29" d="M1431.79,8.325l-3.77,50.091a9.081,9.081,0,0,0,8.33,9.724l5.12,0.4a9.007,9.007,0,0,0,9.69-8.309l3.76-50.091A9.067,9.067,0,0,0,1446.6.419l-5.13-.4A9,9,0,0,0,1431.79,8.325Z"/>
    <path id="Rounded_Rectangle_2_copy_12-28" data-name="Rounded Rectangle 2 copy 12" class="cls-29" d="M1633.75,155.376l-6.89-49.827a9.008,9.008,0,0,1,7.71-10.173l5.09-.686a9.077,9.077,0,0,1,10.18,7.765l6.88,49.827a8.994,8.994,0,0,1-7.7,10.173l-5.09.685A9.071,9.071,0,0,1,1633.75,155.376Z"/>
    <path id="Rounded_Rectangle_2_copy_12-29" data-name="Rounded Rectangle 2 copy 12" class="cls-29" d="M1611.89,153.416l0.02-50.273a8.993,8.993,0,0,1,9.03-9.007l5.14,0.024a9.089,9.089,0,0,1,9.03,9.092l-0.03,50.273a8.986,8.986,0,0,1-9.03,9.006l-5.14-.024A9.087,9.087,0,0,1,1611.89,153.416Z"/>
    <path id="Rounded_Rectangle_2_copy_12-30" data-name="Rounded Rectangle 2 copy 12" class="cls-29" d="M1588.84,145.5l8.5-49.509a8.978,8.978,0,0,1,10.42-7.34l5.07,0.9a9.086,9.086,0,0,1,7.36,10.484l-8.5,49.509a8.978,8.978,0,0,1-10.42,7.34l-5.07-.9A9.086,9.086,0,0,1,1588.84,145.5Z"/>
    <path id="Rounded_Rectangle_2_copy_12-31" data-name="Rounded Rectangle 2 copy 12" class="cls-29" d="M1565.49,136.129l17.29-47.114a8.99,8.99,0,0,1,11.59-5.324l4.82,1.8a9.09,9.09,0,0,1,5.36,11.638l-17.29,47.115a8.989,8.989,0,0,1-11.59,5.324l-4.83-1.8A9.093,9.093,0,0,1,1565.49,136.129Z"/>
    <path id="Rounded_Rectangle_2_copy_12-32" data-name="Rounded Rectangle 2 copy 12" class="cls-29" d="M1545.07,120.092l23.61-44.251a9,9,0,0,1,12.22-3.671l4.53,2.446a9.081,9.081,0,0,1,3.71,12.26l-23.61,44.251a8.983,8.983,0,0,1-12.21,3.671l-4.53-2.446A9.094,9.094,0,0,1,1545.07,120.092Z"/>
    <path id="Rounded_Rectangle_2_copy_10-33" data-name="Rounded Rectangle 2 copy 10" class="cls-29" d="M1832.93,9.648l4.83,49.96a9.033,9.033,0,0,1-8.12,9.865l-5.12.5a9.027,9.027,0,0,1-9.86-8.12l-4.83-49.96a9.04,9.04,0,0,1,8.12-9.865l5.12-.5A9.027,9.027,0,0,1,1832.93,9.648Z"/>
    <path id="Rounded_Rectangle_2_copy_10-34" data-name="Rounded Rectangle 2 copy 10" class="cls-29" d="M1855.58,9.564l0.58,50.191a9.042,9.042,0,0,1-8.93,9.141l-5.15.061a9.032,9.032,0,0,1-9.13-8.928l-0.58-50.191A9.042,9.042,0,0,1,1841.3.7l5.14-.061A9.034,9.034,0,0,1,1855.58,9.564Z"/>
    <path id="Rounded_Rectangle_2_copy_10-35" data-name="Rounded Rectangle 2 copy 10" class="cls-29" d="M1877.04,14.159l-6.34,49.794a9.035,9.035,0,0,1-10.1,7.825l-5.1-.648a9.03,9.03,0,0,1-7.82-10.1l6.34-49.794a9.035,9.035,0,0,1,10.1-7.825l5.1,0.648A9.03,9.03,0,0,1,1877.04,14.159Z"/>
    <path id="Rounded_Rectangle_2_copy_10-36" data-name="Rounded Rectangle 2 copy 10" class="cls-29" d="M1898.28,23.21l-14.66,48.008a9.039,9.039,0,0,1-11.28,6l-4.92-1.5a9.032,9.032,0,0,1-6-11.279l14.67-48.008a9.024,9.024,0,0,1,11.27-6l4.92,1.5A9.032,9.032,0,0,1,1898.28,23.21Z"/>
  </g>
</svg>
