<?xml version="1.0" encoding="utf-8"?>
<!-- Generator: Adobe Illustrator 22.0.1, SVG Export Plug-In . SVG Version: 6.00 Build 0)  -->
<svg version="1.1" id="Button" xmlns="http://www.w3.org/2000/svg" xmlns:xlink="http://www.w3.org/1999/xlink" x="0px" y="0px"
	 viewBox="0 0 150 150" style="enable-background:new 0 0 150 150;" xml:space="preserve">
<style type="text/css">
	.st0{fill:#4A525A;}
	.st1{fill:#282D33;}
	.st2{fill:#A31621;}
	.st3{fill:none;}
	.st4{fill:#F9F9F9;}
	.st5{font-family:'Dosis-Regular';}
	.st6{font-size:24px;}
</style>
<circle class="st0" cx="75" cy="75" r="74"/>
<ellipse id="Ellipse_1_copy" class="st1" cx="76.4" cy="74.6" rx="61.2" ry="60.2"/>
<ellipse id="Ellipse_1_copy_2_2_" class="st2" cx="76.4" cy="84.2" rx="61.2" ry="60.2"/>
<rect x="39.5" y="109.2" class="st3" width="75.8" height="19.1"/>
<text transform="matrix(1 0 0 1 39.5296 127.5326)" class="st4 st5 st6">DELETE</text>
<g id="Layer_3">
	<path class="st4" d="M62.2,83.3c0,0-5.3-0.2-7-3.5c-1.7-3.3-1.6-6-1.6-6s-1.7,0.4-2.9,0s-3.6-0.6-3.9-1s-1.8,1.3-3.4,1.1
		c-1.7-0.2-3.7,0-5.3-2.4c-1.7-2.4-2.3-3.5-2.2-6.2c0.2-2.8,1.4-1.6,1.4-2.6s-2.2-5.3-0.4-11.1c1.8-5.8,7.3-9.9,8.8-10.5
		c1.4-0.6,7.2-1.5,8.7-1s3.2,1,3.2,1s4.7-6.2,6.1-7.2c1.4-1,5.7-3.5,11.6-3.5c5.9,0,11.2,2.4,13.6,4.3c2.3,1.8,4.8,5.4,4.8,5.4
		s2.5-2.3,4-2.2s5,0.3,6.1,0.7c1.1,0.5,4.3,2.5,5.1,3.2s3.3,1.3,3.8,1.9c0.5,0.6,2.2,2.8,2.4,4.7c0.2,1.8,0.8,3.9,0,6.2
		c0,0,2.1,1.4,2.9,3.1s1.2,4.1,0.8,6.1c-0.3,1.9-1.3,4.3-2.5,5.8s-3.9,2.1-4.3,2.1c0,0-0.8,4-2,5s-3.2,2.7-5.2,2.6
		c-2.1-0.1-4.4-0.6-4.4-0.6s-1.6,1-2.2,1.9c-0.7,0.9-3.9,0.8-5.2,0.6c-1.2-0.3-2.4-0.6-2.4-0.6s0.9-3.5,1.7-4.6s2-2.4,2-3
		s0.2-2.3-1.2-2.5s-3.2,0.9-3.8,2.6s-2.2,5.5-2.8,7.3s-1.4,6.5-1.4,6.5s2.8-0.1,3.8,0.7s2.6,1.2,2.6,5.1s-3.8,4.8-3.8,4.8
		s1.8,0.8-11.1,0.8s-12.8-0.7-12.8-0.7s-3.7-1.3-3.7-5c0-3.7,3.6-5.3,3.6-5.3s1.9-0.5,3.2-0.5c0,0-1.2-4.6-1.9-6.7s-2.1-6.3-3.3-7.9
		c-1.2-1.6-2-2.2-3.2-1.6c-1.2,0.6-0.2,3.2-0.2,3.2s1.2,1.7,1.9,3.5S62.1,82,62.2,83.3z"/>
	<path class="st4" d="M59.8,104c0,0,2.1-0.8,2.5-1.5c0.4-0.8,0.6-1.6,1.4-1.9c0.8-0.2,1.9-0.3,1.9-0.3h19.3c0,0,2.1,0.1,2.2,0.4
		c0.1,0.3,0.9,2,1.4,2.2c0.5,0.2,1.2,1,1.5,1.1c0.4,0.1,7.2-0.8,7.2-0.8s5.5-0.4,8-0.4s8,0.5,9.2,1.2c1.2,0.7,2.5,1.6,2.1,1.9
		c-0.4,0.4-0.6,0.7-1.8,0.7s-78.7,0-78.7,0s-0.7,0-1.6-0.3c-0.9-0.2-0.6-1.5,0.7-2.1s5.5-1.2,6.6-1.3c1.1-0.1,6.5-0.2,7.8,0
		S59.8,104,59.8,104z"/>
</g>
<g id="Layer_4">
	<path class="st0" d="M15.3,73.2c0,0-0.8,13.1,4.7,24.4s11.6,19.5,17.4,23.3s10.3,7.8,17.9,10.2s16,3.5,23.7,3.5s18.8-3.7,18.8-3.7
		s13.4-5.5,18.9-11.1c0,0,10.9-10.5,13.2-16c0,0,8.1-15.6,7.7-24l6,0.7l-9,33.8l-18.8,19.5l-31.8,12.6l-28.7-1.8l-23.8-13.8
		l-19.6-26.2L8.2,76.3L15.3,73.2z"/>
</g>
</svg>
