<?xml version="1.0" encoding="utf-8"?>
<!-- Generator: Adobe Illustrator 22.0.1, SVG Export Plug-In . SVG Version: 6.00 Build 0)  -->
<svg version="1.1" id="Layer_1" xmlns="http://www.w3.org/2000/svg" xmlns:xlink="http://www.w3.org/1999/xlink" x="0px" y="0px"
	 viewBox="0 0 1000 422" style="enable-background:new 0 0 1000 422;" xml:space="preserve">
<style type="text/css">
	.st0{fill:#4A525A;}
	.st1{fill:#781119;}
	.st2{fill:#A31621;}
	.st3{fill:none;}
	.st4{fill:#F9F9F9;}
	.st5{font-family:'Dosis-Regular';}
	.st6{font-size:170px;}
</style>
<path class="st0" d="M819.7,424H180.3C81.1,424,0,342.9,0,243.7v-63.4C0,81.1,81.1,0,180.3,0h639.4C918.9,0,1000,81.1,1000,180.3
	v63.4C1000,342.9,918.9,424,819.7,424z"/>
<path class="st1" d="M791.3,371.2H208.7c-81.4,0-148-66.6-148-148v-22.3c0-81.4,66.6-148,148-148h582.5c81.4,0,148,66.6,148,148
	v22.3C939.3,304.6,872.7,371.2,791.3,371.2z"/>
<path class="st2" d="M791.3,351.2H208.7c-81.4,0-148-66.6-148-148v-22.3c0-81.4,66.6-148,148-148h582.5c81.4,0,148,66.6,148,148
	v22.3C939.3,284.6,872.7,351.2,791.3,351.2z"/>
<rect x="151.4" y="115.6" class="st3" width="714" height="152.8"/>
<text transform="matrix(1 0 0 1 151.3634 245.1711)" class="st4 st5 st6">GENERATE</text>
<path class="st0" d="M60.7,211c0,0-2.6,64.1,35.8,109.2c23.1,27.1,62.4,50.9,112.2,50.9H500h291.3C948.3,357.7,937.8,211,937.8,211
	l62.2,1l-83.3,159.1l-102.3,40.6H152.3L55,348.5L16.7,212L60.7,211z"/>
</svg>
